<?xml version="1.0" encoding="UTF-8"?>
<svg xmlns="http://www.w3.org/2000/svg" viewBox="0 0 321.97 321.97">
  <defs>
    <style>
      .cls-1 {
        fill: #6d6b67;
      }

      .cls-1, .cls-2, .cls-3, .cls-4, .cls-5, .cls-6, .cls-7, .cls-8, .cls-9, .cls-10, .cls-11, .cls-12, .cls-13 {
        stroke-width: 0px;
      }

      .cls-2, .cls-5 {
        fill: #926f4a;
      }

      .cls-3 {
        fill: #c3dffb;
      }

      .cls-14 {
        isolation: isolate;
      }

      .cls-4 {
        fill: #7fbfff;
      }

      .cls-5 {
        mix-blend-mode: multiply;
        opacity: .36;
      }

      .cls-6 {
        fill: #6a5035;
      }

      .cls-7 {
        fill: #fff;
      }

      .cls-8 {
        fill: #231f20;
      }

      .cls-9 {
        fill: #775b3b;
      }

      .cls-10 {
        fill: #ab6e29;
      }

      .cls-11 {
        fill: #3d3c3a;
      }

      .cls-12 {
        fill: #62493e;
      }

      .cls-13 {
        fill: #312017;
      }
    </style>
  </defs>
  <g class="cls-14">
    <g id="Camada_2" data-name="Camada 2">
      <g id="Layer_1" data-name="Layer 1">
        <g>
          <g>
            <path class="cls-3" d="M28.08,2.4h265.81c14.17,0,25.68,11.51,25.68,25.68v265.81c0,14.17-11.51,25.68-25.68,25.68H28.08c-14.17,0-25.68-11.51-25.68-25.68V28.08C2.4,13.91,13.91,2.4,28.08,2.4Z"/>
            <path class="cls-4" d="M293.89,321.97H28.08c-15.48,0-28.08-12.6-28.08-28.08V28.08C0,12.6,12.6,0,28.08,0h265.8c15.48,0,28.08,12.6,28.08,28.08v265.81c0,15.48-12.6,28.08-28.08,28.08ZM28.08,4.8C15.25,4.8,4.8,15.24,4.8,28.08v265.81c0,12.84,10.44,23.28,23.28,23.28h265.8c12.84,0,23.28-10.44,23.28-23.28V28.08c0-12.84-10.44-23.28-23.28-23.28H28.08Z"/>
          </g>
          <g>
            <g>
              <g>
                <path class="cls-11" d="M210.27,91.1c11.98,3.08,23.07-2.28,31.33-10.64,2.58-3.33,4.65-7.05,6.52-10.86,3.44-7,6.01-14.44,7.95-21.98,1.5-5.81,2.61-11.72,3.28-17.69-15.71,1.6-31.43,7-44.18,16.43-10.44,7.71-18.46,18.25-22.23,30.52,1.19,8.1,10.1,12.36,17.33,14.22Z"/>
                <path class="cls-1" d="M207.98,90.43c2.82-.51,5.6-1.18,8.3-2.04,2.07-.66,4.05-1.42,5.85-2.65,4.21-2.88,7.53-6.88,10.27-11.14,5.28-8.23,8.67-17.52,13.15-26.18,3.51-6.78,7.87-13.01,13.72-17.8.03-.23.06-.46.09-.69-15.71,1.6-31.43,7-44.18,16.43-10.44,7.71-18.46,18.25-22.23,30.52,1.07,7.26,8.33,11.43,15.03,13.56Z"/>
              </g>
              <g>
                <path class="cls-11" d="M102.36,91.1c-11.98,3.08-23.07-2.28-31.33-10.64-2.58-3.33-4.65-7.05-6.52-10.86-3.44-7-6.01-14.44-7.95-21.98-1.5-5.81-2.61-11.72-3.28-17.69,15.71,1.6,31.43,7,44.18,16.43,10.44,7.71,18.46,18.25,22.23,30.52-1.19,8.1-10.1,12.36-17.33,14.22Z"/>
                <path class="cls-1" d="M104.65,90.43c-2.82-.51-5.6-1.18-8.3-2.04-2.06-.66-4.05-1.42-5.85-2.65-4.21-2.88-7.53-6.88-10.27-11.14-5.28-8.23-8.67-17.52-13.15-26.18-3.51-6.78-7.87-13.01-13.72-17.8-.03-.23-.06-.46-.09-.69,15.71,1.6,31.43,7,44.18,16.43,10.44,7.71,18.46,18.25,22.23,30.52-1.07,7.26-8.33,11.43-15.03,13.56Z"/>
              </g>
            </g>
            <path class="cls-2" d="M285.75,217.18c-1.66-4-2.98-8.15-4.86-12.06-1.87-3.91-4.36-7.33-7.29-10.52-5.84-6.37-12.98-11-19.59-16.46-5.01-4.14-9.58-9.03-12.31-14.99-3.23-7.06-3.86-15.18-4.16-22.84-.32-8.27.19-16.55-.18-24.81-.36-7.98-1.59-15.97-3.95-23.61-9.71-31.38-43.66-51.41-75.63-49.71-20.92,1.12-42.62,8.72-56.84,24.68-18.26,20.5-16.32,47.86-17.32,73.45-.3,7.66-.93,15.78-4.16,22.84-2.73,5.97-7.3,10.86-12.31,14.99-6.61,5.46-13.76,10.09-19.59,16.46-2.92,3.19-5.41,6.61-7.29,10.52-1.87,3.91-3.2,8.06-4.86,12.06-.58,1.4,1.13,2.13,2.21,1.55,1.9-1.03,3.5-2.38,5-3.85-2.11,4.9-3.51,10.02-3.01,15.54.15,1.63,2.58.38,3.04-.31.49-.72.93-1.47,1.37-2.22-1.22,5.29-1.22,10.97-.1,16.03.3,1.33,2.04.72,2.78-.13-.29,7.54,1.64,15.45,4.13,21.95,4.66,12.17,13.58,21.37,25.3,26.96,12.96,6.17,27.83,8.76,42.04,9.85,8.75.67,17.54.5,26.27-.37,5.47-.55,10.8-1.6,16.13-2.74,5.33,1.14,10.66,2.19,16.13,2.74,8.73.87,17.52,1.04,26.27.37,14.21-1.09,29.08-3.68,42.04-9.85,11.72-5.58,20.64-14.79,25.3-26.96,2.49-6.5,4.42-14.42,4.13-21.95.74.85,2.48,1.46,2.78.13,1.13-5.06,1.13-10.74-.1-16.03.44.76.89,1.5,1.37,2.22.46.68,2.89,1.94,3.04.31.5-5.52-.9-10.64-3.01-15.54,1.5,1.47,3.1,2.83,5,3.85,1.08.58,2.79-.15,2.21-1.55Z"/>
            <path class="cls-5" d="M285.75,217.18c-1.66-4-2.98-8.15-4.86-12.06-1.82-3.8-4.23-7.14-7.05-10.25.35,1.01.66,2.05.89,3.12.15.69-.59,1.37-1.25.96-3.33-2.07-6.29-4.62-9.35-7.04,3.94,6.07,6.82,12.94,6.87,20.23,0,.85-1.16,1.15-1.58.43-.55-.94-1.11-1.88-1.67-2.81,1.04,3.38,1.76,6.86,2.13,10.37.68,6.48.09,13.23-2.75,19.16-.31.64-1.42.5-1.55-.2-.55-2.93-.91-5.91-1.33-8.88-1,5.88-2.77,11.66-5.4,16.97-3.33,6.72-8.62,13.39-16.31,15.08-.55.12-1.06-.25-1.08-.82-.08-3.1.1-6.21.29-9.3.62-10.17,2.03-22.62-4.18-31.42.23,1.71.43,3.43.56,5.15.74,9.99-.23,21.5-7.64,29.02,0,.01-.02.01-.03.02-1.88,2.67-4.01,5.14-6.18,7.33-4.23,4.26-9.07,7.99-14.32,10.91-5.37,2.98-11.07,4.56-17.09,5.68-14.86,2.76-30.41,2.49-45.08-1.25-14.39-3.67-27.78-10.93-38.04-21.76-5.03-5.31-9.23-11.47-11.78-18.36-1.45-3.93-2.02-7.99-1.96-12.16.05-3.54.41-7.07.52-10.61-3.59,2.82-6.67,6.22-8.99,10.17-4.43,7.55-6,16.38-6.41,25.03-.42,8.88.35,17.75.97,26.6.04.63-.76,1.08-1.28.73-3.69-2.48-7.01-5.45-9.84-8.88-8.88-10.73-12.73-24.84-12.6-38.65-1.82,5.25-2.69,10.79-4.16,16.16-.24.86-1.36.75-1.64,0-5.09-13.81-1.19-28.18,4.74-41.05-3.96,3.81-6.92,8.68-9.59,13.4-.52.92-1.67.23-1.55-.66.9-6.65,3.27-13.03,6.81-18.71-3.01,2.96-5.43,6.5-7.89,9.95-.47.65-1.59.47-1.59-.43.03-4.01.9-8.02,2.38-11.85-2.2,2.64-4.12,5.46-5.62,8.59-1.87,3.91-3.2,8.06-4.86,12.06-.58,1.4,1.13,2.13,2.21,1.55,1.9-1.03,3.5-2.38,5-3.85-2.11,4.9-3.51,10.02-3.01,15.54.15,1.63,2.58.38,3.04-.31.49-.72.93-1.47,1.37-2.22-1.22,5.29-1.22,10.97-.1,16.03.3,1.33,2.04.72,2.78-.13-.29,7.54,1.64,15.45,4.13,21.95,4.66,12.17,13.58,21.37,25.3,26.96,12.96,6.17,27.83,8.76,42.04,9.85,8.75.67,17.54.5,26.27-.37,5.47-.55,10.8-1.6,16.13-2.74,5.33,1.14,10.66,2.19,16.13,2.74,8.73.87,17.52,1.04,26.27.37,14.21-1.09,29.08-3.68,42.04-9.85,11.72-5.58,20.64-14.79,25.3-26.96,2.49-6.5,4.42-14.42,4.13-21.95.74.85,2.48,1.46,2.78.13,1.13-5.06,1.13-10.74-.1-16.03.44.76.89,1.5,1.37,2.22.46.68,2.89,1.94,3.04.31.5-5.52-.9-10.64-3.01-15.54,1.5,1.47,3.1,2.83,5,3.85,1.08.58,2.79-.15,2.21-1.55Z"/>
            <path class="cls-9" d="M219.19,147.56c-.92,0-1.85-.12-2.72-.38-57.05-16.91-111.07-.21-111.61-.04-2.86.91-6.46.32-8.05-1.32-1.59-1.63-.55-3.69,2.31-4.59,2.43-.77,60.19-18.61,122.81-.04,2.9.86,4.03,2.9,2.53,4.56-1.06,1.16-3.12,1.82-5.26,1.82Z"/>
            <path class="cls-6" d="M236.62,213.14c-4.02-10.08-11.65-18.17-18.58-26.31-5.08-5.97-10.03-12.1-14.45-18.59-4.22-5.46-7.96-11.26-10.7-17.61-3.85-8.92-5.25-18.39-4.51-27.89-.44-.21-.93-.25-1.32.05-4.49,3.4-4.9,8.93-5.85,14.16-1.42-5.2-2.58-10.48-5.15-15.26-.52-.97-2.68-1.78-3.11-.32-.83,2.87-.83,5.86-1.14,8.8-1.8-3.17-3.26-6.54-5.38-9.53-.06-.09-.15-.17-.23-.26.01-1.23-1.94-1.13-2.63-.57-1.31,1.06-2.23,2.34-2.98,3.76-.75-1.41-1.67-2.7-2.98-3.76-.69-.56-2.64-.67-2.63.57-.09.09-.17.17-.23.26-2.12,2.98-3.58,6.36-5.38,9.53-.31-2.95-.31-5.94-1.14-8.8-.43-1.47-2.58-.65-3.11.32-2.58,4.78-3.74,10.06-5.15,15.26-.96-5.23-1.36-10.76-5.85-14.16,2.46,6.17.74,13.8-1.29,19.87-2.36,7.05-5.56,14.14-9.63,20.37-4.49,6.89-10.1,12.95-15.88,18.77-1.38,1.69-2.78,3.36-4.2,5.02-6.93,8.14-14.56,16.23-18.58,26.31-4.26,10.68-3.14,22.54-2.13,33.71.98,10.8,2.82,21.63,6.74,31.78,3.48,9.02,8.42,18.26,16.76,23.62,7.56,4.86,16.63,6.59,25.43,7.56,9.7,1.07,19.47,1.6,29.23,1.26,9.75.35,19.53-.18,29.23-1.26,8.8-.97,17.87-2.71,25.43-7.56,8.35-5.36,13.28-14.6,16.76-23.62,3.92-10.15,5.77-20.99,6.74-31.78,1.01-11.17,2.13-23.03-2.13-33.71Z"/>
            <g>
              <path class="cls-8" d="M152.36,210.63c-.67-2.63-2.38-5.89-5.64-5.16-1.47.33-1.94,1.78-1.97,3.13-.04,1.8.31,2.88,1.98,3.82,1.15.64,2.39,1.13,3.67,1.44.75.18,1.69.24,2.15-.39.57-.79.01-2.02-.2-2.84Z"/>
              <path class="cls-8" d="M168.82,210.63c.67-2.63,2.38-5.89,5.64-5.16,1.47.33,1.94,1.78,1.97,3.13.04,1.8-.31,2.88-1.98,3.82-1.15.64-2.39,1.13-3.67,1.44-.75.18-1.69.24-2.15-.39-.57-.79-.01-2.02.2-2.84Z"/>
            </g>
            <g>
              <path class="cls-10" d="M158.2,259.54c-.76,0-1.38-.62-1.38-1.38v-23.81c0-.76.62-1.38,1.38-1.38s1.38.62,1.38,1.38v23.81c0,.76-.62,1.38-1.38,1.38Z"/>
              <path class="cls-10" d="M142.11,274.91c-.64,0-1.21-.44-1.35-1.09-.16-.75.32-1.48,1.06-1.64,4.51-.96,15-4.38,15-15.46,0-.76.62-1.38,1.38-1.38s1.38.62,1.38,1.38c0,9.08-6.43,15.87-17.19,18.16-.1.02-.19.03-.29.03Z"/>
              <path class="cls-10" d="M174.3,274.91c-.09,0-.19,0-.29-.03-10.76-2.29-17.19-9.08-17.19-18.16,0-.76.62-1.38,1.38-1.38s1.38.62,1.38,1.38c0,11.08,10.49,14.5,15,15.46.75.16,1.22.89,1.06,1.64-.14.65-.71,1.09-1.35,1.09Z"/>
            </g>
            <g>
              <path class="cls-13" d="M89.26,100.59c-.46,0-.93-.19-1.26-.56-.63-.7-.58-1.77.12-2.4.11-.1,11.61-10.28,26.89-1.37.81.47,1.09,1.52.61,2.33-.47.81-1.52,1.08-2.33.61-13.08-7.62-22.5.6-22.89.96-.33.29-.73.44-1.14.44Z"/>
              <g>
                <path class="cls-7" d="M122.99,121.9c0,10.09-8.18,18.27-18.27,18.27s-18.27-8.18-18.27-18.27,8.18-18.27,18.27-18.27,18.27,8.18,18.27,18.27Z"/>
                <path class="cls-12" d="M119.29,121.9c0,8.05-6.52,14.57-14.57,14.57s-14.57-6.52-14.57-14.57,6.52-14.57,14.57-14.57,14.57,6.52,14.57,14.57Z"/>
                <circle class="cls-13" cx="104.72" cy="122.22" r="8.94"/>
                <path class="cls-7" d="M102.02,115.6c0,1.42-1.15,2.58-2.58,2.58s-2.58-1.15-2.58-2.58,1.15-2.58,2.58-2.58,2.58,1.15,2.58,2.58Z"/>
                <path class="cls-7" d="M96.86,122.84c0,1.09-.88,1.97-1.96,1.97s-1.97-.88-1.97-1.97.88-1.96,1.97-1.96,1.96.88,1.96,1.96Z"/>
              </g>
            </g>
            <g>
              <path class="cls-13" d="M201.44,100.59c-.46,0-.93-.19-1.26-.56-.63-.7-.58-1.77.12-2.4.12-.1,11.61-10.28,26.89-1.37.81.47,1.09,1.52.61,2.33-.47.81-1.51,1.08-2.33.61-13.08-7.62-22.5.6-22.89.96-.33.29-.73.44-1.14.44Z"/>
              <g>
                <path class="cls-7" d="M235.17,121.9c0,10.09-8.18,18.27-18.27,18.27s-18.27-8.18-18.27-18.27,8.18-18.27,18.27-18.27,18.27,8.18,18.27,18.27Z"/>
                <path class="cls-12" d="M231.47,121.9c0,8.05-6.52,14.57-14.57,14.57s-14.57-6.52-14.57-14.57,6.52-14.57,14.57-14.57,14.57,6.52,14.57,14.57Z"/>
                <path class="cls-13" d="M225.84,122.22c0,4.94-4,8.94-8.94,8.94s-8.94-4-8.94-8.94,4-8.94,8.94-8.94,8.94,4,8.94,8.94Z"/>
                <path class="cls-7" d="M214.2,115.6c0,1.42-1.15,2.58-2.58,2.58s-2.58-1.15-2.58-2.58,1.15-2.58,2.58-2.58,2.58,1.15,2.58,2.58Z"/>
                <path class="cls-7" d="M209.04,122.84c0,1.09-.88,1.97-1.96,1.97s-1.97-.88-1.97-1.97.88-1.96,1.97-1.96,1.96.88,1.96,1.96Z"/>
              </g>
            </g>
            <path class="cls-5" d="M236.62,213.14c-.68-1.7-1.49-3.32-2.35-4.92.36,1.29.7,2.58.98,3.89,1.51,7.15,1.74,14.45,1.54,21.74-.37,13.14-1.77,30.21-8.53,41.72-5.07,8.63-10.83,15.74-19.48,20.69-9,5.15-18.39,7.01-28.57,8.83-10.33,1.84-24.01.23-34.47-.48-10.52-.71-21.26-2.4-30.75-7.19-9.04-4.55-16.13-11.9-20.86-20.8-2.57-4.82-4.49-9.98-5.99-15.22-2-6.97-3.45-14.17-4.25-21.37-.86-7.68-.77-15.55,1.18-23.07,1.79-6.89,5.13-13.33,8.96-19.29-3.78,4.78-7.2,9.81-9.47,15.49-4.26,10.68-3.14,22.54-2.13,33.71.98,10.8,2.82,21.63,6.74,31.78,3.48,9.02,8.42,18.26,16.76,23.62,7.56,4.86,16.63,6.59,25.43,7.56,9.7,1.07,19.47,1.6,29.23,1.26,9.75.35,19.53-.18,29.23-1.26,8.8-.97,17.87-2.71,25.43-7.56,8.35-5.36,13.28-14.6,16.76-23.62,3.92-10.15,5.77-20.99,6.74-31.78,1.01-11.17,2.13-23.03-2.13-33.71Z"/>
          </g>
        </g>
      </g>
    </g>
  </g>
</svg>