<?xml version="1.0" encoding="UTF-8"?>
<svg xmlns="http://www.w3.org/2000/svg" viewBox="0 0 271.1 271.1">
  <defs>
    <style>
      .cls-1 {
        fill: #a7d3ff;
      }

      .cls-1, .cls-2, .cls-3 {
        stroke-width: 0px;
      }

      .cls-2 {
        fill: #4aa4ff;
      }

      .cls-3 {
        fill: #c3dffb;
      }

      .cls-4 {
        isolation: isolate;
      }

      .cls-5 {
        mix-blend-mode: multiply;
      }
    </style>
  </defs>
  <g class="cls-4">
    <g id="Camada_2" data-name="Camada 2">
      <g id="Layer_1" data-name="Layer 1">
        <g>
          <path class="cls-3" d="M245.11,268.7l-221.5-2c-11.82-.11-21.31-9.77-21.21-21.59L4.41,23.61c.11-11.82,9.77-21.31,21.59-21.21l221.5,2c11.82.11,21.31,9.77,21.21,21.59l-2,221.5c-.11,11.82-9.77,21.31-21.59,21.21Z"/>
          <g class="cls-5">
            <path class="cls-1" d="M23.99,2.59C13.79,3.46,5.68,11.42,4.63,21.61c6.46-6.34,12.91-12.68,19.37-19.02Z"/>
            <path class="cls-1" d="M31.28,133.29C75.29,90.07,119.29,46.86,163.3,3.64l-34.16-.31C87.25,44.47,45.36,85.61,3.47,126.75l-.31,34.16c9.37-9.21,18.75-18.41,28.12-27.62Z"/>
            <path class="cls-1" d="M47.18,186.16C108.92,125.53,170.66,64.9,232.4,4.27l-39.54-.36-3.61,3.54C127.13,68.46,65.02,129.46,2.9,190.47l-.36,39.54c14.88-14.62,29.76-29.23,44.64-43.84Z"/>
            <path class="cls-1" d="M30.33,266.76L268.64,32.71l.06-6.72c.07-7.69-3.96-14.42-10.02-18.24l-13.23,12.99C165.48,99.28,85.52,177.81,5.55,256.35c3.72,6.13,10.37,10.28,18.06,10.35l6.72.06Z"/>
            <path class="cls-1" d="M146.32,227.55c40.55-39.82,81.09-79.64,121.64-119.46l.41-45.82L59.89,267.02l45.82.41c13.54-13.29,27.07-26.59,40.61-39.88Z"/>
            <path class="cls-1" d="M267.21,190.92l.48-53.26c-44.14,43.35-88.28,86.7-132.42,130.05l53.83.49c25.96-25.83,51.98-51.6,78.11-77.27Z"/>
            <path class="cls-1" d="M218.55,268.46l26.56.24c11.82.11,21.49-9.39,21.59-21.21l.24-26.91c-16.17,15.92-32.29,31.89-48.39,47.88Z"/>
            <path class="cls-1" d="M99.58,3.07l-45.82-.41C37.22,18.89,20.69,35.13,4.15,51.37l-.41,45.82L99.58,3.07Z"/>
          </g>
          <g class="cls-5">
            <path class="cls-1" d="M268.52,23.99c-.87-10.2-8.83-18.31-19.02-19.37,6.34,6.46,12.68,12.91,19.02,19.37Z"/>
            <path class="cls-1" d="M137.81,31.28c43.22,44,86.43,88.01,129.65,132.01l.31-34.16C226.63,87.25,185.49,45.36,144.35,3.47l-34.16-.31c9.21,9.37,18.41,18.75,27.62,28.12Z"/>
            <path class="cls-1" d="M84.94,47.18c60.63,61.74,121.26,123.47,181.89,185.21l.36-39.54-3.54-3.61C202.65,127.13,141.64,65.01,80.64,2.9l-39.54-.36c14.61,14.88,29.23,29.76,43.84,44.64Z"/>
            <path class="cls-1" d="M4.34,30.33l234.04,238.31,6.72.06c7.69.07,14.42-3.96,18.24-10.02l-13-13.23C171.82,165.48,93.29,85.51,14.75,5.55c-6.13,3.72-10.28,10.37-10.35,18.06l-.06,6.72Z"/>
            <path class="cls-1" d="M43.55,146.32c39.82,40.55,79.64,81.09,119.46,121.64l45.82.41L4.08,59.89l-.41,45.82c13.29,13.54,26.59,27.07,39.88,40.61Z"/>
            <path class="cls-1" d="M80.18,267.21l53.26.48C90.09,223.55,46.75,179.41,3.4,135.27l-.49,53.83c25.83,25.96,51.6,51.98,77.27,78.11Z"/>
            <path class="cls-1" d="M2.64,218.55l-.24,26.56c-.11,11.82,9.39,21.49,21.21,21.59l26.91.24c-15.92-16.17-31.89-32.29-47.88-48.39Z"/>
            <path class="cls-1" d="M268.03,99.58l.41-45.82c-16.24-16.53-32.48-33.07-48.71-49.6l-45.82-.41,94.12,95.84Z"/>
          </g>
          <path class="cls-2" d="M245.08,271.1l-221.5-2C10.46,268.98-.12,258.21,0,245.08L2,23.59C2.12,10.46,12.89-.12,26.02,0l221.5,2c13.12.12,23.7,10.89,23.58,24.01l-2,221.5c-.12,13.12-10.89,23.7-24.01,23.58ZM25.97,4.8c-10.47-.09-19.07,8.35-19.17,18.82l-2,221.5c-.09,10.47,8.35,19.07,18.82,19.17l221.5,2c10.47.09,19.07-8.35,19.17-18.83l2-221.5c.09-10.47-8.35-19.07-18.82-19.17L25.97,4.8Z"/>
        </g>
      </g>
    </g>
  </g>
</svg>