<?xml version="1.0" encoding="UTF-8"?>
<svg xmlns="http://www.w3.org/2000/svg" viewBox="0 0 321.97 321.97">
  <defs>
    <style>
      .cls-1, .cls-2, .cls-3, .cls-4, .cls-5, .cls-6, .cls-7, .cls-8, .cls-9, .cls-10, .cls-11, .cls-12, .cls-13, .cls-14, .cls-15, .cls-16 {
        stroke-width: 0px;
      }

      .cls-1, .cls-13 {
        fill: #b6a498;
      }

      .cls-2 {
        fill: #674238;
      }

      .cls-3 {
        fill: #c3dffb;
      }

      .cls-17 {
        isolation: isolate;
      }

      .cls-4 {
        fill: #7fbfff;
      }

      .cls-5 {
        fill: #845c51;
      }

      .cls-6 {
        fill: #c9bfbc;
      }

      .cls-7 {
        fill: #fff;
      }

      .cls-18 {
        mix-blend-mode: screen;
      }

      .cls-8 {
        fill: #8f7257;
      }

      .cls-9 {
        fill: #8c6f55;
      }

      .cls-10 {
        fill: #f7a194;
      }

      .cls-11 {
        fill: #7d5e51;
      }

      .cls-12 {
        fill: #86888a;
      }

      .cls-13, .cls-19 {
        mix-blend-mode: multiply;
      }

      .cls-14 {
        fill: #62493e;
      }

      .cls-15 {
        fill: #b18c6c;
      }

      .cls-16 {
        fill: #312017;
      }
    </style>
  </defs>
  <g class="cls-17">
    <g id="Camada_2" data-name="Camada 2">
      <g id="Layer_1" data-name="Layer 1">
        <g>
          <g>
            <rect class="cls-3" x="2.4" y="2.4" width="317.17" height="317.17" rx="25.68" ry="25.68"/>
            <path class="cls-4" d="M293.89,321.97H28.08c-15.48,0-28.08-12.6-28.08-28.08V28.08C0,12.6,12.6,0,28.08,0h265.81c15.48,0,28.08,12.6,28.08,28.08v265.81c0,15.48-12.6,28.08-28.08,28.08ZM28.08,4.8C15.24,4.8,4.8,15.24,4.8,28.08v265.81c0,12.84,10.44,23.28,23.28,23.28h265.81c12.84,0,23.28-10.44,23.28-23.28V28.08c0-12.84-10.44-23.28-23.28-23.28H28.08Z"/>
          </g>
          <g>
            <g>
              <g>
                <path class="cls-9" d="M132.6,143.72c-3.66-14.01-6.97-28.16-12.06-41.75-4.87-12.99-11.49-25.3-20.44-35.94-4.17-4.96-8.79-9.52-13.69-13.76-5.32-4.6-10.99-8.77-16.62-12.99-3.04-2.28-6.08-4.56-9.08-6.9-.06-.05-.12-.09-.18-.14-3.08-2.01-6.2-3.97-9.36-5.87-.69.15-1.37.45-2.01,1.02-2.71,2.38-4.08,6.26-5.1,9.61-2.27,7.49-2.69,15.49-2.79,23.27-.11,8.52-.07,17.08.28,25.59.4,9.75,1.39,19.55,3.96,28.99,1.96,7.23,5.29,14.05,10.36,19.62,4.48,4.92,10.07,8.67,15.73,12.09,3.41,2.06,6.84,4.07,10.36,5.93,3.78,2,7.59,3.96,11.26,6.15,3.76,2.23,7.43,4.71,10.6,7.73,1.96,1.86,3.77,3.86,5.46,5.96,5.56-.2,10.92-1.47,15.57-4.5,5.73-3.74,8.98-8.53,10.49-13.92-.97-3.39-1.88-6.79-2.77-10.2Z"/>
                <g class="cls-18">
                  <path class="cls-1" d="M132.6,143.72c-3.66-14.01-6.97-28.16-12.06-41.75-4.87-12.99-11.49-25.3-20.44-35.94-4.17-4.96-8.79-9.52-13.69-13.76-5.32-4.6-10.99-8.77-16.62-12.99-3.04-2.28-6.08-4.56-9.08-6.9-.06-.05-.12-.09-.18-.14-2.99-1.95-6.01-3.85-9.07-5.69-1.95,2.59-2.77,6.19-3.3,9.2-.91,5.1-1.08,10.33-1.04,15.51.03,4,.25,8,.42,12,.35,8.23,1.02,16.49,2.27,24.64,1.26,8.24,3.2,16.42,6.58,24.07,3.06,6.92,7.29,13.28,12.44,18.82,2.62,2.82,5.48,5.41,8.51,7.77,2.97,2.32,6.08,4.47,9.09,6.74,5.57,4.2,11.02,8.57,16.06,13.39,4.23,4.05,8.16,8.42,11.6,13.17,3.83-.62,7.49-1.88,10.79-4.02,5.73-3.74,8.98-8.53,10.49-13.92-.97-3.39-1.88-6.79-2.77-10.2Z"/>
                </g>
                <path class="cls-15" d="M132.6,143.72c-3.66-14.01-6.97-28.16-12.06-41.75-4.87-12.99-11.49-25.3-20.44-35.94-4.17-4.96-8.79-9.52-13.69-13.76-5.32-4.6-10.99-8.77-16.62-12.99-3.04-2.28-6.08-4.56-9.08-6.9-.06-.05-.12-.09-.18-.14-3.08-2.01-6.2-3.97-9.36-5.87-.69.15-1.37.45-2.01,1.02-1.3,1.15-2.29,2.64-3.09,4.26.04-.01.08-.03.12-.04,2.39-.6,4.53.75,6.28,2.24,2.27,1.93,4.16,4.26,6.07,6.54,2.14,2.56,4.5,4.92,6.74,7.4,2.81,3.1,5.52,6.29,8.1,9.58,5.13,6.55,9.72,13.54,13.3,21.06,7.82,16.42,10.1,34.43,12.41,52.27,1.05,8.08,2.36,16.09,4.51,23.96,1.65,6.02,3.75,11.91,6.25,17.64,5.35-.26,10.52-1.54,15.01-4.47,5.73-3.74,8.98-8.53,10.49-13.92-.97-3.39-1.88-6.79-2.77-10.2Z"/>
                <g class="cls-19">
                  <path class="cls-9" d="M131.53,139.58c-10.63,3.03-20.95,7.68-29.66,14.52-2.3,1.81-4.47,3.77-6.48,5.87,3,1.89,5.89,3.97,8.45,6.4,1.96,1.86,3.77,3.86,5.46,5.96,5.56-.2,10.92-1.47,15.57-4.5,5.73-3.74,8.98-8.53,10.49-13.92-.97-3.39-1.88-6.79-2.77-10.2-.36-1.38-.72-2.76-1.07-4.14Z"/>
                </g>
              </g>
              <g>
                <path class="cls-9" d="M194.75,143.72c3.66-14.01,6.97-28.16,12.06-41.75,4.87-12.99,11.49-25.3,20.44-35.94,4.17-4.96,8.79-9.52,13.69-13.76,5.32-4.6,10.99-8.77,16.62-12.99,3.04-2.28,6.08-4.56,9.08-6.9.06-.05.12-.09.18-.14,3.08-2.01,6.2-3.97,9.36-5.87.69.15,1.37.45,2.01,1.02,2.71,2.38,4.08,6.26,5.1,9.61,2.27,7.49,2.69,15.49,2.79,23.27.11,8.52.07,17.08-.28,25.59-.4,9.75-1.39,19.55-3.96,28.99-1.96,7.23-5.29,14.05-10.36,19.62-4.48,4.92-10.07,8.67-15.73,12.09-3.41,2.06-6.84,4.07-10.36,5.93-3.78,2-7.59,3.96-11.26,6.15-3.75,2.23-7.43,4.71-10.6,7.73-1.96,1.86-3.77,3.86-5.46,5.96-5.56-.2-10.92-1.47-15.57-4.5-5.73-3.74-8.98-8.53-10.49-13.92.97-3.39,1.88-6.79,2.77-10.2Z"/>
                <g class="cls-18">
                  <path class="cls-1" d="M194.75,143.72c3.66-14.01,6.97-28.16,12.06-41.75,4.87-12.99,11.49-25.3,20.44-35.94,4.17-4.96,8.79-9.52,13.69-13.76,5.32-4.6,10.99-8.77,16.62-12.99,3.04-2.28,6.08-4.56,9.08-6.9.06-.05.12-.09.18-.14,2.99-1.95,6.01-3.85,9.07-5.69,1.95,2.59,2.77,6.19,3.3,9.2.91,5.1,1.08,10.33,1.04,15.51-.03,4-.25,8-.42,12-.35,8.23-1.02,16.49-2.27,24.64-1.26,8.24-3.2,16.42-6.58,24.07-3.06,6.92-7.29,13.28-12.44,18.82-2.62,2.82-5.48,5.41-8.51,7.77-2.97,2.32-6.08,4.47-9.09,6.74-5.57,4.2-11.02,8.57-16.06,13.39-4.23,4.05-8.16,8.42-11.6,13.17-3.83-.62-7.49-1.88-10.78-4.02-5.73-3.74-8.98-8.53-10.49-13.92.97-3.39,1.88-6.79,2.77-10.2Z"/>
                </g>
                <path class="cls-15" d="M194.75,143.72c3.66-14.01,6.97-28.16,12.06-41.75,4.87-12.99,11.49-25.3,20.44-35.94,4.17-4.96,8.79-9.52,13.69-13.76,5.32-4.6,10.99-8.77,16.62-12.99,3.04-2.28,6.08-4.56,9.08-6.9.06-.05.12-.09.18-.14,3.08-2.01,6.2-3.97,9.36-5.87.69.15,1.37.45,2.01,1.02,1.3,1.15,2.29,2.64,3.09,4.26-.04-.01-.08-.03-.12-.04-2.39-.6-4.53.75-6.28,2.24-2.27,1.93-4.16,4.26-6.07,6.54-2.14,2.56-4.5,4.92-6.74,7.4-2.81,3.1-5.52,6.29-8.1,9.58-5.13,6.55-9.72,13.54-13.3,21.06-7.82,16.42-10.1,34.43-12.41,52.27-1.05,8.08-2.36,16.09-4.51,23.96-1.65,6.02-3.75,11.91-6.25,17.64-5.36-.26-10.52-1.54-15.01-4.47-5.73-3.74-8.98-8.53-10.49-13.92.97-3.39,1.88-6.79,2.77-10.2Z"/>
                <g class="cls-19">
                  <path class="cls-9" d="M228.44,150.42c-4.1-3.79-8.85-6.9-13.97-9.12-5.75-2.49-11.83-3.57-17.99-4.29-.57,2.23-1.15,4.47-1.73,6.7-.89,3.41-1.81,6.81-2.77,10.2,1.51,5.39,4.76,10.18,10.49,13.92,4.65,3.03,10.02,4.3,15.57,4.5,1.7-2.1,3.51-4.1,5.46-5.96,3.17-3.02,6.85-5.5,10.6-7.73.38-.23.77-.44,1.16-.67-2.09-2.68-4.32-5.24-6.82-7.55Z"/>
                </g>
              </g>
              <path class="cls-8" d="M205,147.24c-.19-.11-.38-.22-.56-.33-9.73-5.62-23.06-7-34.12-7.61-9.27-.51-18.61.29-27.67,2.36-9.19,2.1-19.19,5.04-26.91,10.98-8.11,6.23-14.62,15.9-19.72,24.63-11.03,18.87-17.16,42.65-8.13,63.57,18.22,42.17,61.66,37.65,61.66,37.65h28.04s43.45,4.52,61.66-37.65c7.13-16.51,4.76-35.18-2.02-51.38-6.33-15.13-17.73-33.53-32.23-42.21Z"/>
              <path class="cls-15" d="M203.49,146.94c-.18-.11-.36-.22-.54-.32-9.38-5.42-22.22-6.75-32.87-7.33-8.93-.49-17.94.28-26.66,2.27-8.86,2.02-18.49,4.86-25.93,10.58-7.81,6-14.09,15.32-19.01,23.74-10.63,18.19-16.54,41.1-7.84,61.25,17.55,40.64,59.42,36.28,59.42,36.28h27.02s41.87,4.35,59.42-36.28c6.87-15.91,4.59-33.9-1.95-49.51-6.1-14.57-17.08-32.31-31.06-40.67Z"/>
              <path class="cls-13" d="M210.72,226.77c-.51,0-1.03-.12-1.51-.37-46.01-23.9-89.82-.28-90.26-.04-1.59.88-3.58.3-4.46-1.28-.88-1.59-.31-3.58,1.28-4.46.48-.27,11.96-6.56,29.61-9.75,16.3-2.95,41.13-3.66,66.86,9.71,1.61.84,2.24,2.82,1.4,4.43-.59,1.13-1.73,1.77-2.92,1.77Z"/>
              <g>
                <g>
                  <g>
                    <path class="cls-7" d="M146.66,203.19c0,8.48-6.88,15.36-15.36,15.36s-15.36-6.88-15.36-15.36,6.88-15.36,15.36-15.36,15.36,6.88,15.36,15.36Z"/>
                    <path class="cls-12" d="M131.3,219.13c-8.79,0-15.94-7.15-15.94-15.94s7.15-15.94,15.94-15.94,15.94,7.15,15.94,15.94-7.15,15.94-15.94,15.94ZM131.3,188.42c-8.15,0-14.77,6.63-14.77,14.77s6.63,14.77,14.77,14.77,14.77-6.63,14.77-14.77-6.63-14.77-14.77-14.77Z"/>
                  </g>
                  <g>
                    <path class="cls-14" d="M142.77,203.19c0,6.33-5.13,11.47-11.47,11.47s-11.47-5.13-11.47-11.47,5.13-11.47,11.47-11.47,11.47,5.13,11.47,11.47Z"/>
                    <g>
                      <path class="cls-16" d="M140.81,203.17c0,5.25-4.26,9.51-9.51,9.51s-9.51-4.26-9.51-9.51,4.26-9.51,9.51-9.51,9.51,4.26,9.51,9.51Z"/>
                      <circle class="cls-7" cx="127.76" cy="198.53" r="1.75"/>
                      <path class="cls-7" d="M125.68,202.79c0,.61-.49,1.1-1.1,1.1s-1.1-.49-1.1-1.1.49-1.1,1.1-1.1,1.1.49,1.1,1.1Z"/>
                    </g>
                  </g>
                </g>
                <g>
                  <g>
                    <path class="cls-7" d="M207.48,203.19c0,8.48-6.88,15.36-15.36,15.36s-15.36-6.88-15.36-15.36,6.88-15.36,15.36-15.36,15.36,6.88,15.36,15.36Z"/>
                    <path class="cls-12" d="M192.12,219.13c-8.79,0-15.94-7.15-15.94-15.94s7.15-15.94,15.94-15.94,15.94,7.15,15.94,15.94-7.15,15.94-15.94,15.94ZM192.12,188.42c-8.15,0-14.77,6.63-14.77,14.77s6.63,14.77,14.77,14.77,14.77-6.63,14.77-14.77-6.63-14.77-14.77-14.77Z"/>
                  </g>
                  <g>
                    <path class="cls-14" d="M203.59,203.19c0,6.33-5.13,11.47-11.47,11.47s-11.47-5.13-11.47-11.47,5.13-11.47,11.47-11.47,11.47,5.13,11.47,11.47Z"/>
                    <g>
                      <path class="cls-16" d="M201.63,203.17c0,5.25-4.26,9.51-9.51,9.51s-9.51-4.26-9.51-9.51,4.26-9.51,9.51-9.51,9.51,4.26,9.51,9.51Z"/>
                      <circle class="cls-7" cx="188.58" cy="198.53" r="1.75"/>
                      <path class="cls-7" d="M186.49,202.79c0,.61-.49,1.1-1.1,1.1s-1.1-.49-1.1-1.1.49-1.1,1.1-1.1,1.1.49,1.1,1.1Z"/>
                    </g>
                  </g>
                </g>
              </g>
              <path class="cls-6" d="M158.16,239.75s-23.27-10.57-30.4,11.17c-7.13,21.75,31.32,17.09,35.12,5.69,3.8-11.41-4.72-16.86-4.72-16.86Z"/>
              <path class="cls-6" d="M167.86,239.75s23.27-10.57,30.4,11.17c7.13,21.75-31.32,17.09-35.12,5.69-3.8-11.41,4.72-16.86,4.72-16.86Z"/>
              <g>
                <g>
                  <path class="cls-2" d="M162.88,256.61c-.64,0-1.17-.52-1.17-1.17v-9.04c0-.64.52-1.17,1.17-1.17s1.17.52,1.17,1.17v9.04c0,.64-.52,1.17-1.17,1.17Z"/>
                  <path class="cls-11" d="M156.77,262.44c-.54,0-1.02-.38-1.14-.92-.13-.63.27-1.25.9-1.38,1.56-.33,5.19-1.51,5.19-5.24,0-.64.52-1.17,1.17-1.17s1.17.52,1.17,1.17c0,3.78-2.63,6.59-7.03,7.52-.08.02-.16.03-.24.03Z"/>
                  <path class="cls-11" d="M168.99,262.44c-.08,0-.16,0-.24-.03-4.41-.94-7.03-3.75-7.03-7.52,0-.64.52-1.17,1.17-1.17s1.17.52,1.17,1.17c0,3.74,3.63,4.91,5.19,5.24.63.13,1.03.75.9,1.38-.12.55-.6.92-1.14.92Z"/>
                </g>
                <path class="cls-10" d="M175.41,232.06c-.25-6.81-8.58-6.88-12.53-6.52-3.95-.35-12.29-.29-12.53,6.52-.32,8.72.72,20.35,12.13,21.91v.1c.16-.01.74-.01.89,0v-.1c11.41-1.56,12.36-13.2,12.05-21.91Z"/>
              </g>
              <g>
                <g>
                  <path class="cls-2" d="M185.86,249.41c-.2,0-.38-.12-.45-.32-.09-.25.04-.52.29-.6.51-.17,12.48-4.28,22.1-2.7.26.04.43.29.39.54-.04.26-.29.43-.54.39-9.38-1.54-21.52,2.61-21.64,2.66-.05.02-.1.03-.16.03Z"/>
                  <path class="cls-2" d="M206.52,256.36c-.07,0-.14-.02-.21-.05-9.47-4.62-20.27-3.03-20.37-3.01-.25.04-.5-.14-.54-.4-.04-.26.14-.5.4-.54.11-.02,11.19-1.65,20.93,3.1.23.11.33.4.22.63-.08.17-.25.27-.43.27Z"/>
                  <path class="cls-2" d="M202.87,264.38c-.09,0-.18-.02-.26-.08-8.27-5.46-16.66-5.53-16.74-5.53-.26,0-.47-.21-.47-.47,0-.26.21-.47.47-.47.35,0,8.74.06,17.26,5.68.22.14.28.44.13.66-.09.14-.24.21-.4.21Z"/>
                </g>
                <g>
                  <path class="cls-2" d="M137.53,249.41c-.05,0-.1,0-.16-.03-.12-.04-12.26-4.2-21.64-2.66-.26.05-.5-.13-.54-.39-.04-.26.13-.5.39-.54,9.62-1.58,21.6,2.52,22.1,2.7.25.09.38.36.29.6-.07.19-.25.32-.45.32Z"/>
                  <path class="cls-2" d="M116.88,256.36c-.18,0-.34-.1-.43-.27-.11-.23-.02-.52.22-.63,9.74-4.75,20.82-3.12,20.93-3.1.26.04.44.28.4.54-.04.26-.28.43-.54.4-.11-.02-10.91-1.6-20.37,3.01-.07.03-.14.05-.21.05Z"/>
                  <path class="cls-2" d="M120.53,264.38c-.15,0-.3-.07-.4-.21-.14-.22-.08-.51.13-.66,8.52-5.62,16.91-5.68,17.26-5.68.26,0,.47.21.47.47,0,.26-.21.47-.47.47-.08,0-8.47.07-16.74,5.53-.08.05-.17.08-.26.08Z"/>
                </g>
              </g>
            </g>
            <g>
              <path class="cls-5" d="M121.25,186.07c-.5,0-.99-.21-1.33-.61-.63-.73-.54-1.83.19-2.46.4-.34,9.84-8.27,20.05-2.35.84.48,1.12,1.55.64,2.39-.49.84-1.55,1.12-2.39.64-8.04-4.65-15.7,1.71-16.03,1.98-.33.28-.73.42-1.13.42Z"/>
              <path class="cls-5" d="M202.18,186.07c-.4,0-.8-.14-1.13-.42-.33-.28-7.99-6.64-16.03-1.98-.83.49-1.9.2-2.39-.64-.48-.84-.2-1.91.64-2.39,10.21-5.91,19.66,2.01,20.05,2.35.73.63.82,1.73.19,2.47-.35.4-.84.61-1.33.61Z"/>
            </g>
          </g>
        </g>
      </g>
    </g>
  </g>
</svg>