<?xml version="1.0" encoding="UTF-8"?>
<svg id="Camada_2" data-name="Camada 2" xmlns="http://www.w3.org/2000/svg" viewBox="0 0 321.97 321.97">
  <defs>
    <style>
      .cls-1 {
        fill: #ad844f;
      }

      .cls-1, .cls-2, .cls-3, .cls-4, .cls-5, .cls-6, .cls-7, .cls-8, .cls-9, .cls-10, .cls-11, .cls-12, .cls-13, .cls-14, .cls-15, .cls-16 {
        stroke-width: 0px;
      }

      .cls-2 {
        fill: #595756;
      }

      .cls-3 {
        fill: #c3dffb;
      }

      .cls-4 {
        fill: #624c29;
      }

      .cls-5 {
        fill: #b97029;
      }

      .cls-6 {
        fill: #7fbfff;
      }

      .cls-7 {
        fill: #542f00;
      }

      .cls-8 {
        fill: #fff;
      }

      .cls-9 {
        fill: #cfcdb9;
      }

      .cls-10 {
        fill: #91989c;
      }

      .cls-11 {
        fill: #544121;
      }

      .cls-12 {
        fill: #2a2a2a;
      }

      .cls-13 {
        fill: #947243;
      }

      .cls-14 {
        fill: #d0cca8;
      }

      .cls-15 {
        fill: #7b5f36;
      }

      .cls-16 {
        fill: #312017;
      }
    </style>
  </defs>
  <g id="Layer_1" data-name="Layer 1">
    <g>
      <g>
        <path class="cls-3" d="M28.08,2.4h265.81c14.17,0,25.68,11.51,25.68,25.68v265.81c0,14.17-11.51,25.68-25.68,25.68H28.08c-14.17,0-25.68-11.51-25.68-25.68V28.08C2.4,13.91,13.91,2.4,28.08,2.4Z"/>
        <path class="cls-6" d="M293.89,321.97H28.08c-15.48,0-28.08-12.6-28.08-28.08V28.08C0,12.6,12.6,0,28.08,0h265.81c15.48,0,28.08,12.6,28.08,28.08v265.81c0,15.48-12.6,28.08-28.08,28.08ZM28.08,4.8C15.24,4.8,4.8,15.24,4.8,28.08v265.81c0,12.84,10.44,23.28,23.28,23.28h265.81c12.84,0,23.28-10.44,23.28-23.28V28.08c0-12.84-10.44-23.28-23.28-23.28H28.08Z"/>
      </g>
      <g>
        <g>
          <path class="cls-13" d="M265.28,128.81c-9.85-18.73-28.94-30.18-48.35-36.95-42.02-14.67-98.25-12.01-133.02,19.47-5.53,5-10.27,10.87-13.74,17.48-23.6,44.89-50.81,48.88-38.44,95.61,12.89,48.74,74.79,65.51,118.4,69.74,18.12,1.76,36.48.54,54.43-2.6,13.33-2.33,26.51-5.76,39.13-10.66,21.3-8.27,42.6-21.32,54.06-41.77,2.6-4.63,4.62-9.58,5.98-14.71,12.36-46.73-14.84-50.71-38.44-95.61Z"/>
          <path class="cls-9" d="M287.88,162.39c1.64,7,2.89,14.09,2.91,21.27.01,5.38-.73,10.82-2.66,15.86-2.06,5.39-5.37,10.15-9.54,14.12-.48.46-1.47.32-1.6-.42-1.16-6.67-.35-13.51-1.39-20.18-2.27,4.78-3.73,9.92-5.59,14.87-2.03,5.4-4.57,10.91-9.18,14.6-.66.52-1.56.2-1.63-.68-.5-6.48,2.67-12.62,2.76-19.03-.53.87-1.07,1.73-1.64,2.58-8.66,12.99-21.27,22.38-35.63,28.27-14.55,5.96-30.32,8.53-45.92,9.75-14.4,1.13-28.95,1.62-43.33.01-13.54-1.51-27.13-4.93-38.85-12.09-11.3-6.9-19.81-17.03-25.43-28.88-.56,4.25-1.4,8.47-3.52,12.26-.25.44-.88.61-1.31.34-2.61-1.63-4.56-4.04-5.89-6.79-2.73-5.65-3.29-12.21-3.35-18.39-.04-4.43.26-8.85.67-13.26-2.29,5.02-3.79,10.36-5.25,15.69-.2.75-1.38.99-1.75.23-2.01-4.23-3.05-8.8-3.35-13.46-.41-6.37.45-12.78,1.95-19.01-15.46,19.72-26.37,31.44-17.67,64.34,12.89,48.74,74.79,65.51,118.4,69.74,18.12,1.76,36.48.54,54.43-2.6,13.33-2.33,26.51-5.76,39.13-10.66,21.3-8.27,42.6-21.32,54.06-41.77,2.6-4.63,4.62-9.58,5.98-14.71,8.36-31.59-1.37-43.65-15.84-62.02Z"/>
          <path class="cls-15" d="M123.16,160.15c4.22,6.47,8.15,13.14,12.64,19.42,5.46,7.64,12.16,16.06,21.51,18.86,8.9,2.67,18.3-.12,25.88-5.05,12.69-8.25,18.44-22.83,26.74-34.98-5.91,2.29-11.99,5.57-17.02,9.84,1.98-3.03,4.15-5.88,4.87-9.52.19-.95-15.99,6.11-20.92,12.47,1.2-4.59,2.11-15.1,1.36-14.85-6.05,2.05-9.42,9.94-11.37,15.43-.14.4-.29.83-.44,1.26-.36-.84-.72-1.68-1.1-2.49-2.14-4.58-5.58-10.75-11.13-11.57-1.15-.17,1.75,9.62,3.12,13.55-1.9-2.66-4.01-5.18-6.3-7.51-4.71-4.79-19.93-9.69-19.46-8.53,1.06,2.59,2.96,4.61,4.87,6.62-3.21-2.94-13.87-4.2-13.33-3.11.03.06.06.11.08.17Z"/>
          <path class="cls-14" d="M138.69,183.25c2.71,4.15,5.23,8.43,8.11,12.46,3.5,4.9,7.8,10.3,13.8,12.1,5.71,1.71,11.74-.08,16.61-3.24,8.14-5.29,11.83-14.65,17.16-22.45-3.79,1.47-7.69,3.57-10.92,6.32,1.27-1.95,2.66-3.77,3.13-6.11.12-.61-10.26,3.92-13.43,8,.77-2.94,1.35-9.69.87-9.53-3.88,1.32-6.04,6.38-7.3,9.9-.09.26-.19.53-.28.81-.23-.54-.46-1.08-.71-1.6-1.37-2.94-3.58-6.9-7.14-7.43-.74-.11,1.12,6.18,2,8.7-1.22-1.71-2.57-3.32-4.04-4.82-3.02-3.07-12.79-6.22-12.48-5.48.68,1.66,1.9,2.96,3.12,4.25-2.06-1.89-8.9-2.69-8.55-1.99.02.04.04.07.05.11Z"/>
          <g>
            <g>
              <path class="cls-10" d="M162.53,193.84c-.67-6.72-2.87-12-8.31-16.18-5.51-4.24-11.41-7.48-16.26-12.59-4.99-5.25-8.72-11.51-13.63-16.8-4.07-4.38-9.24-7.1-14.86-4.78-2.19-1.27-4.89-2.05-6.86-2.52-4.32-1.03-8.85-1.28-13.28-1.01-4.6.28-9.14,1.12-13.58,2.33-3.82,1.05-8.12,2.26-11.44,4.5-.83.56-.71,1.74.42,1.61,2.98-.35,5.96-1.26,8.92-1.95.08.01.13.04.22.05.47.02.93.06,1.39.08-.73.21-1.45.43-2.17.65-6.44,2.03-12.88,5.55-18.34,9.5-.5.36-.52,1.26.28,1.09,2.67-.59,5.21-1.77,7.71-2.94-5.75,3.7-11.02,8.27-15.87,13.39-1.31,1.39.13,2.78,1.57,2.06-2.16,2.26-3.94,4.91-4.16,7.96-.1,1.29,1.32,1.31,2.2.92-.83,2.15-1.4,4.4-1.82,6.42-.6,2.88-.93,5.75-1.1,8.6-.42,2.75-.48,5.55,0,8.24.22,3.82.7,7.65,1.36,11.52.29,1.71,2.73.48,3.27-.33,1.24-1.87,2.36-3.82,3.51-5.76-.04,1.59.03,3.19.2,4.79.77,6.9,3.52,14.4,8.52,19.36.93.92,2.28.31,2.94-.64.68-.98,1.27-2.02,1.81-3.08.17.47.34.93.51,1.36,2.67,6.7,6.75,13.17,12.28,17.88,2.44,2.08,5.29,3.78,8.54,4.06.94.08,2.34-.92,2.3-1.96-.08-1.98-.08-3.95-.04-5.91,1.7,3.28,3.78,6.4,5.54,9.26.75,1.22,2.9-.17,2.9-1.28,0-1.44-.09-2.87-.24-4.3.34.38.68.76,1.04,1.12,4.38,4.44,9.73,7.76,15.36,10.37,1.32.61,2.79-1.08,2.67-2.28-.15-1.52-.37-3.03-.61-4.53.34.37.68.74,1.04,1.08,4.14,4.09,9.17,7.15,13.95,10.42,1.07.73,2.73-.44,2.82-1.6.1-1.26-.06-2.51-.36-3.74,3.31,2.21,7.17,3.89,11.18,3.44.82-.09,1.88-1.05,1.86-1.92-.03-1.77-.53-3.33-1.27-4.79.15.04.29.12.44.15,5.44,1.3,8.72-3.02,10.18-7.65,3.19-10.09,5.91-20.95,6.31-31.64.03-.25.08-.51.11-.76.92-7.04,1.54-14.19.83-21.27Z"/>
              <path class="cls-8" d="M142.44,160.96c-3.87-6.33-9.03-12.36-15.88-15.54-5.86-2.72-12.49-2.92-18.52-.89-8.22-1.04-16.91,1.36-24.45,4.55-5.46,2.31-10.49,5.38-14.61,9.68-3.29,3.43-7.33,7.83-7.64,12.82-.07,1.21,1.26,1.36,2.11,1.02.73-.29,1.42-.66,2.09-1.05-2.38,4.42-3.77,9.41-4.12,14.35-.1,1.47,1.74,1.36,2.57.77,1.03-.72,1.76-1.66,2.4-2.66-1.54,8.11.74,16.82,6.37,23.35,8.96,10.39,24.8,13.74,37.93,12.37,7-.73,13.84-2.88,19.98-6.31,6.07-3.39,12.12-8.02,15.45-14.26,6.44-12.07,3.12-27.06-3.71-38.21Z"/>
              <path class="cls-11" d="M108.05,144.53c-.05,0-.11,0-.16-.01-7.1,2.37-13.42,7.17-18.17,12.85-6.2,7.42-10.85,17.83-8.62,27.64,2.67,11.74,15.18,17.6,26.21,18.81,6.16.68,12.45-.28,17.96-3.18,5.26-2.76,9.57-7.05,12.65-12.1,4.63-7.6,6.44-16.5,5.86-25.28-.43-.78-.87-1.56-1.33-2.31-3.87-6.33-9.03-12.36-15.88-15.54-5.86-2.72-12.49-2.92-18.52-.89Z"/>
              <path class="cls-10" d="M172.91,193.84c.67-6.72,2.87-12,8.31-16.18,5.51-4.24,11.42-7.48,16.26-12.59,4.99-5.25,8.72-11.51,13.63-16.8,4.07-4.38,9.24-7.1,14.86-4.78,2.19-1.27,4.89-2.05,6.86-2.52,4.32-1.03,8.85-1.28,13.28-1.01,4.6.28,9.14,1.12,13.58,2.33,3.82,1.05,8.12,2.26,11.44,4.5.83.56.71,1.74-.42,1.61-2.98-.35-5.96-1.26-8.92-1.95-.08.01-.13.04-.22.05-.47.02-.93.06-1.39.08.73.21,1.45.43,2.17.65,6.44,2.03,12.88,5.55,18.34,9.5.5.36.52,1.26-.28,1.09-2.67-.59-5.21-1.77-7.71-2.94,5.75,3.7,11.02,8.27,15.87,13.39,1.31,1.39-.13,2.78-1.57,2.06,2.16,2.26,3.94,4.91,4.16,7.96.09,1.29-1.32,1.31-2.2.92.83,2.15,1.4,4.4,1.82,6.42.6,2.88.93,5.75,1.1,8.6.42,2.75.48,5.55,0,8.24-.22,3.82-.7,7.65-1.36,11.52-.29,1.71-2.73.48-3.27-.33-1.24-1.87-2.36-3.82-3.51-5.76.04,1.59-.03,3.19-.2,4.79-.77,6.9-3.52,14.4-8.52,19.36-.93.92-2.28.31-2.94-.64-.68-.98-1.27-2.02-1.81-3.08-.17.47-.34.93-.51,1.36-2.67,6.7-6.75,13.17-12.28,17.88-2.44,2.08-5.29,3.78-8.54,4.06-.94.08-2.34-.92-2.3-1.96.08-1.98.08-3.95.04-5.91-1.7,3.28-3.78,6.4-5.54,9.26-.75,1.22-2.9-.17-2.9-1.28,0-1.44.09-2.87.24-4.3-.34.38-.68.76-1.04,1.12-4.38,4.44-9.73,7.76-15.36,10.37-1.32.61-2.79-1.08-2.67-2.28.15-1.52.37-3.03.61-4.53-.34.37-.68.74-1.04,1.08-4.14,4.09-9.17,7.15-13.95,10.42-1.07.73-2.73-.44-2.82-1.6-.1-1.26.06-2.51.36-3.74-3.31,2.21-7.17,3.89-11.18,3.44-.82-.09-1.88-1.05-1.86-1.92.03-1.77.53-3.33,1.27-4.79-.15.04-.29.12-.44.15-5.44,1.3-8.71-3.02-10.18-7.65-3.19-10.09-5.91-20.95-6.31-31.64-.03-.25-.08-.51-.11-.76-.92-7.04-1.54-14.19-.83-21.27Z"/>
              <path class="cls-8" d="M189.29,199.17c3.33,6.24,9.38,10.87,15.45,14.26,6.14,3.43,12.99,5.58,19.98,6.31,13.13,1.37,28.97-1.98,37.93-12.37,5.63-6.53,7.91-15.24,6.37-23.35.65,1,1.38,1.94,2.4,2.66.83.59,2.68.7,2.57-.77-.35-4.93-1.74-9.93-4.12-14.35.67.39,1.36.76,2.09,1.05.85.34,2.19.19,2.11-1.02-.3-4.99-4.35-9.39-7.64-12.82-4.13-4.3-9.15-7.36-14.61-9.68-7.53-3.19-16.23-5.59-24.45-4.55-6.03-2.04-12.66-1.83-18.52.89-6.85,3.18-12,9.21-15.88,15.54-6.83,11.15-10.15,26.14-3.71,38.21Z"/>
              <path class="cls-11" d="M196.59,184.15c1.09,4.5,3.29,8.7,6.66,11.91,3.82,3.64,8.83,5.64,13.98,6.47,7.27,1.16,15.1.06,21.94-2.57,7.24-2.78,13.65-7.83,16.97-14.96,4.37-9.36,2.7-19.81-2.77-28.29-3.32-5.15-8.88-7.91-13.68-11.52-4.09-.84-8.25-1.17-12.31-.66-5.61-1.89-11.74-1.82-17.29.39-3.39,2.91-6.27,6.46-8.51,10.35-4.92,8.53-7.36,19.18-5.01,28.89Z"/>
            </g>
            <g>
              <g>
                <g>
                  <path class="cls-7" d="M132.64,171.88c0,12.56-10.18,22.74-22.74,22.74s-22.74-10.18-22.74-22.74,10.18-22.74,22.74-22.74,22.74,10.18,22.74,22.74Z"/>
                  <path class="cls-8" d="M109.89,195.58c-13.07,0-23.7-10.63-23.7-23.7s10.63-23.7,23.7-23.7,23.7,10.63,23.7,23.7-10.63,23.7-23.7,23.7ZM109.89,150.09c-12.02,0-21.79,9.77-21.79,21.79s9.77,21.79,21.79,21.79,21.79-9.77,21.79-21.79-9.77-21.79-21.79-21.79Z"/>
                </g>
                <g>
                  <circle class="cls-5" cx="109.89" cy="171.88" r="16.99" transform="translate(-89.35 128.05) rotate(-45)"/>
                  <g>
                    <circle class="cls-16" cx="109.89" cy="171.88" r="10.94"/>
                    <path class="cls-8" d="M106.95,164.94c0,2.21-1.79,4-4,4s-4-1.79-4-4,1.79-4,4-4,4,1.79,4,4Z"/>
                  </g>
                </g>
              </g>
              <g>
                <g>
                  <path class="cls-7" d="M248.29,171.88c0,12.56-10.18,22.74-22.74,22.74s-22.74-10.18-22.74-22.74,10.18-22.74,22.74-22.74,22.74,10.18,22.74,22.74Z"/>
                  <path class="cls-8" d="M225.55,195.58c-13.07,0-23.7-10.63-23.7-23.7s10.63-23.7,23.7-23.7,23.7,10.63,23.7,23.7-10.63,23.7-23.7,23.7ZM225.55,150.09c-12.01,0-21.79,9.77-21.79,21.79s9.77,21.79,21.79,21.79,21.79-9.77,21.79-21.79-9.77-21.79-21.79-21.79Z"/>
                </g>
                <g>
                  <circle class="cls-5" cx="225.55" cy="171.88" r="16.99" transform="translate(6.45 351.91) rotate(-76.72)"/>
                  <g>
                    <circle class="cls-16" cx="225.55" cy="171.88" r="10.94"/>
                    <path class="cls-8" d="M222.6,164.94c0,2.21-1.79,4-4,4s-4-1.79-4-4,1.79-4,4-4,4,1.79,4,4Z"/>
                  </g>
                </g>
              </g>
            </g>
            <g>
              <path class="cls-11" d="M230.7,146.17c.42-.54.85-1.08,1.27-1.63,8.29-10.8,16.3-21.83,24.88-32.41,7.58-9.35,15.7-18.17,24.42-26.47,6.55-6.24,13.48-12.24,21.05-17.23-11.14,2.95-22.1,6.55-32.41,11.79-7.41,3.76-14.43,8.27-21.15,13.15-6.53,4.75-13.34,9.71-18.95,15.54-4.62,4.8-8.35,10.34-12.58,15.47.83-4.64,2.07-9.28,4.3-13.39,1.17-2.16-1.52-2.49-2.8-1.3-6.95,6.44-11.74,15.26-15.27,24.28.18-4.05.7-8.1,1.52-12.04.31-1.49-.71-1.78-1.74-1.46-1.67,2.75-3.15,5.63-4.41,8.63-5,11.92-7.16,25.18-13.93,36.32-2.97,4.89-6.75,9.57-11.64,12.62-3.49,2.17-7.38,3.13-11.29,2.8,20.41,9.08,43.27-9.25,57.29-22.72,3.99-3.83,7.75-7.86,11.43-11.97Z"/>
              <path class="cls-11" d="M104.75,146.17c-.42-.54-.85-1.08-1.27-1.63-8.29-10.8-16.3-21.83-24.88-32.41-7.58-9.35-15.7-18.17-24.42-26.47-6.55-6.24-13.48-12.24-21.05-17.23,11.14,2.95,22.1,6.55,32.41,11.79,7.41,3.76,14.43,8.27,21.15,13.15,6.53,4.75,13.34,9.71,18.95,15.54,4.62,4.8,8.35,10.34,12.58,15.47-.83-4.64-2.07-9.28-4.3-13.39-1.17-2.16,1.52-2.49,2.8-1.3,6.95,6.44,11.74,15.26,15.27,24.28-.18-4.05-.7-8.1-1.52-12.04-.31-1.49.71-1.78,1.74-1.46,1.67,2.75,3.15,5.63,4.41,8.63,5,11.92,7.16,25.18,13.93,36.32,2.97,4.89,6.75,9.57,11.64,12.62,3.49,2.17,7.38,3.13,11.29,2.8-20.41,9.08-43.27-9.25-57.29-22.72-3.99-3.83-7.75-7.86-11.43-11.97Z"/>
            </g>
            <path class="cls-12" d="M185.3,211.23c-1.01-5.99-7.26-8.61-12.89-9.74-1.67-.34-3.29-.54-4.69-.67-1.41.13-3.02.33-4.69.67-5.62,1.14-11.87,3.75-12.89,9.74-1.13,6.68,6.29,25.24,12.89,39.17,1.67,3.52,3.28,6.74,4.69,9.4,1.41-2.66,3.03-5.88,4.69-9.4,6.6-13.92,14.01-32.49,12.89-39.17Z"/>
            <path class="cls-2" d="M180.91,215.67c-.76-3.63-5.45-5.21-9.67-5.9-1.26-.2-2.47-.33-3.52-.41-1.06.08-2.27.2-3.52.41-4.22.69-8.91,2.27-9.67,5.9-.85,4.04,4.72,15.28,9.67,23.71,1.25,2.13,2.46,4.08,3.52,5.69,1.06-1.61,2.27-3.56,3.52-5.69,4.95-8.43,10.52-19.67,9.67-23.71Z"/>
          </g>
        </g>
        <g>
          <path class="cls-4" d="M153.56,142.49c-.13-1.08-.4-2.15-.75-3.18-.67-2.02-1.63-4.34-3.41-5.64-.71-.52-1.78-.26-2.47.13-.8.45-1.46,1.22-1.56,2.16-.1.96.08,1.98.32,2.96,0,.07,0,.13,0,.2.11,1.15.25,2.25.6,3.37.65,2.07,1.77,4.34,3.96,5.08,1.27.43,2.71-.67,3.14-1.79.4-1.03.29-2.22.16-3.29Z"/>
          <path class="cls-4" d="M145.56,122.36c-.03-.12-.07-.24-.12-.36-.11-.25-.21-.5-.35-.74-.21-.36-.51-.64-.82-.94-.29-.18-.61-.28-.95-.28-.29-.01-.57.04-.84.15-.31.08-.59.21-.84.41-.35.24-.63.54-.86.89-.03.05-.07.1-.09.15-.1.18-.22.4-.28.6-.03.09-.05.24-.06.3-.01.06-.05.2-.06.29,0,.07.03.43.04.51,0,.01,0,.02,0,.03,0,.03.19.43.21.45,0,0,.01.02.02.02.03.04.32.32.36.35,0,0,.02.01.03.02.09.07.19.09.28.12.16.54.41,1.08.71,1.55.31.49,1,.56,1.52.46.64-.13,1.31-.57,1.64-1.15.03-.06.07-.11.11-.17-.04.06-.09.11-.13.17.12-.12.2-.26.26-.42.05-.11.1-.19.13-.29.02-.06.04-.12.05-.19.06-.26.12-.53.15-.8.01-.12.01-.25,0-.37-.02-.27-.03-.54-.1-.8Z"/>
          <path class="cls-4" d="M162.9,133.13c-.13-.26-.54-.47-.8-.55-.46-.14-.95-.07-1.4.08-.85.28-1.73.97-2.01,1.86-.39,1.29-.46,2.7-.33,4.03.05.53.18,1.09.53,1.52.02.02.05.04.07.06.17.79.38,1.59.61,2.35.25.8,1.13,1.11,1.9.92.92-.22,1.74-.87,2.08-1.77,1.05-2.75.68-5.91-.66-8.49Z"/>
          <path class="cls-4" d="M160.82,115.96c-.17-1.19-.55-2.34-.99-3.45-.17-.42-.37-.71-.79-.91-.41-.19-.9-.24-1.35-.13-1.03.25-1.99.98-2.35,2-.65,1.84-.41,4.17.83,5.73,0,0,.01,0,.02.01.09.57.19,1.13.29,1.71.04.26.28.55.48.69.32.23.73.27,1.11.23.86-.09,1.56-.6,2.06-1.29.48-.67.67-1.59.76-2.4.08-.72.03-1.47-.07-2.18Z"/>
          <path class="cls-4" d="M147.29,104.12c-.74-2.13-1.82-4.12-3.53-5.63-.58-.51-1.65-.31-2.28-.04-.74.32-1.63,1.04-1.82,1.88-.52,2.28-.15,4.71.82,6.88.08.27.15.54.24.81.7,1.96,1.78,3.81,3.8,4.62,1.18.47,3.03-.71,3.3-1.88.52-2.22.21-4.49-.54-6.63Z"/>
          <path class="cls-4" d="M133.57,105.07c-.21-.5-.44-.97-.74-1.42-.21-.32-.43-.63-.66-.93-.2-.27-.43-.55-.58-.86,0,.01.01.02.02.03-.15-.34-.38-.61-.74-.78-.46-.21-.92-.22-1.42-.13-.1.02-.19.05-.28.08-.06-.03-.12-.07-.18-.09-.44-.13-.97.02-1.32.29-.45.34-.73.75-.81,1.31-.02.12-.03.25-.03.37,0,.31.02.63.08.94,0,.28.06.55.23.77,0,0,.01.01.02.02.17.44.36.87.59,1.28.29.53.63,1.03,1.02,1.48.41.47.88.97,1.45,1.25.29.14.57.25.9.26.47.01.93-.15,1.34-.38.36-.2.65-.45.9-.77.24-.31.53-.78.5-1.18-.04-.53-.09-1.02-.3-1.52Z"/>
          <path class="cls-4" d="M117.73,100.8c-.14-.14-.28-.29-.43-.42-.02-.02-.05-.04-.07-.06-.01,0-.02-.02-.04-.03-.05-.04-.37-.19-.43-.2-.14-.03-.29-.06-.43-.09-.23-.04-.45-.11-.67-.19-.12-.05-.23-.08-.37-.1-.09-.01-.17-.03-.26-.03-.15.01-.3.03-.45.05-.16.05-.31.1-.47.15l-.46.26c-.22.14-.4.32-.55.54-.11.12-.2.25-.25.4-.08.13-.13.26-.14.41-.05.13-.06.27-.03.4,0,.2.05.38.18.55.08.1.18.19.27.28.09.09.19.19.29.27.11.09.22.17.33.24.11.07.22.15.33.22.01,0,.02.02.04.03.05.04.37.19.43.2.04,0,.08.02.11.02.08.02.15.04.22.06.15.02.31.05.46.07.26.01.52-.03.76-.13.18-.04.35-.12.51-.22.26-.13.49-.3.69-.52.11-.14.22-.28.33-.43.07-.15.15-.3.22-.45.09-.22.12-.44.08-.67,0-.22-.06-.42-.2-.6Z"/>
          <path class="cls-4" d="M156.64,98.03c-.06-.69-.16-1.38-.35-2.05-.34-1.24-.89-2.56-1.75-3.54-.59-.67-1.42-.76-2.25-.49-.85.28-1.8,1-2.05,1.91-.47,1.71-.03,3.65.74,5.21.13.27.28.51.49.73.19.21.38.38.58.52.21.44.44.88.76,1.21.21.21.4.39.7.48.4.12.83.06,1.21-.07.72-.23,1.54-.85,1.74-1.62.1-.4.22-.82.23-1.24,0-.35-.02-.7-.05-1.05Z"/>
          <path class="cls-4" d="M136.16,91.55c-1.82,0-3.52,3.24-1.11,3.24,1.82,0,3.52-3.24,1.11-3.24Z"/>
        </g>
        <g>
          <path class="cls-4" d="M179.38,145.78c.43,1.12,1.88,2.22,3.14,1.79,2.2-.74,3.31-3.01,3.96-5.08.35-1.12.5-2.22.6-3.37,0-.07,0-.13,0-.2.23-.98.41-2,.32-2.96-.09-.94-.76-1.71-1.56-2.16-.69-.39-1.76-.65-2.47-.13-1.78,1.3-2.74,3.62-3.41,5.64-.34,1.03-.61,2.1-.75,3.18-.13,1.07-.24,2.26.16,3.29Z"/>
          <path class="cls-4" d="M187.13,123.15c0,.12,0,.25,0,.37.02.27.09.54.15.8.01.06.03.13.05.19.03.1.08.19.13.29.06.16.14.3.26.42-.04-.06-.09-.11-.13-.17.04.05.08.11.11.17.32.58,1,1.02,1.64,1.15.51.11,1.21.04,1.52-.46.3-.48.55-1.01.71-1.55.09-.04.19-.06.28-.12,0,0,.02-.01.03-.02.04-.03.33-.31.36-.35,0,0,.01-.02.02-.02.02-.02.2-.43.21-.45,0-.01,0-.02,0-.03.02-.08.05-.43.04-.51,0-.1-.05-.24-.06-.29-.01-.06-.03-.21-.06-.3-.07-.2-.18-.42-.28-.6-.03-.05-.06-.1-.09-.15-.23-.35-.51-.65-.86-.89-.26-.19-.54-.33-.84-.41-.27-.11-.55-.16-.84-.15-.34,0-.66.09-.95.28-.3.29-.6.57-.82.94-.14.23-.25.49-.35.74-.05.12-.09.23-.12.36-.07.26-.08.53-.1.8Z"/>
          <path class="cls-4" d="M169.88,133.13c.13-.26.53-.47.8-.55.46-.14.95-.07,1.4.08.85.28,1.73.97,2.01,1.86.39,1.29.46,2.7.33,4.03-.05.53-.18,1.09-.53,1.52-.02.02-.05.04-.07.06-.17.79-.38,1.59-.62,2.35-.25.8-1.13,1.11-1.9.92-.92-.22-1.74-.87-2.08-1.77-1.05-2.75-.68-5.91.66-8.49Z"/>
          <path class="cls-4" d="M171.97,115.96c.17-1.19.55-2.34.99-3.45.17-.42.37-.71.79-.91.41-.19.9-.24,1.35-.13,1.03.25,1.99.98,2.35,2,.65,1.84.41,4.17-.83,5.73,0,0-.01,0-.02.01-.09.57-.19,1.13-.29,1.71-.04.26-.28.55-.48.69-.32.23-.73.27-1.11.23-.86-.09-1.56-.6-2.06-1.29-.48-.67-.67-1.59-.76-2.4-.08-.72-.03-1.47.07-2.18Z"/>
          <path class="cls-4" d="M184.96,110.75c.28,1.17,2.12,2.35,3.3,1.88,2.02-.81,3.09-2.65,3.8-4.62.09-.27.16-.54.24-.81.96-2.17,1.34-4.6.82-6.88-.19-.83-1.08-1.56-1.82-1.88-.63-.27-1.69-.47-2.28.04-1.71,1.5-2.79,3.5-3.53,5.63-.74,2.14-1.06,4.41-.54,6.63Z"/>
          <path class="cls-4" d="M199.21,105.07c.21-.5.44-.97.74-1.42.21-.32.43-.63.66-.93.2-.27.43-.55.58-.86,0,.01-.01.02-.02.03.15-.34.38-.61.74-.78.46-.21.92-.22,1.42-.13.1.02.19.05.28.08.06-.03.12-.07.18-.09.44-.13.97.02,1.32.29.45.34.73.75.81,1.31.02.12.03.25.03.37,0,.31-.02.63-.08.94,0,.28-.06.55-.23.77,0,0-.01.01-.02.02-.17.44-.36.87-.59,1.28-.29.53-.63,1.03-1.02,1.48-.41.47-.89.97-1.45,1.25-.29.14-.57.25-.9.26-.47.01-.93-.15-1.34-.38-.36-.2-.65-.45-.9-.77-.24-.31-.53-.78-.5-1.18.04-.53.09-1.02.3-1.52Z"/>
          <path class="cls-4" d="M215.06,100.8c.14-.14.28-.29.43-.42.02-.02.05-.04.07-.06.01,0,.02-.02.04-.03.05-.04.37-.19.43-.2.14-.03.29-.06.43-.09.23-.04.45-.11.67-.19.12-.05.23-.08.37-.1.09-.01.17-.03.25-.03.15.01.3.03.45.05.16.05.31.1.47.15l.46.26c.22.14.4.32.55.54.11.12.19.25.25.4.08.13.13.26.14.41.05.13.06.27.03.4,0,.2-.05.38-.18.55-.08.1-.18.19-.27.28-.09.09-.19.19-.29.27-.11.09-.22.17-.33.24-.11.07-.22.15-.33.22-.01,0-.03.02-.04.03-.05.04-.37.19-.43.2-.04,0-.08.02-.11.02-.08.02-.15.04-.22.06-.15.02-.31.05-.46.07-.26.01-.52-.03-.76-.13-.18-.04-.35-.12-.51-.22-.26-.13-.49-.3-.69-.52-.11-.14-.22-.28-.33-.43-.07-.15-.15-.3-.22-.45-.09-.22-.12-.44-.08-.67,0-.22.06-.42.2-.6Z"/>
          <path class="cls-4" d="M176.15,98.03c.06-.69.16-1.38.35-2.05.34-1.24.89-2.56,1.75-3.54.59-.67,1.42-.76,2.25-.49.85.28,1.8,1,2.05,1.91.47,1.71.03,3.65-.74,5.21-.13.27-.28.51-.49.73-.19.21-.37.38-.58.52-.21.44-.44.88-.76,1.21-.21.21-.4.39-.7.48-.4.12-.83.06-1.21-.07-.72-.23-1.54-.85-1.74-1.62-.1-.4-.22-.82-.23-1.24,0-.35.02-.7.05-1.05Z"/>
          <path class="cls-4" d="M196.63,91.55c1.82,0,3.52,3.24,1.11,3.24-1.82,0-3.52-3.24-1.11-3.24Z"/>
        </g>
        <path class="cls-4" d="M169.47,99.42c-.27-.85-.71-1.88-1.54-2.33-1.31-.71-2.91.24-3.41,1.53-.61,1.58-.82,3.39-.82,5.07,0,.95.06,1.93.24,2.86.01.07.04.15.05.23.11,1.18.32,2.36.74,3.45.36.95,1.39,1.07,2.25.69,2.12-.93,2.77-3.34,2.98-5.44.2-1.97.12-4.16-.49-6.06Z"/>
        <path class="cls-4" d="M168.62,121.09c0-.08-.01-.17-.04-.25-.07-.2-.18-.4-.27-.59-.12-.18-.28-.31-.48-.37-.19-.11-.4-.16-.63-.15-.16.02-.32.03-.48.05-.26.05-.51.15-.73.29-.17.08-.32.18-.45.31-.21.16-.39.35-.53.59-.07.14-.14.29-.21.43-.1.28-.12.56-.05.85.01.07.02.14.03.22,0,.07.03.14.05.21.04.13.07.26.1.4.05.27.11.54.13.82-.01-.13-.02-.25-.03-.38.03.31.01.51.2.78.13.18.19.22.32.29.21.13.45.19.7.2.22,0,.42-.03.62-.11.23-.06.43-.16.62-.3.39-.31.8-.69.94-1.19.06-.21.1-.44.14-.65.04-.18.07-.36.07-.54,0-.3-.03-.6-.06-.9Z"/>
        <path class="cls-4" d="M162.07,89.7c.03-.2-.01-.39-.11-.55-.06-.18-.18-.33-.35-.43-.12-.05-.23-.11-.35-.16-.28-.07-.56-.08-.85-.02-.15.05-.3.1-.45.15-.32.14-.59.33-.83.58-.32.36-.57.75-.62,1.25-.04.47.24.91.67,1.09h0s.02.02.04.03c0,0,.01,0,.02.01.05.04.11.04.17.06l.03.02c.14.09.29.13.45.13.14,0,.27-.02.4-.07.15-.04.28-.1.4-.19.05-.04.08-.09.13-.13.06-.05.12-.1.17-.15.02-.02.05-.02.07-.04.26-.18.52-.44.69-.72,0-.02.02-.03.03-.05-.09.11-.18.23-.27.34.17-.16.29-.35.38-.56.11-.18.17-.39.18-.6Z"/>
        <path class="cls-4" d="M174.14,89.36s0,0,0,0c0,.02.02.04.03.06-.01-.03-.03-.07-.03-.1-.03-.11-.08-.22-.14-.32.04-.14.04-.28,0-.42-.03-.15-.11-.27-.22-.36-.1-.12-.22-.19-.37-.22-.1-.02-.21-.03-.31-.05-.24,0-.47.05-.69.15-.11.06-.23.13-.34.19-.21.15-.38.33-.52.54-.02.03-.04.06-.06.1-.03.03-.06.05-.1.08-.05.04-.1.09-.14.14-.11.13-.21.27-.32.4-.03.03-.05.07-.07.1-.02.03-.04.06-.06.09,0,.02-.02.03-.03.05-.07.14-.13.28-.2.42-.08.19-.1.39-.07.59.02.24.04.44.21.65.04.05.23.24.28.28.11.08.24.13.37.17.14.04.28.06.43.06.15-.01.31-.03.46-.05.16-.04.32-.09.48-.15.04-.02.43-.24.47-.27.15-.1.29-.22.41-.35.06-.07.11-.14.16-.21.05-.07.11-.13.16-.2.17-.26.26-.54.29-.85.01-.24-.03-.38-.09-.53Z"/>
        <g>
          <path class="cls-4" d="M39.22,201.51c-.36-.63-1.28-.7-1.9-.57-.88.18-1.54.73-2.05,1.44-.05.07-.09.17-.14.24-1.67,2.42-2.29,5.78-2.56,8.62-.16,1.68-.19,3.43.16,5.09.27,1.26.89,2.73,2.13,3.33.97.47,2.26.22,2.96-.66,1.99-2.49,2.66-5.67,2.85-8.8.17-2.88.02-6.13-1.45-8.69Z"/>
          <path class="cls-4" d="M43.11,222.98c-.14-.41-.44-.77-.88-.88-.42-.1-.82-.06-1.23.07-.88.29-1.82,1.1-1.86,2.1-.02.41.03.81.1,1.2-.07.36-.12.72-.12,1.08.01.91.2,1.78.4,2.67.12.54.66.8,1.17.82.68.02,1.22-.34,1.71-.76.92-.81,1.34-2.08,1.32-3.28-.02-1.05-.26-2.02-.6-3.01Z"/>
          <g>
            <path class="cls-4" d="M50.19,237.28c-.06-.33-.27-.65-.55-.83-.24-.15-.52-.2-.8-.22-.03-.17-.06-.33-.07-.5,0-.07,0-.14-.01-.21,0-.27-.08-.56-.33-.71-.22-.13-.45-.17-.7-.14-.6.06-1.24.5-1.43,1.1-.21.66-.33,1.34-.27,2.03.03.37.07.74.16,1.1.09.34.24.66.39.97,0,0,0,0,0,0,0,0,0,0,0,0,.01.02.02.05.03.07.04.08.08.17.12.25.08.08.17.17.25.25.16.11.33.17.52.18.35.05.72,0,1.04-.15.69-.33,1.22-.9,1.33-1.67,0-.07,0-.13.01-.2.02-.02.04-.04.06-.07.24-.39.33-.83.25-1.28Z"/>
            <path class="cls-4" d="M46.63,240s-.01-.03-.02-.05c-.04-.09-.08-.18-.13-.27.05.11.1.21.15.32Z"/>
          </g>
          <path class="cls-4" d="M64.01,247.96c-.5-1.51-1.1-3-1.82-4.43-.43-.85-.99-2.01-1.87-2.48-1.4-.76-3.46.21-3.89,1.75-.22.77-.32,1.54-.34,2.3,0,.03-.02.06-.02.09-.22,1.33-.04,2.69.17,4.01.43,2.63,1.3,5.48,2.77,7.73.59.9,1.45,1.74,2.6,1.72,1.27-.02,2.43-.75,3.09-1.81.27-.33.47-.72.54-1.16.03-.19.03-.37.02-.55.33-2.35-.53-4.99-1.25-7.16Z"/>
          <path class="cls-4" d="M75.99,258.75c-.03-.08-.07-.16-.11-.24-.05-.11-.1-.25-.17-.35-.03-.05-.08-.09-.11-.13-.06-.07-.11-.15-.16-.23-.03-.06-.05-.11-.09-.16-.03-.04-.07-.08-.09-.13l-.04.03c-.07-.12-.13-.24-.25-.32-.13-.06-.26-.12-.38-.18-.23-.07-.46-.08-.69-.04-.17,0-.34.03-.49.11-.27.07-.51.19-.74.36-.14.12-.28.24-.43.36-.24.25-.42.53-.53.85-.02.05-.04.1-.05.15-.03.09-.04.19-.06.28-.07.32-.07.3-.01.71.01.08.03.15.06.22.08.19.16.39.27.57.02.03.04.06.05.09.05.08.1.12.19.2-.04-.04-.08-.07-.11-.11.05.05.09.09.14.14.05.06.11.11.16.16.12.14.28.21.45.27,0,0,.01.01.02.02,0,0,.02,0,.03.01.02,0,.04.03.06.04.03,0,.05,0,.08.01.11.05.21.11.33.12.13.03.26.04.38,0,.21,0,.42-.06.61-.15.16-.08.3-.2.44-.31.06-.03.12-.07.19-.1.14-.12.28-.24.42-.36.01-.01.02-.02.04-.03.11-.14.23-.29.34-.43.05-.08.09-.16.12-.25.09-.14.14-.3.16-.47.05-.15.06-.3.03-.46-.01-.14,0-.17-.04-.26Z"/>
          <path class="cls-4" d="M96.96,269.27c-.13-.02-.28,0-.42,0-.33-1.07-.84-2.11-1.37-3.03-.46-.79-.98-1.54-1.59-2.22-.62-.69-1.31-1.38-2.13-1.83-1.09-.6-2.31-.88-3.54-.58-1.2.29-2.82,1.59-2.41,3.03.24.84.74,1.64,1.22,2.36,0,0,0,0,0,0,.14.44.31.87.51,1.29.85,1.8,2.2,3.42,3.84,4.55.85.58,1.88,1.05,2.93,1.03.02,0,.04,0,.06,0,.68.13,1.4.03,2.04-.23,1.09-.45,2.23-1.57,2.18-2.83-.03-.82-.46-1.41-1.32-1.54Z"/>
          <path class="cls-4" d="M122.38,279.38c-.04-.15-.1-.31-.19-.43-.11-.1-.21-.21-.32-.31-.13-.08-.27-.15-.42-.19-.41-.1-.82-.05-1.22.06-.18-.11-.37-.22-.53-.37-.07-.08-.15-.16-.22-.25-.06-.08-.11-.16-.16-.24-.09-.15-.23-.26-.36-.38,0,0,0,0,0,0,.07.07.13.13.2.2-.07-.06-.13-.13-.2-.2h0s0,0,0,0c-.06-.06-.12-.13-.19-.19,0,0,0,.02-.01.03-.04-.02-.07-.07-.11-.09-.23-.11-.5-.13-.74-.07-.56.14-1.09.54-1.29,1.1-.06.16-.08.35-.11.53-.03.19-.04.34,0,.56.03.16.06.32.1.47.12.41.29.81.51,1.17.22.37.52.67.83.95.32.29.72.47,1.12.63.16.02.32.05.47.07.27.01.53-.04.78-.14.19-.04.36-.12.52-.23.27-.13.51-.31.71-.53.04-.03.07-.07.11-.1.13-.14.27-.33.38-.49.11-.18.21-.38.28-.58.1-.31.15-.65.06-.97Z"/>
        </g>
        <g>
          <path class="cls-4" d="M293.14,201.51c.36-.63,1.28-.7,1.9-.57.88.18,1.54.73,2.05,1.44.05.07.09.17.14.24,1.67,2.42,2.29,5.78,2.56,8.62.16,1.68.19,3.43-.16,5.09-.27,1.26-.89,2.73-2.13,3.33-.97.47-2.26.22-2.96-.66-1.99-2.49-2.66-5.67-2.85-8.8-.17-2.88-.02-6.13,1.45-8.69Z"/>
          <path class="cls-4" d="M289.26,222.98c.14-.41.44-.77.88-.88.42-.1.82-.06,1.23.07.88.29,1.82,1.1,1.86,2.1.02.41-.03.81-.1,1.2.07.36.12.72.12,1.08-.01.91-.2,1.78-.4,2.67-.12.54-.66.8-1.17.82-.68.02-1.22-.34-1.71-.76-.92-.81-1.34-2.08-1.32-3.28.02-1.05.26-2.02.6-3.01Z"/>
          <g>
            <path class="cls-4" d="M282.17,237.28c.06-.33.27-.65.55-.83.24-.15.52-.2.8-.22.03-.17.06-.33.07-.5,0-.07,0-.14.01-.21,0-.27.08-.56.33-.71.22-.13.45-.17.7-.14.6.06,1.24.5,1.43,1.1.21.66.33,1.34.27,2.03-.03.37-.07.74-.16,1.1-.09.34-.24.66-.4.97,0,0,0,0,0,0,0,0,0,0,0,0-.01.02-.02.05-.03.07-.04.08-.08.17-.12.25-.08.08-.17.17-.25.25-.16.11-.33.17-.52.18-.35.05-.72,0-1.04-.15-.69-.33-1.22-.9-1.33-1.67,0-.07,0-.13-.01-.2-.02-.02-.04-.04-.06-.07-.24-.39-.33-.83-.25-1.28Z"/>
            <path class="cls-4" d="M285.74,240s.01-.03.02-.05c.04-.09.09-.18.13-.27-.05.11-.1.21-.15.32Z"/>
          </g>
          <path class="cls-4" d="M268.35,247.96c.5-1.51,1.1-3,1.82-4.43.43-.85.99-2.01,1.87-2.48,1.4-.76,3.46.21,3.89,1.75.22.77.32,1.54.34,2.3,0,.03.02.06.02.09.22,1.33.04,2.69-.17,4.01-.43,2.63-1.3,5.48-2.77,7.73-.59.9-1.45,1.74-2.6,1.72-1.27-.02-2.43-.75-3.08-1.81-.27-.33-.47-.72-.55-1.16-.03-.19-.03-.37-.02-.55-.33-2.35.53-4.99,1.25-7.16Z"/>
          <path class="cls-4" d="M256.37,258.75c.03-.08.07-.16.11-.24.05-.11.1-.25.17-.35.03-.05.08-.09.11-.13.06-.07.11-.15.16-.23.03-.06.05-.11.09-.16.03-.04.06-.08.09-.13l.04.03c.07-.12.13-.24.25-.32.13-.06.26-.12.38-.18.23-.07.46-.08.69-.04.17,0,.34.03.49.11.27.07.51.19.74.36.14.12.28.24.43.36.24.25.42.53.53.85.02.05.04.1.05.15.03.09.04.19.06.28.07.32.07.3.01.71-.01.08-.03.15-.06.22-.08.19-.16.39-.27.57-.02.03-.04.06-.05.09-.05.08-.1.12-.19.2.04-.04.08-.07.11-.11-.05.05-.09.09-.14.14-.05.06-.11.11-.16.16-.12.14-.28.21-.45.27,0,0-.01.01-.02.02,0,0-.02,0-.03.01-.02,0-.04.03-.06.04-.03,0-.05,0-.08.01-.11.05-.21.11-.33.12-.13.03-.26.04-.38,0-.21,0-.42-.06-.61-.15-.16-.08-.3-.2-.44-.31-.06-.03-.12-.07-.18-.1-.14-.12-.28-.24-.42-.36-.01-.01-.02-.02-.03-.03l-.34-.43c-.05-.08-.09-.16-.12-.25-.09-.14-.15-.3-.16-.47-.05-.15-.06-.3-.03-.46.01-.14,0-.17.04-.26Z"/>
          <path class="cls-4" d="M235.41,269.27c.13-.02.28,0,.42,0,.33-1.07.84-2.11,1.37-3.03.46-.79.98-1.54,1.59-2.22.62-.69,1.31-1.38,2.13-1.83,1.09-.6,2.31-.88,3.54-.58,1.2.29,2.82,1.59,2.41,3.03-.24.84-.74,1.64-1.22,2.36,0,0,0,0,0,0-.14.44-.31.87-.51,1.29-.85,1.8-2.2,3.42-3.84,4.55-.85.58-1.88,1.05-2.93,1.03-.02,0-.04,0-.05,0-.68.13-1.4.03-2.04-.23-1.09-.45-2.23-1.57-2.18-2.83.03-.82.46-1.41,1.32-1.54Z"/>
          <path class="cls-4" d="M210.04,280.35c.07.2.17.4.28.58.1.16.25.35.38.49.03.04.07.07.11.1.2.23.44.4.71.53.16.11.33.19.52.23.25.1.51.15.78.14.16-.02.32-.05.47-.07.4-.16.8-.34,1.12-.63.32-.28.62-.59.83-.95.22-.36.39-.77.51-1.17.04-.16.08-.31.1-.47.03-.21.03-.36,0-.56-.03-.18-.05-.37-.11-.53-.2-.56-.72-.96-1.29-1.1-.25-.06-.52-.04-.74.07-.05.02-.07.06-.11.09,0,0,0-.02-.01-.03-.07.05-.13.12-.19.19,0,0,0,0,0,0h0c-.07.07-.13.14-.2.2.07-.06.13-.13.2-.2,0,0,0,0,0,0-.13.12-.26.23-.36.38-.05.08-.1.16-.16.24-.07.09-.14.17-.22.25-.16.15-.35.26-.53.37-.4-.11-.8-.16-1.22-.06-.15.05-.29.11-.42.19-.11.1-.21.21-.32.31-.1.12-.16.28-.19.43-.08.32-.04.66.06.97Z"/>
        </g>
        <g>
          <path class="cls-1" d="M203.97,119.31c-.23-.43-.82-.32-1.26-.02,0,0,0,0,0,0-.02.01-.03.03-.04.04-.11.08-.2.17-.27.26-1.68,1.45-2.94,3.73-4.16,5.53-1.63,2.41-2.7,4.97-3.75,7.67-2.12,5.46-4.08,11-6.11,16.49-1.92,5.19-3.84,10.43-6.53,15.28-2.76,4.97-6.26,9.5-10.24,13.54-.62.63.15,1.13.78.76,10.23-5.99,16.2-16.89,20.26-27.61,2.2-5.82,4.32-11.68,6.42-17.54,1-2.8,2.1-5.49,3.41-8.16.82-1.69,2.48-4.4,1.51-6.25Z"/>
          <path class="cls-1" d="M207.68,136.56c-2.32,2.31-3.22,5.21-4.51,8.13-1.45,3.27-3.65,6.21-5.47,9.27-3.52,5.91-6.84,11.9-10.58,17.67-.35.55.33.76.73.5,6.04-3.98,10.41-10.21,14.01-16.33,1.83-3.11,3.89-6.16,5.24-9.53,1.22-3.05,1.01-6.25,1.81-9.36.22-.84-.81-.78-1.23-.36Z"/>
          <path class="cls-1" d="M237.21,107.22c-7.19,2.48-12.33,9.6-16.4,15.66-2.39,3.55-4.57,7.2-6.31,11.12-.88,1.99-1.69,4.02-2.24,6.13-.51,1.95-1.22,4.12-1.16,6.15.03,1,1.28.56,1.64.03,2.33-3.39,4.02-7.4,6-11.02,1.97-3.6,4-7.18,6.22-10.64,3.79-5.9,7.87-11.63,12.83-16.61.51-.51.02-1.03-.58-.82Z"/>
          <path class="cls-1" d="M225.52,134.12c-.34-.24-.77,0-1.03.23-1.16,1-2.29,1.99-3.15,3.29-.39.59-.75,1.21-1.06,1.84-.19.39-.38.79-.5,1.21-.12.4-.14.82-.16,1.23-.03.59.48.9,1.02.84.66-.07,1.14-.51,1.42-1.09-.06.12-.02.04.02-.03.04-.07.07-.14.11-.21.12-.23.25-.46.34-.7.11-.29.22-.59.33-.88.11-.31.24-.62.37-.92.03-.07.06-.14.1-.21.01-.03.02-.04.02-.05.07-.15.15-.3.22-.44.57-1.09,1.1-2.27,1.91-3.21.21-.24.37-.67.05-.9Z"/>
          <path class="cls-1" d="M275.96,81.64c-4.41.19-8.44,2.51-11.95,5.01-3.93,2.8-7.53,6.24-11.12,9.47-3.82,3.44-7.25,7.26-10.31,11.39-2.95,4-5.88,8.53-7.64,13.21-.48,1.26,1.37,1.29,1.94.57,2.94-3.7,5.53-7.69,8.45-11.42,2.96-3.78,6.17-7.42,9.69-10.7,6.32-5.9,12.83-12.61,20.85-16.11.54-.24,1.08-1.46.09-1.42Z"/>
        </g>
        <g>
          <path class="cls-1" d="M129.86,119.31c.23-.43.82-.32,1.26-.02,0,0,0,0,0,0,.02.01.03.03.04.04.11.08.2.17.27.26,1.68,1.45,2.94,3.73,4.16,5.53,1.62,2.41,2.7,4.97,3.75,7.67,2.12,5.46,4.08,11,6.11,16.49,1.92,5.19,3.84,10.43,6.53,15.28,2.76,4.97,6.26,9.5,10.24,13.54.63.63-.15,1.13-.78.76-10.23-5.99-16.2-16.89-20.26-27.61-2.2-5.82-4.32-11.68-6.43-17.54-1-2.8-2.1-5.49-3.41-8.16-.82-1.69-2.48-4.4-1.51-6.25Z"/>
          <path class="cls-1" d="M126.15,136.56c2.32,2.31,3.22,5.21,4.51,8.13,1.45,3.27,3.65,6.21,5.48,9.27,3.52,5.91,6.84,11.9,10.58,17.67.35.55-.33.76-.73.5-6.04-3.98-10.41-10.21-14.01-16.33-1.83-3.11-3.89-6.16-5.24-9.53-1.22-3.05-1.01-6.25-1.81-9.36-.22-.84.81-.78,1.23-.36Z"/>
          <path class="cls-1" d="M96.62,107.22c7.19,2.48,12.33,9.6,16.4,15.66,2.38,3.55,4.57,7.2,6.31,11.12.88,1.99,1.69,4.02,2.24,6.13.51,1.95,1.22,4.12,1.16,6.15-.03,1-1.28.56-1.64.03-2.33-3.39-4.02-7.4-6-11.02-1.97-3.6-4-7.18-6.22-10.64-3.79-5.9-7.87-11.63-12.83-16.61-.5-.51-.02-1.03.58-.82Z"/>
          <path class="cls-1" d="M108.31,134.12c.34-.24.76,0,1.03.23,1.16,1,2.29,1.99,3.15,3.29.39.59.75,1.21,1.06,1.84.19.39.38.79.5,1.21.12.4.14.82.16,1.23.03.59-.48.9-1.02.84-.66-.07-1.14-.51-1.42-1.09.06.12.02.04-.02-.03-.04-.07-.07-.14-.11-.21-.12-.23-.25-.46-.34-.7-.11-.29-.22-.59-.33-.88-.11-.31-.23-.62-.37-.92-.03-.07-.06-.14-.1-.21-.01-.03-.02-.04-.02-.05-.07-.15-.15-.3-.22-.44-.57-1.09-1.1-2.27-1.91-3.21-.21-.24-.37-.67-.05-.9Z"/>
          <path class="cls-1" d="M57.87,81.64c4.41.19,8.44,2.51,11.95,5.01,3.93,2.8,7.53,6.24,11.12,9.47,3.82,3.44,7.25,7.26,10.31,11.39,2.95,4,5.87,8.53,7.64,13.21.48,1.26-1.37,1.29-1.94.57-2.94-3.7-5.53-7.69-8.45-11.42-2.96-3.78-6.17-7.42-9.69-10.7-6.32-5.9-12.83-12.61-20.85-16.11-.54-.24-1.08-1.46-.09-1.42Z"/>
        </g>
      </g>
    </g>
  </g>
</svg>