<?xml version="1.0" encoding="UTF-8"?>
<svg xmlns="http://www.w3.org/2000/svg" viewBox="0 0 321.97 321.97">
  <defs>
    <style>
      .cls-1 {
        fill: #4a4b4c;
      }

      .cls-1, .cls-2, .cls-3, .cls-4, .cls-5, .cls-6, .cls-7, .cls-8, .cls-9, .cls-10, .cls-11 {
        stroke-width: 0px;
      }

      .cls-2 {
        fill: #674238;
      }

      .cls-3 {
        fill: #e8ede6;
      }

      .cls-4 {
        fill: #c3dffb;
      }

      .cls-12 {
        isolation: isolate;
      }

      .cls-5 {
        fill: #f7a8b0;
      }

      .cls-6 {
        fill: #7fbfff;
      }

      .cls-7 {
        fill: #cfd1d2;
      }

      .cls-8 {
        fill: #fff;
      }

      .cls-9 {
        fill: #fbc8c0;
      }

      .cls-10 {
        fill: #62493e;
      }

      .cls-13 {
        mix-blend-mode: multiply;
      }

      .cls-11 {
        fill: #312017;
      }
    </style>
  </defs>
  <g class="cls-12">
    <g id="Camada_2" data-name="Camada 2">
      <g id="Layer_1" data-name="Layer 1">
        <g>
          <g>
            <rect class="cls-4" x="2.4" y="2.4" width="317.17" height="317.17" rx="25.68" ry="25.68"/>
            <path class="cls-6" d="M293.89,321.97H28.08c-15.48,0-28.08-12.6-28.08-28.08V28.08C0,12.6,12.6,0,28.08,0h265.81c15.48,0,28.08,12.6,28.08,28.08v265.81c0,15.48-12.6,28.08-28.08,28.08ZM28.08,4.8C15.24,4.8,4.8,15.24,4.8,28.08v265.81c0,12.84,10.44,23.28,23.28,23.28h265.81c12.84,0,23.28-10.44,23.28-23.28V28.08c0-12.84-10.44-23.28-23.28-23.28H28.08Z"/>
          </g>
          <g>
            <g>
              <path class="cls-7" d="M146.69,94.91S113.15,44.1,70.47,27.41c-32.51-12.71-41.07,91.98-12,126.36l88.22-58.85Z"/>
              <path class="cls-9" d="M133.91,99.36s-27.01-40.92-61.38-54.35c-26.17-10.23-33.07,74.06-9.66,101.74l71.04-47.39Z"/>
              <g class="cls-13">
                <path class="cls-7" d="M127.86,71.02c-8.88,2.16-17.66,4.76-26.16,8.11-5.67,2.24-11.21,4.81-16.56,7.74-2.74,1.5-5.43,3.09-8.06,4.77-1.39.89-2.76,1.8-4.12,2.73-1.29.89-2.65,1.74-3.84,2.75-1.2,1.01-2.26,2.22-3.34,3.35-1.46,1.54-2.9,3.09-4.38,4.61-3.1,3.2-6.32,6.42-10.05,8.88-2.33,1.54-5.37,3.03-8.16,1.99,2.71,15.15,7.72,28.85,15.28,37.8l88.22-58.85s-7.07-10.7-18.83-23.89Z"/>
              </g>
            </g>
            <g>
              <path class="cls-1" d="M175.16,94.91s33.54-50.81,76.22-67.5c32.51-12.71,41.07,91.98,12,126.36l-88.22-58.85Z"/>
              <path class="cls-9" d="M187.95,99.36s27.01-40.92,61.38-54.35c26.17-10.23,33.07,74.06,9.66,101.74l-71.04-47.39Z"/>
              <g class="cls-13">
                <path class="cls-7" d="M194,71.02c8.88,2.16,17.66,4.76,26.16,8.11,5.67,2.24,11.21,4.81,16.56,7.74,2.74,1.5,5.43,3.09,8.06,4.77,1.39.89,2.76,1.8,4.12,2.73,1.29.89,2.65,1.74,3.84,2.75,1.2,1.01,2.26,2.22,3.34,3.35,1.46,1.54,2.9,3.09,4.38,4.61,3.1,3.2,6.32,6.42,10.05,8.88,2.33,1.54,5.37,3.03,8.16,1.99-2.71,15.15-7.72,28.85-15.28,37.8l-88.22-58.85s7.07-10.7,18.83-23.89Z"/>
              </g>
            </g>
            <path class="cls-3" d="M279.27,170.69c0,54.31-52.19,109.92-116.56,109.92s-116.56-55.61-116.56-109.92,52.19-98.34,116.56-98.34,116.56,44.03,116.56,98.34Z"/>
            <path class="cls-1" d="M56.72,197.6c8.64,3.12,18.19,3.28,27.19,1.91,8.98-1.36,17.84-4.23,25.82-8.59,10.31-5.64,18.14-14.37,22.89-25.1,4.98-11.23,6.82-23.56,9.39-35.48.17-.8,1.25-.52,1.32.18.53,5.07.1,10.24.85,15.28,2.39-4.67,3.49-9.93,6.24-14.43.28-.45,1.14-.44,1.23.16.48,3.05.64,6.14,1.35,9.13,2.3-4.37,3.57-9.4,7.06-13.01.34-.35,1.02-.2,1.13.3,1.03,4.95.13,10.21,1.5,15.09,4.82-4.29,6.91-11.17,10.38-16.44.32-.49,1.05-.4,1.23.16,2.75,8.39,3.35,17.21,4.92,25.85.8,4.41,1.89,8.77,3.57,12.93,1.71,4.22,4.19,7.96,7.03,11.51,4.71,5.89,10.32,11.07,16.58,15.27,3.13,2.1,6.35,3.92,9.9,5.22,3.58,1.31,7.28,2.31,11.02,3.06,7.19,1.45,14.77,2.24,22.11,1.91,4.28-.19,8.56-.57,12.82-1.08,4.08-.49,8.17-1.09,12.23-1.84,3.1-9.46,4.78-19.2,4.78-28.9,0-54.31-52.19-98.34-116.56-98.34s-116.56,44.03-116.56,98.34c0,7.7,1.05,15.43,3.04,23.03,2.28,1.58,4.8,2.89,7.53,3.88Z"/>
            <g>
              <g>
                <path class="cls-8" d="M140.65,181.5c0,12.43-10.07,22.5-22.5,22.5s-22.5-10.08-22.5-22.5,10.07-22.5,22.5-22.5,22.5,10.08,22.5,22.5Z"/>
                <g>
                  <path class="cls-10" d="M134.96,181.5c0,9.28-7.52,16.81-16.81,16.81s-16.81-7.52-16.81-16.81,7.52-16.81,16.81-16.81,16.81,7.52,16.81,16.81Z"/>
                  <g>
                    <path class="cls-11" d="M132.08,181.47c0,7.69-6.24,13.93-13.93,13.93s-13.93-6.24-13.93-13.93,6.24-13.93,13.93-13.93,13.93,6.24,13.93,13.93Z"/>
                    <path class="cls-8" d="M115.52,174.67c0,1.42-1.15,2.56-2.56,2.56s-2.56-1.15-2.56-2.56,1.15-2.56,2.56-2.56,2.56,1.15,2.56,2.56Z"/>
                    <path class="cls-8" d="M109.9,180.91c0,.89-.72,1.61-1.61,1.61s-1.61-.72-1.61-1.61.72-1.61,1.61-1.61,1.61.72,1.61,1.61Z"/>
                  </g>
                </g>
              </g>
              <g>
                <path class="cls-8" d="M229.77,181.5c0,12.43-10.08,22.5-22.5,22.5s-22.5-10.08-22.5-22.5,10.07-22.5,22.5-22.5,22.5,10.08,22.5,22.5Z"/>
                <g>
                  <path class="cls-10" d="M224.07,181.5c0,9.28-7.52,16.81-16.81,16.81s-16.81-7.52-16.81-16.81,7.52-16.81,16.81-16.81,16.81,7.52,16.81,16.81Z"/>
                  <g>
                    <path class="cls-11" d="M221.2,181.47c0,7.69-6.24,13.93-13.93,13.93s-13.93-6.24-13.93-13.93,6.24-13.93,13.93-13.93,13.93,6.24,13.93,13.93Z"/>
                    <path class="cls-8" d="M204.64,174.67c0,1.42-1.15,2.56-2.56,2.56s-2.56-1.15-2.56-2.56,1.15-2.56,2.56-2.56,2.56,1.15,2.56,2.56Z"/>
                    <circle class="cls-8" cx="197.41" cy="180.91" r="1.61"/>
                  </g>
                </g>
              </g>
            </g>
            <path class="cls-7" d="M204.49,206.77c-.48,0-.96-.11-1.42-.35-42.07-21.85-82.14-.26-82.54-.04-1.49.83-3.37.28-4.19-1.21-.82-1.49-.29-3.36,1.2-4.19,1.75-.97,43.29-23.45,88.37-.04,1.51.78,2.1,2.65,1.32,4.16-.55,1.06-1.62,1.66-2.74,1.66Z"/>
            <g>
              <g>
                <path class="cls-2" d="M162.71,242.69c-.68,0-1.23-.28-1.23-.62v-12.63c0-.34.55-.62,1.23-.62s1.23.28,1.23.62v12.63c0,.34-.55.62-1.23.62Z"/>
                <path class="cls-2" d="M145.63,259c-.57,0-1.08-.4-1.2-.98-.14-.67.28-1.32.95-1.46,4.84-1.03,16.1-4.71,16.1-16.63,0-.68.55-1.23,1.23-1.23s1.23.55,1.23,1.23c0,9.52-6.75,16.64-18.06,19.05-.09.02-.17.03-.26.03Z"/>
                <path class="cls-2" d="M179.79,259c-.09,0-.17,0-.26-.03-11.31-2.4-18.06-9.52-18.06-19.05,0-.68.55-1.23,1.23-1.23s1.23.55,1.23,1.23c0,11.93,11.26,15.61,16.1,16.63.67.14,1.09.8.95,1.46-.12.58-.64.98-1.21.98Z"/>
              </g>
              <path class="cls-5" d="M179.18,226.7c-.16-2.58-6.49-2.74-8.17-2.88-5.15-.42-10.33-.41-15.48-.08-1.79.11-9.1.15-9.28,2.96-.24,3.82,5.94,8.85,14.47,10.05.5.08,1.03.14,1.6.18v.05s.05,0,.07,0c.06,0,.19,0,.33,0s.27,0,.33,0c.02,0,.05,0,.07,0v-.05c.57-.04,1.1-.11,1.6-.18,8.53-1.2,14.71-6.22,14.47-10.05Z"/>
            </g>
            <g>
              <g>
                <path class="cls-2" d="M187.63,239.3c-.26,0-.49-.16-.58-.41-.11-.32.06-.67.38-.79.39-.13,9.6-3.3,17.01-2.07.34.06.56.37.51.71-.06.34-.38.56-.71.51-7.1-1.17-16.31,1.99-16.4,2.02-.07.02-.14.03-.2.03Z"/>
                <path class="cls-2" d="M203.41,244.61c-.09,0-.18-.02-.27-.06-7.17-3.5-15.33-2.29-15.41-2.28-.34.05-.65-.18-.7-.52-.05-.34.18-.65.52-.7.35-.05,8.63-1.27,16.14,2.39.31.15.43.52.28.82-.11.22-.33.35-.55.35Z"/>
                <path class="cls-2" d="M200.62,250.73c-.12,0-.23-.03-.34-.1-6.25-4.12-12.59-4.18-12.65-4.18-.34,0-.62-.28-.62-.62s.28-.62.62-.62c.27,0,6.75.05,13.33,4.38.28.19.36.57.17.85-.12.18-.31.28-.51.28Z"/>
              </g>
              <g>
                <path class="cls-2" d="M137.79,239.3c-.07,0-.14-.01-.2-.03-.09-.03-9.3-3.19-16.4-2.02-.33.06-.65-.17-.71-.51-.06-.34.17-.65.51-.71,7.41-1.22,16.62,1.94,17.01,2.07.32.11.49.46.38.79-.09.25-.33.41-.58.41Z"/>
                <path class="cls-2" d="M122.01,244.61c-.23,0-.45-.13-.55-.35-.15-.31-.02-.67.28-.82,7.51-3.66,15.79-2.44,16.14-2.39.34.05.57.37.52.7-.05.34-.37.56-.7.52-.08-.01-8.26-1.21-15.41,2.28-.09.04-.18.06-.27.06Z"/>
                <path class="cls-2" d="M124.8,250.73c-.2,0-.4-.1-.52-.28-.19-.28-.11-.67.18-.85,6.57-4.34,13.05-4.38,13.33-4.38.34,0,.62.28.62.62,0,.34-.28.62-.62.62-.06,0-6.4.06-12.65,4.18-.1.07-.22.1-.34.1Z"/>
              </g>
            </g>
          </g>
        </g>
      </g>
    </g>
  </g>
</svg>