<?xml version="1.0" encoding="UTF-8"?>
<svg xmlns="http://www.w3.org/2000/svg" viewBox="0 0 321.97 321.97">
  <defs>
    <style>
      .cls-1 {
        fill: #fffcdf;
      }

      .cls-1, .cls-2, .cls-3, .cls-4, .cls-5, .cls-6, .cls-7, .cls-8, .cls-9, .cls-10, .cls-11, .cls-12, .cls-13, .cls-14 {
        stroke-width: 0px;
      }

      .cls-2 {
        fill: #674238;
      }

      .cls-3 {
        fill: #834c38;
      }

      .cls-4 {
        fill: #c3dffb;
      }

      .cls-15 {
        isolation: isolate;
      }

      .cls-5 {
        fill: #fec25e;
      }

      .cls-6 {
        opacity: .51;
      }

      .cls-6, .cls-10, .cls-11 {
        fill: #8b5b37;
      }

      .cls-6, .cls-10, .cls-16 {
        mix-blend-mode: multiply;
      }

      .cls-7 {
        fill: #7fbfff;
      }

      .cls-8 {
        fill: #6e4828;
      }

      .cls-9 {
        fill: #fff;
      }

      .cls-12 {
        fill: #3b2920;
      }

      .cls-13 {
        fill: #62493e;
      }

      .cls-14 {
        fill: #312017;
      }
    </style>
  </defs>
  <g class="cls-15">
    <g id="Camada_2" data-name="Camada 2">
      <g id="Layer_1" data-name="Layer 1">
        <g>
          <g>
            <rect class="cls-4" x="2.4" y="2.4" width="317.17" height="317.17" rx="25.68" ry="25.68"/>
            <path class="cls-7" d="M293.89,321.97H28.08c-15.48,0-28.08-12.6-28.08-28.08V28.08C0,12.6,12.6,0,28.08,0h265.8c15.48,0,28.08,12.6,28.08,28.08v265.8c0,15.48-12.6,28.08-28.08,28.08ZM28.08,4.8C15.25,4.8,4.8,15.25,4.8,28.08v265.8c0,12.84,10.44,23.28,23.28,23.28h265.8c12.84,0,23.28-10.44,23.28-23.28V28.08c0-12.84-10.44-23.28-23.28-23.28H28.08Z"/>
          </g>
          <g>
            <path class="cls-11" d="M317.4,141.25c-1.32-12.4-5.88-24.31-12.82-34.64-3.48-5.18-7.6-9.72-11.86-14.26-2.64-2.81-5.44-5.9-8.69-8.21.34.11.67.22,1.01.34,3.43,1.23,6.9,2.59,10.2,4.14,2.21,1.03,4.38,2.16,6.59,3.18,2.29,1.05,4.69,2.16,7.19,2.64,1.12.22,2.76.39,3.57-.63,1.41-1.79-1.31-4.74-2.37-5.97-2.7-3.14-5.89-5.88-9.06-8.53-3.22-2.69-6.53-5.27-9.92-7.75-3-2.19-6.01-3.9-9.36-5.55-8.97-4.4-18.36-7.87-28.01-10.34,4.28-1.46,8.54-3,12.72-4.72.48-.2.37-.66.1-1-3.09-3.82-8.44-5.34-13.07-6.22-4.74-.89-9.59-1.17-14.4-1.16-4.97,0-9.96.32-14.9.95-2.34.3-4.67.69-6.98,1.18.55-.37,1.1-.72,1.67-1.07,1.73-1.07,3.48-2.11,5.11-3.34,1.38-1.04,2.79-2.26,3.56-3.84.24-.49-.21-.93-.67-1.05-4.02-1.12-8.25-1.43-12.41-1.34-8.51.17-17.18,1.96-24.95,5.46-.71.32-1.43.67-2.14,1.03-3.05-2.52-6.45-4.65-9.96-6.44-2.93-1.5-6.1-2.94-9.38-3.59-.69-.39-1.64-.41-2.49-.35-.85-.06-1.8-.04-2.49.35-3.27.66-6.45,2.1-9.38,3.59-3.51,1.79-6.91,3.92-9.96,6.44-.71-.36-1.43-.7-2.14-1.03-7.77-3.5-16.44-5.29-24.95-5.46-4.15-.08-8.39.23-12.41,1.34-.45.13-.9.56-.66,1.05.77,1.58,2.18,2.8,3.56,3.84,1.62,1.23,3.38,2.27,5.11,3.34.57.35,1.12.71,1.67,1.07-2.31-.49-4.64-.88-6.98-1.18-4.93-.63-9.92-.94-14.9-.95-4.81,0-9.67.27-14.4,1.16-4.63.87-9.98,2.39-13.07,6.22-.27.34-.38.8.1,1,4.18,1.72,8.43,3.26,12.72,4.72-9.65,2.47-19.04,5.93-28.01,10.34-3.36,1.65-6.36,3.36-9.36,5.55-3.39,2.47-6.71,5.06-9.92,7.75-3.17,2.65-6.36,5.39-9.06,8.53-1.06,1.23-3.78,4.18-2.37,5.97.81,1.03,2.46.85,3.58.63,2.49-.48,4.89-1.59,7.19-2.64,2.22-1.02,4.38-2.15,6.59-3.18,3.31-1.54,6.77-2.9,10.2-4.14.33-.12.67-.23,1.01-.34-3.25,2.3-6.05,5.39-8.69,8.21-4.26,4.53-8.38,9.08-11.86,14.26-6.94,10.33-11.51,22.24-12.83,34.64-.74,6.95-1.05,14.33.24,21.22.48,2.54,1.32,6.2,4,7.32,2.56,1.06,4.85-1.48,6.34-3.23,1.55-1.82,2.93-3.76,4.21-5.76-1.8,8.13-3.35,16.33-3.35,24.69.01,10.49,2.05,21.01,5.27,30.98.74,2.29,1.63,4.55,2.85,6.63.51.86,1.03,1.71,1.54,2.58.28.47.58,1.09,1.08,1.37,1.12.64,2.32-.67,3.02-1.38,1.05-1.07,1.85-2.19,2.46-3.56,1.21-2.69,1.8-5.67,2.17-8.62,1.34,9.77,4.27,19.24,9.68,27.67,2.5,3.9,5.28,8.09,8.78,11.16,1.34,1.18,3.15,2.44,5.04,2.04,1.76-.38,2.63-1.87,2.84-3.54.12-1.02.09-2.06-.03-3.11,3.33,5.16,8.06,9.61,12.59,13.34,8.53,7.04,18.19,12.65,28.32,17.04,11.02,4.77,22.65,8.12,34.48,10.16,3.99.69,8.01,1.29,12.04,1.71,2.68.45,5.41.59,8.14.54,2.73.05,5.46-.09,8.14-.54,4.03-.42,8.05-1.02,12.04-1.71,11.83-2.04,23.46-5.39,34.48-10.16,10.13-4.39,19.79-10,28.32-17.04,4.52-3.73,9.25-8.18,12.58-13.34-.12,1.04-.16,2.09-.03,3.11.2,1.67,1.08,3.17,2.83,3.54,1.89.4,3.7-.86,5.04-2.04,3.5-3.07,6.28-7.26,8.78-11.16,5.41-8.43,8.35-17.91,9.69-27.67.37,2.95.97,5.94,2.17,8.62.61,1.37,1.42,2.49,2.46,3.56.7.71,1.89,2.02,3.02,1.38.5-.28.8-.9,1.08-1.37.51-.86,1.04-1.71,1.54-2.58,1.22-2.08,2.11-4.34,2.85-6.63,3.22-9.96,5.26-20.49,5.27-30.98,0-8.36-1.54-16.56-3.34-24.69,1.29,2,2.66,3.94,4.21,5.76,1.49,1.75,3.78,4.29,6.34,3.23,2.68-1.11,3.52-4.78,4-7.32,1.29-6.89.97-14.27.24-21.22Z"/>
            <path class="cls-6" d="M312.46,121.5c-7.28,10.88-14.58,21.82-23.54,31.41-4.63,4.96-9.69,9.51-15.15,13.55-6.12,4.52-12.77,8.32-19.52,11.82-26.34,13.68-55.6,21.04-85.22,22.15-23.19.87-46.86-1.7-69.17-8.2-20.53-5.99-40.38-15.7-55.95-30.58-11.64-11.13-20.06-24.81-25.11-39.83-2.46,6.22-4.11,12.75-4.82,19.43-.74,6.95-1.05,14.33.24,21.22.48,2.54,1.32,6.2,4,7.32,2.56,1.06,4.85-1.48,6.34-3.23,1.55-1.82,2.93-3.76,4.21-5.76-1.8,8.13-3.35,16.33-3.34,24.69.01,10.49,2.05,21.01,5.27,30.98.74,2.29,1.63,4.55,2.85,6.63.51.86,1.03,1.71,1.54,2.58.28.47.58,1.09,1.08,1.37,1.12.64,2.32-.67,3.02-1.38,1.05-1.07,1.85-2.19,2.46-3.56,1.21-2.69,1.8-5.67,2.17-8.62,1.34,9.77,4.27,19.24,9.68,27.67,2.5,3.9,5.28,8.09,8.78,11.16,1.34,1.18,3.15,2.44,5.04,2.04,1.76-.38,2.63-1.87,2.84-3.54.12-1.02.09-2.06-.03-3.11,3.33,5.16,8.06,9.61,12.59,13.34,8.53,7.04,18.19,12.65,28.32,17.04,11.02,4.77,22.65,8.12,34.48,10.16,3.99.69,8.01,1.29,12.04,1.71,2.68.45,5.41.59,8.14.54,2.73.05,5.46-.09,8.14-.54,4.03-.42,8.05-1.02,12.04-1.71,11.83-2.04,23.46-5.39,34.48-10.16,10.13-4.39,19.79-10,28.32-17.04,4.52-3.73,9.25-8.18,12.58-13.34-.12,1.04-.16,2.09-.03,3.11.2,1.67,1.08,3.17,2.83,3.54,1.89.4,3.7-.86,5.04-2.04,3.5-3.07,6.28-7.26,8.78-11.16,5.41-8.43,8.35-17.91,9.69-27.67.37,2.95.97,5.94,2.17,8.62.61,1.37,1.42,2.49,2.46,3.56.7.71,1.89,2.02,3.02,1.38.5-.28.8-.9,1.08-1.37.51-.86,1.04-1.71,1.54-2.58,1.22-2.08,2.11-4.34,2.85-6.63,3.22-9.96,5.26-20.49,5.27-30.98,0-8.36-1.54-16.56-3.34-24.69,1.29,2,2.66,3.94,4.21,5.76,1.49,1.75,3.78,4.29,6.34,3.23,2.68-1.11,3.52-4.78,4-7.32,1.29-6.89.97-14.27.24-21.22-.72-6.79-2.42-13.43-4.95-19.75Z"/>
            <g>
              <path class="cls-10" d="M165.69,258.35c-26.41,0-51.85-9.16-71.64-25.8-19.42-16.33-30.55-37.71-30.55-58.68,0-28.99,21.29-55.14,55.57-68.25l2.64-1.01,2.77.55c12.8,2.55,29.16,8.57,41.23,22.6,12.07-14.03,28.43-20.05,41.23-22.6l2.77-.55,2.64,1.01c34.27,13.11,55.57,39.26,55.57,68.25,0,20.96-11.14,42.35-30.55,58.68-19.79,16.64-45.23,25.8-71.64,25.8Z"/>
              <path class="cls-5" d="M211.44,110.1c-14.3,2.85-34.39,10.55-45.11,31.3-.21.41-.43.83-.63,1.26-.21-.43-.42-.84-.63-1.26-10.72-20.75-30.82-28.46-45.11-31.3-31.08,11.88-52.26,35.5-52.26,62.69,0,39.14,43.88,79.22,98,79.22s98-40.08,98-79.22c0-27.19-21.18-50.8-52.26-62.69Z"/>
            </g>
            <g>
              <g>
                <path class="cls-5" d="M73.17,125.61c.66-1.03,1.32-2.05,2.02-3.05,1.57-2.25,3.25-4.42,5.05-6.49,1.77-2.04,3.72-3.9,5.71-5.73,3.93-3.63,8.08-7.03,12.43-10.15,2.33-1.67,4.73-3.26,7.19-4.75-2.95-5.19-10.53-15.65-24.32-17.1-20.65-2.17-27.76,33.55-8.09,47.27Z"/>
                <g class="cls-16">
                  <path class="cls-8" d="M77.61,117.73c.92-1.21,1.86-2.39,2.86-3.54,1.66-1.91,3.49-3.66,5.35-5.38,3.69-3.4,7.58-6.6,11.66-9.52.42-.3.84-.6,1.27-.89-1.28-2.6-6.34-11.4-16.71-12.49-13.96-1.47-18.54,23.23-4.43,31.82Z"/>
                </g>
              </g>
              <g>
                <path class="cls-5" d="M258.22,125.61c-.66-1.03-1.32-2.05-2.02-3.05-1.57-2.25-3.25-4.42-5.05-6.49-1.77-2.04-3.72-3.9-5.71-5.73-3.93-3.63-8.08-7.03-12.43-10.15-2.33-1.67-4.73-3.26-7.19-4.75,2.95-5.19,10.53-15.65,24.32-17.1,20.65-2.17,27.76,33.55,8.09,47.27Z"/>
                <g class="cls-16">
                  <path class="cls-8" d="M253.78,117.73c-.92-1.21-1.86-2.39-2.86-3.54-1.66-1.91-3.49-3.66-5.35-5.38-3.69-3.4-7.58-6.6-11.66-9.52-.42-.3-.84-.6-1.27-.89,1.28-2.6,6.34-11.4,16.71-12.49,13.96-1.47,18.54,23.23,4.43,31.82Z"/>
                </g>
              </g>
            </g>
            <g>
              <g>
                <path class="cls-9" d="M147.15,168.68c0,10.45-8.47,18.92-18.92,18.92s-18.92-8.47-18.92-18.92,8.47-18.92,18.92-18.92,18.92,8.47,18.92,18.92Z"/>
                <g>
                  <path class="cls-13" d="M142.36,168.68c0,7.8-6.33,14.13-14.13,14.13s-14.13-6.33-14.13-14.13,6.33-14.13,14.13-14.13,14.13,6.33,14.13,14.13Z"/>
                  <g>
                    <circle class="cls-14" cx="128.23" cy="168.65" r="11.71" transform="translate(-54.78 61.91) rotate(-22.5)"/>
                    <path class="cls-9" d="M126.02,162.94c0,1.19-.97,2.16-2.16,2.16s-2.16-.97-2.16-2.16.97-2.16,2.16-2.16,2.16.97,2.16,2.16Z"/>
                    <path class="cls-9" d="M121.29,168.19c0,.75-.61,1.36-1.36,1.36s-1.36-.61-1.36-1.36.61-1.36,1.36-1.36,1.36.61,1.36,1.36Z"/>
                  </g>
                </g>
              </g>
              <g>
                <path class="cls-9" d="M222.08,168.68c0,10.45-8.47,18.92-18.92,18.92s-18.92-8.47-18.92-18.92,8.47-18.92,18.92-18.92,18.92,8.47,18.92,18.92Z"/>
                <g>
                  <path class="cls-13" d="M217.29,168.68c0,7.8-6.33,14.13-14.13,14.13s-14.13-6.33-14.13-14.13,6.33-14.13,14.13-14.13,14.13,6.33,14.13,14.13Z"/>
                  <g>
                    <circle class="cls-14" cx="203.16" cy="168.65" r="11.71" transform="translate(-59.75 193.05) rotate(-45)"/>
                    <path class="cls-9" d="M200.95,162.94c0,1.19-.97,2.16-2.16,2.16s-2.16-.97-2.16-2.16.97-2.16,2.16-2.16,2.16.97,2.16,2.16Z"/>
                    <path class="cls-9" d="M196.22,168.19c0,.75-.61,1.36-1.36,1.36s-1.36-.61-1.36-1.36.61-1.36,1.36-1.36,1.36.61,1.36,1.36Z"/>
                  </g>
                </g>
              </g>
            </g>
            <g>
              <path class="cls-14" d="M197.18,148.99c-1.32-1.5-3.39-1.1-5.04-.44-.78.31-1.52.72-2.25,1.14-.86.29-1.7.79-2.37,1.22-1.22.8-2.95,2.09-3.08,3.7-.15,1.71,1.98,2.16,3.28,2.01,2-.23,3.89-1.4,5.45-2.62,1.56-1.22,3.27-2.75,4.04-4.62.04-.11.04-.3-.04-.4Z"/>
              <path class="cls-14" d="M134.17,149.38c.78,1.87,2.49,3.4,4.04,4.62,1.56,1.22,3.45,2.39,5.45,2.62,1.3.15,3.43-.3,3.28-2.01-.13-1.6-1.86-2.9-3.08-3.7-.67-.44-1.5-.93-2.37-1.22-.73-.42-1.47-.83-2.25-1.14-1.65-.66-3.72-1.06-5.04.44-.08.09-.08.29-.04.4Z"/>
            </g>
            <path class="cls-3" d="M222.08,196.81c-.28,0-.56-.05-.84-.14-54.51-18.76-106.22-.21-106.74-.02-1.34.49-2.83-.2-3.33-1.54-.49-1.34.2-2.83,1.54-3.33.53-.2,53.98-19.36,110.21-.02,1.35.47,2.07,1.94,1.61,3.3-.37,1.07-1.38,1.75-2.45,1.75Z"/>
            <g>
              <path class="cls-1" d="M197.49,183.73c-9.29-12.76-24.95-13.38-29.32-13.29-4.37-.09-20.03.53-29.32,13.29-10.76,14.79-26.21,53.04,18,60.39h0s8.09,2.12,21.29.22c45.88-6.8,30.22-45.67,19.35-60.61Z"/>
              <g>
                <g>
                  <path class="cls-2" d="M168.18,229.44c-.57,0-1.04-.46-1.04-1.04v-21.24c0-.57.46-1.04,1.04-1.04s1.04.46,1.04,1.04v21.24c0,.57-.46,1.04-1.04,1.04Z"/>
                  <path class="cls-2" d="M153.81,243.15c-.48,0-.91-.33-1.01-.82-.12-.56.24-1.11.8-1.23,4.07-.86,13.54-3.96,13.54-13.99,0-.57.46-1.04,1.04-1.04s1.04.46,1.04,1.04c0,8.01-5.68,13.99-15.18,16.01-.07.02-.15.02-.22.02Z"/>
                  <path class="cls-2" d="M182.54,243.15c-.07,0-.14,0-.22-.02-9.51-2.02-15.18-8.01-15.18-16.01,0-.57.46-1.04,1.04-1.04s1.04.46,1.04,1.04c0,10.03,9.47,13.12,13.54,13.99.56.12.92.67.8,1.23-.1.49-.53.82-1.01.82Z"/>
                </g>
                <path class="cls-12" d="M182.48,201.04c-.28-4.42-9.8-4.46-14.31-4.23-4.51-.23-14.03-.19-14.31,4.23-.36,5.65.82,13.21,13.84,14.22v.07c.18,0,.84,0,1.02,0v-.07c13.03-1.01,14.12-8.56,13.76-14.22Z"/>
              </g>
              <g>
                <g>
                  <path class="cls-2" d="M196.44,213.23c-.21,0-.42-.13-.49-.35-.09-.27.05-.57.32-.66.48-.17,11.78-4.04,20.87-2.54.28.05.47.31.43.6-.05.28-.32.48-.6.43-8.83-1.45-20.24,2.46-20.36,2.5-.06.02-.11.03-.17.03Z"/>
                  <path class="cls-2" d="M215.91,219.78c-.08,0-.15-.02-.23-.05-8.9-4.34-19.06-2.85-19.16-2.83-.3.04-.55-.15-.59-.43-.04-.28.15-.55.43-.59.43-.06,10.57-1.56,19.77,2.93.26.13.36.44.24.69-.09.18-.27.29-.47.29Z"/>
                  <path class="cls-2" d="M212.46,227.33c-.1,0-.2-.03-.29-.09-7.79-5.14-15.66-5.2-15.74-5.2-.29,0-.52-.23-.52-.52s.23-.52.52-.52c.33,0,8.26.06,16.31,5.37.24.16.31.48.15.72-.1.15-.26.23-.43.23Z"/>
                </g>
                <g>
                  <path class="cls-2" d="M134.94,213.23c-.06,0-.11,0-.17-.03-.11-.04-11.54-3.95-20.36-2.5-.28.05-.55-.15-.6-.43s.15-.55.43-.6c9.09-1.5,20.39,2.38,20.87,2.54.27.09.41.39.32.66-.07.21-.28.35-.49.35Z"/>
                  <path class="cls-2" d="M115.48,219.78c-.19,0-.38-.11-.47-.29-.13-.26-.02-.57.24-.69,9.2-4.49,19.34-2.99,19.77-2.93.28.04.48.31.43.59-.04.28-.29.48-.59.43-.1-.01-10.26-1.5-19.16,2.83-.07.04-.15.05-.23.05Z"/>
                  <path class="cls-2" d="M118.92,227.33c-.17,0-.33-.08-.43-.23-.16-.24-.09-.56.15-.72,8.05-5.31,15.98-5.37,16.31-5.37.29,0,.52.23.52.52s-.23.52-.52.52c-.08,0-7.96.07-15.74,5.2-.09.06-.19.09-.29.09Z"/>
                </g>
              </g>
            </g>
          </g>
        </g>
      </g>
    </g>
  </g>
</svg>