<?xml version="1.0" encoding="UTF-8"?>
<svg xmlns="http://www.w3.org/2000/svg" viewBox="0 0 321.97 321.97">
  <defs>
    <style>
      .cls-1 {
        fill: #838479;
      }

      .cls-1, .cls-2, .cls-3, .cls-4, .cls-5, .cls-6, .cls-7, .cls-8, .cls-9, .cls-10, .cls-11, .cls-12, .cls-13, .cls-14, .cls-15 {
        stroke-width: 0px;
      }

      .cls-2 {
        opacity: .37;
      }

      .cls-2, .cls-3 {
        mix-blend-mode: multiply;
      }

      .cls-2, .cls-13 {
        fill: #828589;
      }

      .cls-3 {
        opacity: .5;
      }

      .cls-3, .cls-4 {
        fill: #606259;
      }

      .cls-5 {
        fill: #d9d8cb;
      }

      .cls-6 {
        fill: #c3dffb;
      }

      .cls-16 {
        isolation: isolate;
      }

      .cls-7 {
        fill: #eeecdd;
      }

      .cls-8 {
        fill: #7fbfff;
      }

      .cls-9 {
        fill: #433f37;
      }

      .cls-10 {
        fill: #fff;
      }

      .cls-11 {
        fill: #908983;
      }

      .cls-12 {
        fill: #5f463b;
      }

      .cls-14 {
        fill: #62493e;
      }

      .cls-15 {
        fill: #312017;
      }
    </style>
  </defs>
  <g class="cls-16">
    <g id="Camada_2" data-name="Camada 2">
      <g id="Layer_1" data-name="Layer 1">
        <g>
          <g>
            <path class="cls-6" d="M28.08,2.4h265.81c14.17,0,25.68,11.51,25.68,25.68v265.81c0,14.17-11.51,25.68-25.68,25.68H28.08c-14.17,0-25.68-11.51-25.68-25.68V28.08C2.4,13.91,13.91,2.4,28.08,2.4Z"/>
            <path class="cls-8" d="M293.89,321.97H28.08c-15.48,0-28.08-12.6-28.08-28.08V28.08C0,12.6,12.6,0,28.08,0h265.81c15.48,0,28.08,12.6,28.08,28.08v265.81c0,15.48-12.6,28.08-28.08,28.08ZM28.08,4.8C15.24,4.8,4.8,15.24,4.8,28.08v265.81c0,12.84,10.44,23.28,23.28,23.28h265.81c12.84,0,23.28-10.44,23.28-23.28V28.08c0-12.84-10.44-23.28-23.28-23.28H28.08Z"/>
          </g>
          <g>
            <g>
              <g>
                <path class="cls-4" d="M32.78,35.18c.22-2.57.63-5.14,1.34-7.62.53-1.85,1.2-3.67,2.58-5.06,1.47-1.49,3.42-2.08,5.43-2.18,1.88.67,3.75,1.36,5.59,2.13,9.96,4.13,19.35,9.57,28.14,15.81,7.28,5.18,14.26,10.9,20.97,16.79,7.1,6.23,13.96,12.87,19.68,20.4,1.8,2.37,3.53,4.92,5.06,7.58-3.66-.75-7.42-1.02-11.2-.77-.71.05,4.63,4.2,7.01,5.78-5.98-.2-18.4,3.61-17.8,3.91,1.6.82,3.36,1.11,5.1,1.45-4.3.98-12.21,5.86-11.66,5.91,1.81.16,3.67.03,5.46.31-4.62,2.57-54.09,30.61-56.34,27.24-.26-.38-.48-.78-.71-1.18-2.14-7.24-3.69-14.67-4.78-22.14-1.76-11.95-2.43-24.04-2.74-36.11-.28-10.74-2.07-21.51-1.14-32.26Z"/>
                <path class="cls-11" d="M39.03,44.27c.18-1.26.47-2.51.81-3.74.47-1.66,1.05-3.32,2.29-4.58,1.28-1.3,2.98-1.81,4.73-1.9,1.64.58,3.26,1.19,4.87,1.85,8.67,3.6,16.84,8.33,24.49,13.76,6.34,4.51,12.41,9.49,18.25,14.61,6.18,5.42,12.15,11.2,17.13,17.76,1.57,2.07,3.07,4.28,4.4,6.6-3.19-.65-6.45-.89-9.75-.67-.62.04,4.03,3.65,6.1,5.03-5.2-.17-16.01,3.14-15.49,3.41,1.39.72,2.92.97,4.44,1.26-3.74.86-10.62,5.1-10.14,5.15,1.58.14,3.19.02,4.76.27-4.02,2.23-47.07,26.64-49.03,23.7-.22-.33-.42-.68-.62-1.03-1.86-6.3-3.21-12.77-4.16-19.27-1.53-10.4-2.11-20.92-2.38-31.43-.26-10.26-2.12-20.54-.69-30.8Z"/>
                <path class="cls-9" d="M44.92,46.47c3.87,3.73,7.01,8.16,10.46,12.3-1.79-1.04-3.57-2.08-5.32-3.19-.6-.38-1.41.44-.97,1.02,4.1,5.45,8.34,10.81,11.98,16.58-2.17-1.69-4.4-3.31-6.82-4.63-.71-.39-1.51.63-.86,1.17,3.91,3.19,7.06,7.19,9.69,11.47,5.26,8.53,8.67,18.17,11.15,27.84.29,1.15.58,2.3.84,3.46-7.84,4.18-16.16,8.46-22.49,11.31-4.63-10.63-7.02-22.23-8.31-33.69-.68-6.06-.96-12.13-1.25-18.22-.21-4.53-.4-9.06-.19-13.6.17-3.84.44-8.21,2.08-11.82Z"/>
                <path class="cls-3" d="M121.57,83.03c-1.53-2.66-3.25-5.21-5.06-7.58-4.25-5.6-9.14-10.71-14.28-15.52-8.41,1.74-16.6,4.54-24.18,8.61-8.77,4.71-16.3,11.05-23.13,18.25-1.75,1.84-3.46,3.73-5.15,5.62-1.46,1.64-3.01,3.25-4.36,4.99-1.76,2.27-3.37,4.66-5.06,6.98-.96,1.32-1.93,2.63-2.92,3.93,1.02,5.86,2.32,11.68,4.01,17.39.23.4.46.79.71,1.18,2.24,3.37,51.72-24.67,56.34-27.24-1.79-.28-3.65-.15-5.46-.31-.55-.05,7.36-4.93,11.66-5.91-1.75-.33-3.5-.62-5.1-1.45-.6-.31,11.82-4.12,17.8-3.91-2.38-1.58-7.73-5.73-7.01-5.78,3.78-.26,7.54.02,11.2.77Z"/>
              </g>
              <g>
                <path class="cls-4" d="M278.78,35.18c-.22-2.57-.63-5.14-1.34-7.62-.53-1.85-1.2-3.67-2.58-5.06-1.47-1.49-3.42-2.08-5.43-2.18-1.88.67-3.75,1.36-5.59,2.13-9.96,4.13-19.35,9.57-28.14,15.81-7.28,5.18-14.26,10.9-20.97,16.79-7.1,6.23-13.96,12.87-19.68,20.4-1.8,2.37-3.53,4.92-5.06,7.58,3.66-.75,7.42-1.02,11.2-.77.71.05-4.63,4.2-7.01,5.78,5.98-.2,18.4,3.61,17.8,3.91-1.6.82-3.36,1.11-5.1,1.45,4.3.98,12.21,5.86,11.66,5.91-1.81.16-3.67.03-5.46.31,4.62,2.57,54.09,30.61,56.34,27.24.26-.38.48-.78.71-1.18,2.14-7.24,3.69-14.67,4.78-22.14,1.76-11.95,2.43-24.04,2.74-36.11.28-10.74,2.07-21.51,1.14-32.26Z"/>
                <path class="cls-11" d="M272.53,44.27c-.18-1.26-.47-2.51-.81-3.74-.47-1.66-1.05-3.32-2.29-4.58-1.28-1.3-2.98-1.81-4.73-1.9-1.64.58-3.26,1.19-4.87,1.85-8.67,3.6-16.84,8.33-24.49,13.76-6.34,4.51-12.41,9.49-18.25,14.61-6.18,5.42-12.15,11.2-17.13,17.76-1.57,2.07-3.07,4.28-4.4,6.6,3.19-.65,6.45-.89,9.75-.67.62.04-4.03,3.65-6.1,5.03,5.21-.17,16.01,3.14,15.49,3.41-1.39.72-2.92.97-4.44,1.26,3.74.86,10.62,5.1,10.14,5.15-1.58.14-3.19.02-4.75.27,4.02,2.23,47.07,26.64,49.03,23.7.22-.33.42-.68.62-1.03,1.86-6.3,3.21-12.77,4.16-19.27,1.53-10.4,2.11-20.92,2.38-31.43.26-10.26,2.12-20.54.69-30.8Z"/>
                <path class="cls-9" d="M266.64,46.47c-3.87,3.73-7.01,8.16-10.46,12.3,1.79-1.04,3.57-2.08,5.32-3.19.6-.38,1.41.44.97,1.02-4.1,5.45-8.34,10.81-11.98,16.58,2.17-1.69,4.4-3.31,6.82-4.63.71-.39,1.51.63.86,1.17-3.91,3.19-7.06,7.19-9.69,11.47-5.26,8.53-8.67,18.17-11.15,27.84-.29,1.15-.58,2.3-.84,3.46,7.84,4.18,16.16,8.46,22.49,11.31,4.63-10.63,7.02-22.23,8.31-33.69.68-6.06.97-12.13,1.25-18.22.21-4.53.4-9.06.19-13.6-.17-3.84-.44-8.21-2.08-11.82Z"/>
                <path class="cls-3" d="M269.92,103.23c-4.19-5.77-8.52-11.47-13.45-16.63-4.63-4.85-9.8-9.02-15.47-12.59-5.72-3.6-11.79-6.73-18.13-9.11-4.78-1.79-9.89-3.27-15.03-3.53-4.59,4.39-8.95,9.03-12.79,14.08-1.8,2.37-3.53,4.92-5.06,7.58,3.66-.75,7.42-1.02,11.2-.77.71.05-4.63,4.2-7.01,5.78,5.98-.2,18.4,3.61,17.8,3.91-1.6.82-3.36,1.11-5.1,1.45,4.3.99,12.21,5.86,11.66,5.91-1.81.16-3.67.03-5.46.31,4.62,2.57,54.09,30.61,56.34,27.24.26-.38.48-.78.71-1.18,1.63-5.51,2.88-11.13,3.88-16.79-1.36-1.89-2.71-3.78-4.08-5.67Z"/>
              </g>
            </g>
            <path class="cls-13" d="M302.06,144.15c-1.21-.76-2.4-1.54-3.58-2.35-9.32-6.4-17.43-14.32-24.97-22.71-7.51-8.35-14.51-17.13-22.04-25.47-7.86-8.71-16.55-16.88-27.12-22.2-4.79-2.41-9.95-4.04-15.14-5.37-2.22-.57-4.45-1.05-6.7-1.48-9.65-3.06-19.74-4.83-29.8-5.43-3.49-.21-6.99-.28-10.48-.2-2.15-.05-4.3-.01-6.44.06-2.15-.07-4.29-.11-6.44-.06-3.5-.08-7,0-10.48.2-10.07.6-20.15,2.37-29.8,5.43-2.25.43-4.48.91-6.7,1.48-5.18,1.33-10.35,2.96-15.14,5.37-10.57,5.33-19.25,13.49-27.12,22.2-7.52,8.33-14.53,17.12-22.04,25.47-7.54,8.39-15.65,16.3-24.97,22.71-1.18.81-2.37,1.59-3.58,2.35-.4.25-.75,1.12-.07,1.28,3.26.77,6.44-.46,9.54-1.72-4.51,3.63-8.44,8.44-9.46,14.04-.13.71.89.64,1.24.37,2.49-1.9,4.68-4.15,6.96-6.28-4.1,5.94-6.83,12.74-7.26,20.05-.53,8.86,2.29,17.58,6.92,25.05,5.37,8.66,13.08,15.68,21.04,21.92,4.12,3.23,8.38,6.27,12.64,9.29,12.48,8.85,22.93,19.9,36.6,27.1,18.08,9.53,37.6,12.46,57.82,12.56,1.29,0,2.58,0,3.87-.03,1.29.02,2.58.03,3.87.03.86,0,1.71-.03,2.57-.05.86.02,1.72.04,2.57.05,1.29,0,2.58,0,3.87-.03,1.29.02,2.58.03,3.87.03,20.22-.1,39.73-3.03,57.82-12.56,13.67-7.21,24.12-18.26,36.6-27.1,4.27-3.03,8.52-6.07,12.64-9.29,7.96-6.24,15.67-13.26,21.04-21.92,4.63-7.47,7.45-16.2,6.92-25.05-.43-7.32-3.17-14.11-7.26-20.05,2.28,2.13,4.47,4.38,6.96,6.28.35.27,1.37.34,1.24-.37-1.02-5.6-4.95-10.41-9.46-14.04,3.1,1.26,6.28,2.49,9.54,1.72.68-.16.33-1.03-.07-1.28Z"/>
            <path class="cls-1" d="M240.31,146.14c.48,1.06.94,2.13,1.34,3.23.67,1.86,1.15,3.77,1.51,5.7-.3-3.24-1.11-6.49-2.74-9.28-.03.12-.07.23-.1.35Z"/>
            <path class="cls-7" d="M302.06,144.15c-1.21-.76-2.4-1.54-3.58-2.35-9.32-6.4-17.43-14.32-24.97-22.71-3.89-4.33-7.65-8.78-11.42-13.22.56,1.15,1.16,2.28,1.83,3.38,3.44,5.64,7.86,10.6,11.42,16.16,3.59,5.62,6.04,11.88,5.72,18.65-.03.67-.75.91-1.24.52-6.69-5.32-14.63-9.02-23.02-10.67,1.81,4.98,2.66,10.34.45,15.36-.22.49-1.03.46-1.26,0-1.74-3.51-3-7.34-5.39-10.47,0,3.5-.43,6.99-1.44,10.35-1.21,4.01-3.15,7.76-5.46,11.25-.41.62-1.31.36-1.36-.37-.23-3.51-.9-6.96-2.09-10.27-.17-.48-.38-.95-.57-1.42-1.84,6.22-4.02,12.49-8.25,17.45-2.2,2.58-4.94,4.66-7.98,6.16-1.8.89-3.7,1.6-5.63,2.16-2.36.68-4.79,1.3-7.23,1.66-5.23.77-10.55.36-15.66-.98-2.68-.7-5.28-1.66-7.81-2.78-2.17-.96-4.3-2.01-6.23-3.4-3.53-2.54-6.42-5.81-9.62-8.73-3.42-3.12-7.27-5.51-11.9-6.28-4.77-.79-8.91.8-12.66,3.28.56,0,1.06.72.55,1.24-7.2,7.45-15.94,13.46-25.38,17.71-16,7.2-34.58,9-51.1,2.38-7.41-2.97-15.69-8.1-17.47-16.5-1.47-6.97,1.76-13.84,5.43-19.74-8.32,5.32-15,12.89-20.75,20.84-.43.6-1.29.37-1.36-.37-.42-4.81-.08-9.64,1.3-14.29,1.02-3.44,2.52-6.71,4.22-9.87-5.79,5.1-10.26,11.56-14.8,17.75-.38.51-1.44.43-1.36-.37.24-2.48.71-4.94,1.34-7.35,1.22-4.61,3.01-9.1,5.35-13.25.73-1.3,1.53-2.57,2.39-3.8-3.56,2.74-7.23,5.32-11.38,7.12-.68.29-1.32-.31-1-1,.91-1.97,1.93-3.87,3.01-5.73-3.98,3.65-8.16,7.06-12.62,10.13-1.18.81-2.37,1.59-3.58,2.35-.4.25-.75,1.12-.07,1.28,3.26.77,6.44-.46,9.54-1.72-4.51,3.63-8.44,8.44-9.46,14.04-.13.71.89.64,1.24.37,2.49-1.9,4.68-4.15,6.96-6.28-4.1,5.94-6.83,12.74-7.26,20.05-.53,8.86,2.29,17.58,6.92,25.05,5.37,8.66,13.08,15.68,21.04,21.92,4.12,3.23,8.38,6.27,12.64,9.29,12.48,8.85,22.93,19.9,36.6,27.1,18.08,9.53,37.6,12.46,57.82,12.56,1.29,0,2.58,0,3.87-.03,1.29.02,2.58.03,3.87.03.86,0,1.71-.03,2.57-.05.86.02,1.72.04,2.57.05,1.29,0,2.58,0,3.87-.03,1.29.02,2.58.03,3.87.03,20.22-.1,39.73-3.03,57.82-12.56,13.67-7.21,24.12-18.26,36.6-27.1,4.27-3.03,8.52-6.07,12.64-9.29,7.96-6.24,15.67-13.26,21.04-21.92,4.63-7.47,7.45-16.2,6.92-25.05-.43-7.32-3.17-14.11-7.26-20.05,2.28,2.13,4.47,4.38,6.96,6.28.35.27,1.37.34,1.24-.37-1.02-5.6-4.95-10.41-9.46-14.04,3.1,1.26,6.28,2.49,9.54,1.72.68-.16.33-1.03-.07-1.28Z"/>
            <path class="cls-2" d="M295.44,154.32c-1.54-1.66-3.22-3.19-5.01-4.59.14.25.29.5.43.76,2.73,5.17,4.34,10.92,4.24,16.79-.09,5.38-1.59,10.63-3.93,15.46-5.17,10.69-13.99,19.36-22.94,26.95-4.49,3.82-9.03,7.62-13.65,11.28-4.84,3.84-9.93,7.54-15.62,9.99-4.45,1.92-9.33,3.13-14.12,1.81-4.09-1.13-7.57-3.78-10.47-6.79-1.15-1.19-2.2-2.46-3.21-3.75-3.88-4.13-8.45-7.49-12.74-11.19-5.41-4.66-10.08-9.99-13.96-15.98-1.66-2.56-3.33-5.3-4.37-8.18-.68-1.89-1.02-3.91-1.45-5.86-.47-2.16-.95-4.35-1.78-6.4-.55-1.37-1.35-2.91-2.7-3.62-1.56,5.43-1.24,11.19-2.45,16.7-.99,4.5-3.16,9.19-7.44,11.4-3.69,1.91-8.1,1.76-12,.56-4.4-1.35-8.45-3.97-11.02-7.84-2.41-3.64-3.49-7.95-5.48-11.81-.89,1.01-1.7,2.09-2.42,3.25-1.84,2.97-3.25,6.17-5.07,9.15-1.94,3.18-4.17,6.16-6.58,8.99-2.38,2.8-4.98,5.41-7.37,8.2-2.27,2.65-4.35,5.47-6.43,8.27-4.02,5.41-8.06,10.88-13.33,15.14-4.39,3.54-9.76,4.9-15.33,4.14-5.74-.78-11.13-3.37-16.05-6.32-4.86-2.91-9.36-6.34-13.91-9.7-10.04-7.42-19.96-15.12-27.79-24.95-4.89-6.14-8.73-12.98-11.04-20.34.38,7.47,2.97,14.73,6.91,21.08,5.37,8.66,13.08,15.68,21.04,21.92,4.12,3.23,8.38,6.27,12.64,9.29,12.48,8.85,22.93,19.9,36.6,27.1,18.08,9.53,37.6,12.46,57.82,12.56,1.29,0,2.58,0,3.87-.03,1.29.02,2.58.03,3.87.03.86,0,1.71-.03,2.57-.05.86.02,1.72.04,2.57.05,1.29,0,2.58,0,3.87-.03,1.29.02,2.58.03,3.87.03,20.22-.1,39.73-3.03,57.82-12.56,13.67-7.21,24.12-18.26,36.6-27.1,4.27-3.03,8.52-6.07,12.64-9.29,7.96-6.24,15.67-13.26,21.04-21.92,4.63-7.47,7.45-16.2,6.92-25.05-.38-6.32-2.47-12.25-5.67-17.57Z"/>
            <g>
              <path class="cls-11" d="M207.02,229.23c-8.94-13.48-23.3-23.62-26.84-40.23-6.36-29.83-14.37-41.75-20.63-46.32-1.36-.26-2.74-.41-4.14-.4-1.8.02-3.56.3-5.25.78-6.18,4.83-13.94,16.9-20.12,45.93-3.54,16.61-17.9,26.75-26.84,40.23-10.81,16.31-9.71,37.95,3,53.05,9.66,11.48,25.57,17.72,40.4,17.03,2.94-.13,14.09-.13,17.02,0,14.84.69,30.74-5.55,40.4-17.03,12.71-15.1,13.81-36.74,3-53.05Z"/>
              <path class="cls-11" d="M207.02,229.23c-8.94-13.48-23.3-23.62-26.84-40.23-6.36-29.83-14.37-41.75-20.63-46.32-1.36-.26-2.74-.41-4.14-.4-1.8.02-3.56.3-5.25.78-6.18,4.83-13.94,16.9-20.12,45.93-3.54,16.61-17.9,26.75-26.84,40.23-10.81,16.31-9.71,37.95,3,53.05,9.66,11.48,25.57,17.72,40.4,17.03,2.94-.13,14.09-.13,17.02,0,14.84.69,30.74-5.55,40.4-17.03,12.71-15.1,13.81-36.74,3-53.05Z"/>
              <path class="cls-5" d="M207.02,229.23c-3.29-4.97-7.32-9.48-11.28-14.03,3.05,6.97,4.89,14.69,2.52,21.98-.18.55-1.05.78-1.33.17-1.32-2.84-2.82-5.58-4.34-8.31.25,5.45-.84,10.89-3.82,15.7-4.34,7.01-11.69,11.56-19.36,14.15-8.34,2.82-17.45,3.56-26.17,2.42-8.1-1.06-16.35-3.78-22.6-9.21-.41-.36-.81-.73-1.19-1.11-1.79-1.16-3.45-2.51-4.84-4.15-4.67-5.51-4.85-12.6-3.06-19.22-3.05,3.99-5.12,8.71-6.7,13.44-.26.77-1.43.65-1.43-.19,0-4.61.44-9.46,1.52-14.13-.6.82-1.18,1.65-1.74,2.5-10.81,16.31-9.71,37.95,3,53.05,9.66,11.48,25.57,17.72,40.4,17.03,2.94-.13,14.09-.13,17.02,0,14.84.69,30.74-5.55,40.4-17.03,12.71-15.1,13.81-36.74,3-53.05Z"/>
              <g>
                <g>
                  <path class="cls-12" d="M194.05,251.09c-.09,0-.18-.02-.26-.07-.27-.15-.36-.48-.22-.74.14-.27,14.89-26.27,51.26-22.2.3.03.52.3.48.61-.03.3-.29.51-.61.48-35.61-3.99-50.04,21.39-50.18,21.64-.1.18-.29.28-.48.28Z"/>
                  <path class="cls-12" d="M195.53,254.41c-.17,0-.34-.08-.45-.24-.17-.25-.11-.59.14-.76.24-.16,23.87-15.98,61.14-8.49.3.06.49.35.43.64-.06.3-.34.5-.64.43-36.79-7.39-60.07,8.16-60.3,8.32-.09.06-.2.1-.31.1Z"/>
                  <path class="cls-12" d="M248.93,271.87c-.1,0-.19-.02-.28-.08-31.77-18.7-52.71-12-52.92-11.93-.29.1-.6-.06-.69-.34-.1-.29.06-.6.34-.69.21-.07,21.58-6.95,53.82,12.02.26.15.35.49.19.75-.1.17-.28.27-.47.27Z"/>
                </g>
                <g>
                  <path class="cls-12" d="M116.16,251.09c-.19,0-.38-.1-.48-.28-.14-.26-14.61-25.64-50.18-21.64-.32.02-.57-.18-.61-.48-.03-.3.18-.57.48-.61,36.35-4.07,51.12,21.94,51.26,22.2.15.26.05.6-.22.74-.08.05-.17.07-.26.07Z"/>
                  <path class="cls-12" d="M114.69,254.41c-.11,0-.22-.03-.31-.1-.23-.16-23.51-15.7-60.3-8.32-.3.07-.59-.13-.64-.43-.06-.3.13-.59.43-.64,37.26-7.48,60.9,8.33,61.14,8.49.25.17.31.51.14.76-.11.16-.28.24-.45.24Z"/>
                  <path class="cls-12" d="M61.29,271.87c-.19,0-.37-.1-.47-.27-.15-.26-.07-.6.19-.75,16.83-9.9,30.54-12.65,39.08-13.21,9.3-.61,14.53,1.12,14.75,1.19.29.1.44.41.34.69-.1.29-.41.44-.69.34-.21-.07-21.14-6.77-52.92,11.93-.09.05-.18.08-.28.08Z"/>
                </g>
              </g>
              <g>
                <path class="cls-9" d="M155.11,278.04c-.67,0-1.21-.54-1.21-1.21v-20.88c0-.67.54-1.21,1.21-1.21s1.21.54,1.21,1.21v20.88c0,.67-.54,1.21-1.21,1.21Z"/>
                <path class="cls-9" d="M140.99,291.51c-.56,0-1.06-.39-1.18-.96-.14-.65.28-1.3.93-1.44,3.96-.84,13.15-3.84,13.15-13.56,0-.67.54-1.21,1.21-1.21s1.21.54,1.21,1.21c0,7.97-5.63,13.92-15.07,15.92-.09.02-.17.03-.25.03Z"/>
                <path class="cls-9" d="M169.22,291.51c-.08,0-.17,0-.25-.03-9.44-2-15.07-7.96-15.07-15.92,0-.67.54-1.21,1.21-1.21s1.21.54,1.21,1.21c0,9.71,9.2,12.72,13.15,13.56.65.14,1.07.78.93,1.44-.12.57-.62.96-1.18.96Z"/>
              </g>
              <path class="cls-9" d="M171.67,240.07c-7.76-2.26-16.12-2.64-24.11-1.6-4.71.61-9.59,1.76-14.01,3.76-5.18,11.08,4.85,25.49,16.66,25.12h9.81c11.95.37,22.08-14.39,16.48-25.52-1.57-.68-3.18-1.28-4.82-1.76Z"/>
            </g>
            <g>
              <g>
                <path class="cls-15" d="M102.25,125.77c-.4,0-.79-.16-1.08-.48-.54-.6-.49-1.52.1-2.06.11-.1,11.55-10.23,26.79-1.35.69.41.93,1.3.53,2-.41.7-1.3.93-2,.53-13.34-7.78-22.96.63-23.36.99-.28.25-.63.37-.98.37Z"/>
                <g>
                  <path class="cls-10" d="M136.23,147.49c0,10.16-8.24,18.4-18.4,18.4s-18.4-8.24-18.4-18.4,8.24-18.4,18.4-18.4,18.4,8.24,18.4,18.4Z"/>
                  <circle class="cls-14" cx="117.82" cy="147.49" r="14.68" transform="translate(-52.79 228.28) rotate(-76.72)"/>
                  <path class="cls-15" d="M126.83,147.82c0,4.98-4.03,9.01-9.01,9.01s-9.01-4.03-9.01-9.01,4.03-9.01,9.01-9.01,9.01,4.03,9.01,9.01Z"/>
                  <circle class="cls-10" cx="112.5" cy="141.15" r="2.6"/>
                  <path class="cls-10" d="M109.9,148.44c0,1.09-.89,1.98-1.98,1.98s-1.98-.89-1.98-1.98.89-1.98,1.98-1.98,1.98.89,1.98,1.98Z"/>
                </g>
              </g>
              <g>
                <path class="cls-15" d="M178.16,125.77c-.4,0-.8-.16-1.08-.48-.54-.6-.49-1.52.1-2.06.11-.1,11.55-10.23,26.79-1.35.7.41.93,1.3.53,2-.41.7-1.3.93-2,.53-13.34-7.77-22.96.63-23.36.99-.28.25-.63.37-.98.37Z"/>
                <g>
                  <path class="cls-10" d="M212.14,147.49c0,10.16-8.24,18.4-18.4,18.4s-18.4-8.24-18.4-18.4,8.24-18.4,18.4-18.4,18.4,8.24,18.4,18.4Z"/>
                  <circle class="cls-14" cx="193.73" cy="147.49" r="14.68" transform="translate(5.68 302.16) rotate(-76.72)"/>
                  <path class="cls-15" d="M202.74,147.82c0,4.98-4.03,9.01-9.01,9.01s-9.01-4.03-9.01-9.01,4.03-9.01,9.01-9.01,9.01,4.03,9.01,9.01Z"/>
                  <circle class="cls-10" cx="188.41" cy="141.15" r="2.6"/>
                  <path class="cls-10" d="M185.81,148.44c0,1.09-.89,1.98-1.98,1.98s-1.98-.89-1.98-1.98.89-1.98,1.98-1.98,1.98.89,1.98,1.98Z"/>
                </g>
              </g>
            </g>
          </g>
        </g>
      </g>
    </g>
  </g>
</svg>