<?xml version="1.0" encoding="UTF-8"?>
<svg xmlns="http://www.w3.org/2000/svg" viewBox="0 0 321.97 321.97">
  <defs>
    <style>
      .cls-1 {
        fill: #b6a498;
      }

      .cls-1, .cls-2, .cls-3, .cls-4, .cls-5, .cls-6, .cls-7, .cls-8, .cls-9, .cls-10, .cls-11, .cls-12, .cls-13, .cls-14, .cls-15, .cls-16, .cls-17, .cls-18, .cls-19, .cls-20, .cls-21 {
        stroke-width: 0px;
      }

      .cls-2 {
        fill: #a8cded;
      }

      .cls-3 {
        fill: #67686b;
      }

      .cls-4 {
        fill: #c3dffb;
      }

      .cls-22 {
        isolation: isolate;
      }

      .cls-5 {
        fill: #625b53;
      }

      .cls-6, .cls-10 {
        fill: #da7f7e;
      }

      .cls-7 {
        fill: #7fbfff;
      }

      .cls-8, .cls-9 {
        fill: #d0a97c;
      }

      .cls-9, .cls-10, .cls-14 {
        mix-blend-mode: multiply;
      }

      .cls-11 {
        fill: #fff;
      }

      .cls-12 {
        fill: #231f20;
      }

      .cls-13 {
        fill: #d872a1;
      }

      .cls-14, .cls-17 {
        fill: #3d3e40;
      }

      .cls-15 {
        fill: #00c1f3;
      }

      .cls-16 {
        fill: #da8d9f;
      }

      .cls-18 {
        fill: #590c12;
      }

      .cls-19 {
        fill: #62493e;
      }

      .cls-20 {
        fill: #7b95ad;
      }

      .cls-21 {
        fill: #312017;
      }
    </style>
  </defs>
  <g class="cls-22">
    <g id="Camada_2" data-name="Camada 2">
      <g id="Layer_1" data-name="Layer 1">
        <g>
          <g>
            <path class="cls-4" d="M28.08,2.4h265.81c14.17,0,25.68,11.51,25.68,25.68v265.81c0,14.17-11.51,25.68-25.68,25.68H28.08c-14.17,0-25.68-11.51-25.68-25.68V28.08C2.4,13.91,13.91,2.4,28.08,2.4Z"/>
            <path class="cls-7" d="M293.89,321.97H28.08c-15.48,0-28.08-12.6-28.08-28.08V28.08C0,12.6,12.6,0,28.08,0h265.81c15.48,0,28.08,12.6,28.08,28.08v265.81c0,15.48-12.6,28.08-28.08,28.08ZM28.08,4.8C15.24,4.8,4.8,15.24,4.8,28.08v265.81c0,12.84,10.44,23.28,23.28,23.28h265.81c12.84,0,23.28-10.44,23.28-23.28V28.08c0-12.84-10.44-23.28-23.28-23.28H28.08Z"/>
          </g>
          <g>
            <g>
              <path class="cls-6" d="M63.98,134.47c1.4,1.16,2.9,1.32,4.38.92,1.19-.95,2.29-2.02,3.28-3.08,2.98-3.19,5.45-6.85,7.62-10.63,1.8-3.13,3.38-6.39,4.76-9.72,1.7-4.1,3.17-8.39,3.78-12.8.31-2.29.4-4.8-.15-7.11-.18,0-.37-.04-.55-.07-5.43-1.02-10.91-1.92-16.27-3.26-3.94-.98-7.87-2.62-12.01-2.27-4.2.36-5.38,4.67-5.63,8.22-.88,12.41,2.59,25.43,8.34,36.37.66,1.25,1.38,2.52,2.47,3.42Z"/>
              <path class="cls-10" d="M87.63,92.06c-.18,0-.37-.04-.55-.07-5.43-1.02-10.91-1.92-16.27-3.26-3.83-.96-7.66-2.53-11.67-2.29-.68,4.19-.78,8.48-.5,12.7.4,5.95,1.53,11.92,3.39,17.59,1.1,3.36,2.81,6.57,4.65,9.57,1.35,2.22,2.86,4.41,4.59,6.38.12-.12.24-.24.35-.37,2.98-3.19,5.45-6.85,7.62-10.63,1.8-3.13,3.38-6.39,4.76-9.72,1.7-4.1,3.17-8.39,3.78-12.8.31-2.29.4-4.8-.15-7.11Z"/>
              <path class="cls-16" d="M57.8,89.1c1.49.78,2.44,2.3,3.17,3.75.82,1.64,1.52,3.35,2.23,5.04,1.82,4.33,3.62,8.75,6.51,12.51,2.43,3.16,5.55,5.9,9.05,7.81.61.33,1.25.64,1.9.91,1.23-2.33,2.34-4.72,3.35-7.15,1.7-4.1,3.17-8.39,3.78-12.8.31-2.29.4-4.8-.15-7.11-.18,0-.37-.04-.55-.07-5.43-1.02-10.91-1.92-16.27-3.26-3.94-.98-7.87-2.62-12.01-2.27-1.79.15-3.03,1.03-3.89,2.26.97-.18,1.97-.1,2.88.38Z"/>
              <path class="cls-16" d="M57.8,89.1c1.49.78,2.44,2.3,3.17,3.75.82,1.64,1.52,3.35,2.23,5.04,1.82,4.33,3.62,8.75,6.51,12.51,2.43,3.16,5.55,5.9,9.05,7.81.61.33,1.25.64,1.9.91,1.23-2.33,2.34-4.72,3.35-7.15,1.7-4.1,3.17-8.39,3.78-12.8.31-2.29.4-4.8-.15-7.11-.18,0-.37-.04-.55-.07-5.43-1.02-10.91-1.92-16.27-3.26-3.94-.98-7.87-2.62-12.01-2.27-1.79.15-3.03,1.03-3.89,2.26.97-.18,1.97-.1,2.88.38Z"/>
            </g>
            <g>
              <path class="cls-6" d="M252.62,134.47c-1.4,1.16-2.9,1.32-4.38.92-1.19-.95-2.29-2.02-3.28-3.08-2.98-3.19-5.45-6.85-7.62-10.63-1.79-3.13-3.38-6.39-4.76-9.72-1.7-4.1-3.17-8.39-3.78-12.8-.31-2.29-.4-4.8.15-7.11.18,0,.37-.04.55-.07,5.43-1.02,10.91-1.92,16.27-3.26,3.94-.98,7.87-2.62,12.01-2.27,4.2.36,5.38,4.67,5.63,8.22.88,12.41-2.59,25.43-8.34,36.37-.66,1.25-1.38,2.52-2.47,3.42Z"/>
              <path class="cls-10" d="M228.96,92.06c.18,0,.37-.04.55-.07,5.43-1.02,10.91-1.92,16.27-3.26,3.83-.96,7.66-2.53,11.67-2.29.68,4.19.78,8.48.5,12.7-.4,5.95-1.53,11.92-3.39,17.59-1.1,3.36-2.81,6.57-4.65,9.57-1.35,2.22-2.86,4.41-4.59,6.38-.12-.12-.24-.24-.35-.37-2.98-3.19-5.45-6.85-7.62-10.63-1.79-3.13-3.38-6.39-4.76-9.72-1.7-4.1-3.17-8.39-3.78-12.8-.31-2.29-.4-4.8.15-7.11Z"/>
              <path class="cls-16" d="M258.8,89.1c-1.49.78-2.44,2.3-3.17,3.75-.82,1.64-1.52,3.35-2.23,5.04-1.82,4.33-3.62,8.75-6.51,12.51-2.43,3.16-5.55,5.9-9.05,7.81-.61.33-1.25.64-1.9.91-1.23-2.33-2.34-4.72-3.35-7.15-1.7-4.1-3.17-8.39-3.78-12.8-.31-2.29-.4-4.8.15-7.11.18,0,.37-.04.55-.07,5.43-1.02,10.91-1.92,16.27-3.26,3.94-.98,7.87-2.62,12.01-2.27,1.79.15,3.03,1.03,3.89,2.26-.97-.18-1.97-.1-2.88.38Z"/>
              <path class="cls-16" d="M258.8,89.1c-1.49.78-2.44,2.3-3.17,3.75-.82,1.64-1.52,3.35-2.23,5.04-1.82,4.33-3.62,8.75-6.51,12.51-2.43,3.16-5.55,5.9-9.05,7.81-.61.33-1.25.64-1.9.91-1.23-2.33-2.34-4.72-3.35-7.15-1.7-4.1-3.17-8.39-3.78-12.8-.31-2.29-.4-4.8.15-7.11.18,0,.37-.04.55-.07,5.43-1.02,10.91-1.92,16.27-3.26,3.94-.98,7.87-2.62,12.01-2.27,1.79.15,3.03,1.03,3.89,2.26-.97-.18-1.97-.1-2.88.38Z"/>
            </g>
            <g>
              <path class="cls-1" d="M256.84,129.83c-5.71-19.17-19.12-35.79-36.32-45.9-17.26-10.14-40.71-18.2-61.1-17.66-20.4-.55-43.84,7.52-61.1,17.66-17.2,10.1-30.61,26.73-36.32,45.9-5.78,19.41-2.5,39.64,6.63,57.45,4.55,8.87,10.34,17.06,16.79,24.64,3.32,3.9,6.84,7.64,10.48,11.24,3.91,3.86,8.99,6.17,10.31,12,1.31,5.78-.99,11.85,1.37,17.46.63,1.5,1.55,2.85,2.55,4.13,4.73,6.07,11.18,10.42,18.51,12.69,8.57,2.65,16.48,1.09,25.06,1.93.59.06,1.19.11,1.78.15,0,0,2.1-61.31,3.92-116.89,1.82,55.58,3.91,116.89,3.91,116.89.6-.05,1.19-.1,1.78-.15,8.59-.84,16.49.72,25.06-1.93,7.33-2.27,13.78-6.62,18.51-12.69,1-1.28,1.92-2.64,2.55-4.13,2.37-5.61.07-11.68,1.37-17.46,1.32-5.83,6.4-8.14,10.31-12,3.65-3.6,7.16-7.34,10.48-11.24,6.45-7.58,12.24-15.77,16.79-24.64,9.13-17.81,12.41-38.04,6.63-57.45Z"/>
              <path class="cls-1" d="M214.97,76.9c-4.91-4.36-10.37-8.21-14.82-13.06-2.11-2.01-4.09-4.17-5.88-6.47-3.22-4.15-5.98-8.85-7.36-13.96-.03.05-.07.1-.1.16-.9,1.98-.8,4.37-.6,6.48.22,2.32.64,4.62,1.1,6.9.49,2.41,1.17,4.72,1.9,7.07.44,1.4.88,2.84,1.17,4.29-1.1-1.54-2.11-3.14-3.04-4.79-3.16-5.63-5.39-11.62-6.75-17.93-.35-1.6-2.68-10.98-3.41-14.09-.12-.5-.22-1.01-.33-1.51-.45-.23-1-.33-1.26.1-2.12,3.56-2.27,8.05-2.62,12.07-.22,2.49-.41,4.94-.33,7.45.02.81.03,1.62.03,2.43-2.67-8.77-3.5-18.03-4.56-27.11-.01-.1-.04-.19-.08-.29-2.17,1.83-3.67,4.44-4.78,7.02-1.46,3.38-2.39,6.97-3.17,10.57-.78-3.59-1.71-7.19-3.17-10.57-1.12-2.58-2.61-5.19-4.78-7.02-.04.09-.07.19-.08.29-1.06,9.08-1.89,18.34-4.56,27.11,0-.81.01-1.62.03-2.43.07-2.51-.11-4.95-.33-7.45-.35-4.02-3.43-12.41-3.88-12.17-.11.5-.21,1.01-.33,1.51-.73,3.12-3.06,12.49-3.41,14.09-1.36,6.31-3.59,12.3-6.75,17.93-.93,1.65-1.94,3.25-3.04,4.79.29-1.46.73-2.89,1.17-4.29.73-2.34,1.41-4.66,1.9-7.07.47-2.29.88-4.58,1.1-6.9.2-2.11.3-4.5-.6-6.48-.03-.06-.06-.11-.1-.16-1.38,5.1-4.14,9.81-7.36,13.96-1.79,2.3-3.77,4.46-5.88,6.47-4.45,4.85-9.91,8.7-14.82,13.06-5.95,5.28-12.17,12.25-11.94,20.74.18,6.47,4.03,12.32,9.8,15.13,5.18,2.52,11.15,3.04,16.83,2.94,6.01-.1,11.99-1,17.87-2.21,5.21-1.07,10.73-2.09,15.12-5.26,3.78-2.73,10.62-2.73,14.41,0,4.39,3.17,9.91,4.19,15.12,5.26,5.88,1.21,11.86,2.11,17.87,2.21,5.68.09,11.65-.43,16.83-2.94,5.77-2.8,9.63-8.66,9.8-15.13.23-8.49-5.99-15.46-11.94-20.74Z"/>
            </g>
            <path class="cls-5" d="M239.35,135.48c-.41-9.02-4.58-17.27-11.32-22.84-2.58-2.5-5.68-4.44-8.86-6.09-3.62-1.87-7.41-3.37-11.2-4.84-4.06-1.58-8.03-3.64-11.13-6.76-3.15-3.17-5.08-7.28-5.8-11.67-.07-.4-.75-.83-.97-.31-.62,1.47-.71,3.11-.65,4.69.06,1.58.24,3.18.44,4.76.18,1.37.5,2.73.94,4.06-.85-.98-1.68-1.98-2.51-2.97-1.33-1.61-2.52-3.29-3.58-5.09-1.97-3.34-3.43-6.89-4.28-10.68-.06-.26-.66-.61-.83-.27-1.11,2.28-1.76,4.71-1.98,7.24-.23,2.62-.04,5.24.44,7.82-.69-1.29-1.35-2.6-2-3.9-1.91-3.81-3.72-7.87-4.28-12.14-.03-.25-.61-.73-.78-.35-.98,2.1-1.87,4.25-2.35,6.53-.39,1.85-.5,3.75-.41,5.65-.87-1.57-1.73-3.15-2.5-4.76-1.02-2.14-1.95-4.34-2.67-6.6-.75-2.34-1.32-4.75-1.83-7.15-.59-2.76-1.03-5.55-1.53-8.33-.08-.42-.74-.1-.81.17-.56,2.36-.75,4.79-1.28,7.16-.6,2.71-1.14,5.43-1.86,8.11-1,3.71-2.03,7.53-3.91,10.92-.41.74-.89,1.44-1.41,2.11.25-2.43.21-4.89-.29-7.27-.48-2.28-1.37-4.43-2.35-6.53-.18-.38-.75.1-.78.35-.56,4.27-2.37,8.33-4.28,12.14-.65,1.3-1.32,2.61-2,3.9.48-2.58.67-5.2.44-7.82-.22-2.53-.87-4.96-1.98-7.24-.17-.34-.77.01-.83.27-.85,3.79-2.3,7.34-4.28,10.68-1.06,1.8-2.26,3.48-3.58,5.09-.82,1-1.66,1.99-2.51,2.97.44-1.33.76-2.69.94-4.06.2-1.57.38-3.17.44-4.76.06-1.58-.02-3.22-.65-4.69-.22-.51-.9-.09-.97.31-.73,4.39-2.66,8.5-5.8,11.67-3.1,3.12-7.06,5.18-11.13,6.76-3.79,1.47-7.59,2.96-11.2,4.84-3.18,1.65-6.27,3.59-8.86,6.09-6.74,5.57-10.91,13.82-11.32,22.84-.32,7.02,1.33,13.96,3.15,20.69.15.56,1.03.17,1.13-.24.45-1.85.85-3.71,1.21-5.58.24,2.9.78,5.78,1.64,8.58.13.43.72.27.94.02,3.04-3.52,5.83-9.52,11.01-10.03-2.81,5.81-4.25,12.09-5.61,18.37-.16.72.74.56,1.02.15,2.32-3.41,4.39-7.28,7.7-9.82-1.95,4.99-4.53,9.74-5.82,14.96-1.49,6.05-1.54,12.64-1.02,18.83.31,3.61.88,7.18,1.75,10.7.14.57.97.13,1.09-.23,1.07-3.29,1.36-6.78,1.95-10.17.48-2.82,1.12-5.88,2.69-8.33-.66,8.15-1.16,16.35.36,24.43.12.66,1.06.03,1.13-.36.62-3.62,1.35-7.33,2.79-10.74.19,3.88-1.16,7.78-1.27,11.64-.13,4.61.84,9.41,1.92,13.86.14.58.99.13,1.11-.24.86-2.63,1.52-5.34,2.46-7.94-.68,6.08.14,12.37,1.89,18.18,2.07,6.87,5.66,13.9,11.51,18.29,5.97,4.49,14.12,5.8,21.1,3.01,6.52-2.62,11.13-8.7,13.91-14.95.08-.18.15-.37.23-.55.08.18.14.37.23.55,2.78,6.25,7.39,12.33,13.91,14.95,6.98,2.8,15.13,1.48,21.1-3.01,5.85-4.39,9.44-11.42,11.51-18.29,1.75-5.81,2.57-12.1,1.89-18.18.94,2.6,1.6,5.31,2.46,7.94.12.36.97.82,1.11.24,1.08-4.45,2.05-9.25,1.92-13.86-.11-3.87-1.46-7.76-1.27-11.64,1.43,3.41,2.17,7.12,2.79,10.74.07.4,1,1.03,1.13.36,1.52-8.09,1.02-16.29.36-24.43,1.58,2.46,2.21,5.51,2.69,8.33.58,3.39.88,6.88,1.95,10.17.12.36.95.81,1.09.23.87-3.52,1.45-7.09,1.75-10.7.52-6.18.48-12.77-1.02-18.83-1.29-5.22-3.87-9.98-5.82-14.96,3.31,2.54,5.38,6.42,7.7,9.82.28.41,1.18.57,1.02-.15-1.36-6.29-2.8-12.56-5.61-18.37,5.18.51,7.96,6.51,11.01,10.03.22.26.81.41.94-.02.86-2.8,1.41-5.68,1.64-8.58.36,1.87.76,3.73,1.21,5.58.1.41.97.81,1.13.24,1.82-6.73,3.47-13.67,3.15-20.69Z"/>
            <path class="cls-8" d="M197.26,275.25c-.18,1.96-.4,3.93-.37,5.91,0,.22.06.44.15.66,1.12-.5,2.17-1.15,3.12-1.94,2.68-2.25,4.62-5.3,6.05-8.48.84-2.83,1.27-5.88.97-8.88-.38-3.73-1.64-7.28-3.46-10.31-1.12-1.85-2.41-3.49-3.79-5.01-.15-.7-.33-1.39-.53-2.06-1.12-3.61-3.24-6.33-6.14-8.7-5.44-4.43-12.42-6.63-19.27-7.62-6.99-1.01-14.1-.78-21.08.15-8.02,1.07-16.13,3.17-22.95,7.67-1.11.74-2.19,1.54-3.22,2.4-.08,0-.17,0-.28.06-2.73,1.23-5.18,3.2-7.45,5.38-2.39,2.3-4.63,4.72-6.44,7.72-1.83,3.02-3.09,6.57-3.46,10.31-.11,1.09-.11,2.19-.05,3.28.79,3.26,1.97,6.4,4.12,9.04,1.79,2.19,3.94,4,6.2,5.66-.02-1.76-.2-3.5-.36-5.25.2.54.41,1.08.65,1.59,1.78,3.93,4.91,6.27,7.9,8.72,1.39.58,2.83,1.02,4.3,1.27.38-.47.6-1.08.46-1.66-.72-2.91-1.68-5.91-2.44-8.97.79,1.2,1.71,2.28,2.73,3.25,3.69,3.49,8.34,5.01,12.11,8.36,1.63,1.45,3.73,3.64,3.81,6.32.06,1.89,2.37,1.07,2.63-.32.36-1.9.65-3.79.86-5.7.49,1.73.93,3.47,1.27,5.23.42,2.21.38,4.47-.03,6.69-.3,1.62-1.12,3.1-1.81,4.59,1.22-.07,2.47-.46,3.51-.89,2.38-.97,4.59-2.44,6.57-4.08.86-.72,1.7-1.48,2.45-2.31.59-.64,1.08-1.35,1.54-2.08.06-.17.12-.34.17-.51.03.03.07.05.1.07.1-.17.2-.33.3-.5.94-1.58,1.87-3.19,3.11-4.56.52-.58,1.11-1.11,1.73-1.58-.05.12-.1.23-.15.35-.11.18-.21.37-.31.55-.66,1.16-1.34,2.3-2.07,3.42-.44.68.08,1.31.82,1.18,4.85-.86,8.34-5.6,10.98-9.4.86-1.25,1.7-2.55,2.4-3.91.36-.29.72-.59,1.07-.92,1.02-.97,1.94-2.05,2.73-3.25-.76,3.05-1.72,6.06-2.44,8.97-.04.16-.05.33-.04.49,1.61-.3,3.23-.52,4.83-.88.48-.11.94-.24,1.4-.39,2.52-2.07,4.97-4.25,6.47-7.55.23-.52.45-1.05.65-1.59Z"/>
            <path class="cls-9" d="M121.2,263.97c5.62,3.88,12.24,6.2,18.89,7.55,3.26.66,6.57,1.08,9.9,1.25,3.88.2,7.78.01,11.64-.3,5.11-.42,10.2-1.17,15.18-2.39,2.46-.6,4.88-1.32,7.27-2.17,2.3-.82,4.57-1.74,6.67-2.99,5.34-3.19,9.18-7.98,12.82-12.93-1.09-1.76-2.32-3.32-3.64-4.77-.15-.7-.33-1.39-.53-2.06-1.12-3.61-3.24-6.33-6.14-8.7-5.44-4.43-12.42-6.63-19.27-7.62-6.99-1.01-14.1-.78-21.08.15-8.02,1.07-16.13,3.17-22.95,7.67-1.11.74-2.19,1.54-3.22,2.4-.08,0-.17,0-.28.06-2.73,1.23-5.18,3.2-7.45,5.38-2.39,2.3-4.63,4.72-6.44,7.72-.21.35-.41.71-.61,1.07,1.98,4.32,5.29,7.94,9.26,10.69Z"/>
            <path class="cls-2" d="M204.98,155.37c-.16-.61-.36-1.21-.58-1.8-.21-.85-.44-1.69-.73-2.51-4.11-11.75-18.26-15.72-29.59-18.06-19.74-4.06-45.86-2.07-60.13,13.51-2.32,2.53-4,5.57-4.88,8.85-.96,3.58-1.13,7.29-.96,10.97.24,5.23.88,10.46,1.71,15.63,1.71,10.58,4.4,20.99,7.47,31.27.79,2.63,1.6,5.24,2.45,7.85-2.02,1.88-3.74,4.11-5.02,6.55-2.77,5.25-3.74,11.62-2.07,17.37,3.49,12.02,16.23,16.73,27.38,18.78,4.35.8,8.72,1.18,13.14,1.13,1.28-.01,2.56-.06,3.85-.13,1.28.07,2.56.11,3.85.13,4.43.05,8.79-.33,13.14-1.13,11.15-2.05,23.89-6.76,27.38-18.78,1.67-5.75.7-12.11-2.07-17.37-1.29-2.44-3.01-4.67-5.02-6.55.85-2.61,1.66-5.22,2.45-7.85,3.08-10.28,5.76-20.69,7.47-31.27.84-5.17,1.48-10.4,1.72-15.63.17-3.68,0-7.39-.96-10.97Z"/>
            <path class="cls-13" d="M201.57,235.05c-1.22,3.57-3.49,6.69-6.28,9.2-6.35,5.72-14.83,8.54-23.07,10.15-10.47,2.05-21.48,2.16-31.94,0-4.76-.99-9.47-2.46-13.76-4.77-3.2-1.72-6.15-3.97-8.29-6.94-3.12-4.33-3.9-9.56-3.65-14.76-2.66,5.2-3.57,11.44-1.93,17.09,3.49,12.02,16.23,16.73,27.38,18.78,4.35.8,8.72,1.18,13.14,1.13,1.28-.01,2.56-.06,3.85-.13,1.28.07,2.56.11,3.85.13,4.43.05,8.79-.33,13.14-1.13,11.15-2.05,23.89-6.76,27.38-18.78.99-3.42,1.05-7.05.35-10.54-.06.19-.11.39-.17.58Z"/>
            <path class="cls-17" d="M225.11,118.51c-3.15-11.19-58.67-6.64-58.67-6.64h-16.61s-55.53-4.55-58.67,6.64c-3.15,11.19,1.05,29.62,24.83,27.22,23.78-2.4,37.21-14.04,37.21-14.04h9.87s13.44,11.64,37.21,14.04c23.78,2.4,27.97-16.03,24.83-27.22Z"/>
            <path class="cls-14" d="M210.7,143.11c3.8-1.44,6.87-4.36,8.37-8.15,1.45-3.66,1.43-7.78.06-11.46-1.44-3.87-4.32-7.06-8.05-8.82-3.68-1.74-7.89-2.09-11.91-1.83-4.27.28-8.63,1.21-12.6,2.84-2.27.94-4.45,2.17-6.26,3.85-.85.79-1.6,1.65-2.26,2.6-.56.8-1.09,1.64-1.75,2.36-1.26,1.37-3.05,2.02-4.88,1.49-1.58-.46-2.66-1.8-3.52-3.13-.95-1.48-1.68-3.1-2.72-4.52-1.2-1.65-3.05-2.51-5.07-2.69-2.29-.21-4.63.38-6.61,1.53-1.76,1.02-3.08,2.53-4.27,4.15-1.04,1.43-2,2.98-3.27,4.22-.97.95-2.25,1.7-3.63,1.25-1.95-.64-2.98-2.72-4.08-4.28-1.28-1.82-2.84-3.47-4.63-4.8-3.43-2.55-7.57-3.84-11.8-4.14-2.3-.16-4.62-.05-6.91.25-1.97.26-3.88.79-5.61,1.78-2.95,1.69-5.06,4.54-5.86,7.84-.8,3.3-.23,6.82,1.42,9.77,2.09,3.71,5.82,6.43,9.74,7.95,6.88,2.67,14.65,2.02,21.7-.19,10.95-4.15,16.88-9.28,16.88-9.28h9.87s12.5,10.83,34.73,13.74c4.41-.05,8.8-.78,12.9-2.33Z"/>
            <g>
              <g>
                <path class="cls-20" d="M151.43,205.25c-.79-5.31-1.68-10.6-2.63-15.89-.95-5.3-1.95-10.6-3.03-15.88-1.06-5.12-2.45-10.15-3.94-15.17-1.48-4.99-2.77-10.21-6.46-14.21-.32-.34-.99.13-.79.52,2.13,4.25,3.38,8.86,4.71,13.38,1.45,4.94,3.04,9.84,4.34,14.82,2.64,10.12,4.53,20.46,6.23,30.76.97,5.87,2.04,11.72,2.95,17.59.03.17.35.03.34-.1-.48-5.28-.95-10.58-1.73-15.83Z"/>
                <path class="cls-20" d="M148.81,216c-.63-2.44-1.3-4.87-1.89-7.32-1.27-5.22-2.52-10.42-4-15.6-1.47-5.16-3.17-10.22-5.21-15.21-2.04-4.99-3.79-10.09-5.86-15.07-.97-2.34-1.93-4.69-3.08-6.96-1.06-2.1-2.61-4.71-4.92-5.75-.44-.2-1.15.24-.89.72.51.93,1.18,1.77,1.76,2.67.6.94,1.12,1.9,1.63,2.88,1,1.96,1.82,4,2.66,6.03,2.05,4.99,3.94,10.03,6.02,15.01,2.03,4.87,3.91,9.73,5.49,14.76,1.56,4.97,3.25,9.94,4.57,14.98.74,2.8,1.5,5.58,2.3,8.37.77,2.69,1.27,5.35,1.69,8.1.07.45.83.05.85-.26.2-2.44-.52-4.99-1.12-7.34Z"/>
                <path class="cls-20" d="M142.79,213.97c-1.59-4.46-3.3-8.87-5.16-13.24-3.72-8.72-7.85-17.27-13-25.32-1.38-2.16-2.78-4.33-4.5-6.27-1.76-1.99-3.63-3.89-5.5-5.78-.23-.23-.69.08-.55.36,2.12,4.04,5.45,7.42,7.9,11.28,2.52,3.97,4.9,8.02,7.12,12.14,4.5,8.35,8.34,16.91,11.63,25.76,1.85,4.97,3.45,10.04,5.46,14.95.14.35.73.04.67-.28-.97-4.62-2.47-9.15-4.06-13.61Z"/>
                <path class="cls-20" d="M142.44,228.43c-1.92-6.59-4.88-12.96-8.1-19.07-3.25-6.16-7.11-12.04-11.52-17.52-1.23-1.52-2.48-3.04-3.83-4.46-.68-.71-1.35-1.43-2.07-2.1-.73-.68-1.61-1.13-2.35-1.77-.19-.17-.66.18-.48.39.55.63.92,1.44,1.45,2.1.54.67,1.13,1.31,1.68,1.97,1.12,1.33,2.24,2.66,3.32,4.01,2.15,2.7,4.15,5.5,6.03,8.37,3.81,5.83,7.18,11.86,10.29,18.05,1.72,3.42,3.31,6.91,5.03,10.33.12.25.62-.06.55-.29Z"/>
                <path class="cls-20" d="M142.57,239.22c-1.07-3.06-2.6-5.99-4.1-8.88-1.49-2.87-3.09-5.7-4.84-8.44-3.43-5.37-7.55-11.05-13.25-14.45-.25-.15-.8.2-.57.47,2.13,2.42,4.44,4.7,6.5,7.18,2.08,2.51,4.01,5.11,5.78,7.83,1.77,2.73,3.38,5.54,4.9,8.4,1.5,2.82,2.8,5.75,4.46,8.49.29.48,1.29-.13,1.13-.6Z"/>
              </g>
              <g>
                <path class="cls-20" d="M162.65,205.25c.79-5.31,1.68-10.6,2.63-15.89.95-5.3,1.95-10.6,3.03-15.88,1.06-5.12,2.45-10.15,3.94-15.17,1.48-4.99,2.77-10.21,6.46-14.21.32-.34.99.13.79.52-2.13,4.25-3.38,8.86-4.71,13.38-1.45,4.94-3.04,9.84-4.34,14.82-2.64,10.12-4.53,20.46-6.23,30.76-.97,5.87-2.04,11.72-2.95,17.59-.03.17-.35.03-.34-.1.48-5.28.95-10.58,1.73-15.83Z"/>
                <path class="cls-20" d="M165.28,216c.63-2.44,1.3-4.87,1.89-7.32,1.27-5.22,2.52-10.42,4-15.6,1.47-5.16,3.17-10.22,5.21-15.21,2.04-4.99,3.79-10.09,5.86-15.07.97-2.34,1.93-4.69,3.08-6.96,1.06-2.1,2.61-4.71,4.92-5.75.44-.2,1.15.24.89.72-.51.93-1.18,1.77-1.76,2.67-.6.94-1.12,1.9-1.63,2.88-1,1.96-1.82,4-2.66,6.03-2.05,4.99-3.94,10.03-6.02,15.01-2.03,4.87-3.91,9.73-5.49,14.76-1.56,4.97-3.25,9.94-4.57,14.98-.74,2.8-1.5,5.58-2.3,8.37-.77,2.69-1.27,5.35-1.69,8.1-.07.45-.83.05-.85-.26-.2-2.44.52-4.99,1.12-7.34Z"/>
                <path class="cls-20" d="M171.29,213.97c1.59-4.46,3.3-8.87,5.16-13.24,3.72-8.72,7.85-17.27,13-25.32,1.38-2.16,2.78-4.33,4.5-6.27,1.76-1.99,3.63-3.89,5.5-5.78.22-.23.69.08.55.36-2.12,4.04-5.45,7.42-7.9,11.28-2.52,3.97-4.9,8.02-7.12,12.14-4.5,8.35-8.34,16.91-11.63,25.76-1.85,4.97-3.45,10.04-5.46,14.95-.14.35-.73.04-.67-.28.97-4.62,2.47-9.15,4.06-13.61Z"/>
                <path class="cls-20" d="M171.64,228.43c1.92-6.59,4.88-12.96,8.1-19.07,3.25-6.16,7.11-12.04,11.52-17.52,1.23-1.52,2.48-3.04,3.83-4.46.68-.71,1.35-1.43,2.07-2.1.73-.68,1.61-1.13,2.35-1.77.19-.17.66.18.48.39-.55.63-.92,1.44-1.45,2.1-.54.67-1.13,1.31-1.68,1.97-1.12,1.33-2.24,2.66-3.32,4.01-2.14,2.7-4.15,5.5-6.03,8.37-3.81,5.83-7.18,11.86-10.29,18.05-1.72,3.42-3.31,6.91-5.03,10.33-.13.25-.62-.06-.55-.29Z"/>
                <path class="cls-20" d="M171.52,239.22c1.07-3.06,2.6-5.99,4.1-8.88,1.5-2.87,3.09-5.7,4.84-8.44,3.43-5.37,7.55-11.05,13.25-14.45.25-.15.8.2.57.47-2.13,2.42-4.44,4.7-6.5,7.18-2.08,2.51-4.01,5.11-5.78,7.83-1.77,2.73-3.38,5.54-4.9,8.4-1.5,2.82-2.8,5.75-4.46,8.49-.29.48-1.29-.13-1.13-.6Z"/>
              </g>
            </g>
            <g>
              <g>
                <path class="cls-12" d="M135.6,136.88s-5.42,7.66-17.31,3.65c-11.89-4-12.5-23.27-12.5-23.27,0,0,35.23-6.96,29.81,19.61Z"/>
                <path class="cls-15" d="M107.66,122.2c2.56,5.41,6.45,10.37,11.71,13.37,2.61,1.49,5.53,2.51,8.55,2.73,2.65.2,5.3-.29,7.69-1.42,0,0,0,0,0,0,0,0-5.42,7.66-17.31,3.65-11.89-4-12.5-23.27-12.5-23.27h0c.46,1.7,1.12,3.36,1.86,4.93Z"/>
              </g>
              <g>
                <path class="cls-12" d="M178.45,136.88s5.42,7.66,17.31,3.65c11.89-4,12.5-23.27,12.5-23.27,0,0-35.23-6.96-29.81,19.61Z"/>
                <path class="cls-15" d="M206.38,122.2c-2.56,5.41-6.45,10.37-11.71,13.37-2.61,1.49-5.53,2.51-8.55,2.73-2.65.2-5.3-.29-7.69-1.42,0,0,0,0,0,0,0,0,5.42,7.66,17.31,3.65,11.89-4,12.5-23.27,12.5-23.27h0c-.46,1.7-1.12,3.36-1.86,4.93Z"/>
                <g>
                  <g>
                    <path class="cls-11" d="M133.61,128.45c0,6.18-5.01,11.18-11.18,11.18s-11.18-5.01-11.18-11.18,5.01-11.18,11.18-11.18,11.18,5.01,11.18,11.18Z"/>
                    <g>
                      <path class="cls-19" d="M130.78,128.45c0,4.61-3.74,8.35-8.35,8.35s-8.35-3.74-8.35-8.35,3.74-8.35,8.35-8.35,8.35,3.74,8.35,8.35Z"/>
                      <g>
                        <path class="cls-21" d="M127.8,128.45c0,2.97-2.41,5.38-5.38,5.38s-5.38-2.41-5.38-5.38,2.41-5.38,5.38-5.38,5.38,2.41,5.38,5.38Z"/>
                        <path class="cls-11" d="M120.97,125.04c0,1.09-.88,1.97-1.97,1.97s-1.97-.88-1.97-1.97.88-1.97,1.97-1.97,1.97.88,1.97,1.97Z"/>
                      </g>
                    </g>
                  </g>
                  <g>
                    <circle class="cls-11" cx="191.66" cy="128.45" r="11.18"/>
                    <g>
                      <path class="cls-19" d="M200.01,128.45c0,4.61-3.74,8.35-8.35,8.35s-8.35-3.74-8.35-8.35,3.74-8.35,8.35-8.35,8.35,3.74,8.35,8.35Z"/>
                      <g>
                        <path class="cls-21" d="M197.04,128.45c0,2.97-2.41,5.38-5.38,5.38s-5.38-2.41-5.38-5.38,2.41-5.38,5.38-5.38,5.38,2.41,5.38,5.38Z"/>
                        <circle class="cls-11" cx="188.25" cy="125.04" r="1.97"/>
                      </g>
                    </g>
                  </g>
                </g>
              </g>
            </g>
            <path class="cls-13" d="M182.37,218.42c-2.51-2.85-6.07-4.43-9.18-6.51-1.48-.99-2.68-1.9-3.59-3.22-1.29-1.85-1.8-4.18-2.13-6.42-.86-5.81-.29-11.74-.3-17.58,0-6.54-.03-13.08-.06-19.63-.04-8.22-.19-16.44-.86-24.64-.34-4.09-.8-8.17-1.45-12.23-.53-3.34-.78-7.5-3.44-9.95-2.29-2.11-5.42-2.42-7.96-.55-.98.72-1.5,1.9-1.94,3.03-5.6,14.39-4.44,29.23-4.52,44.33-.03,6.54-.06,13.08-.06,19.63,0,5.84.56,11.78-.3,17.58-.33,2.24-.84,4.56-2.14,6.42-.91,1.31-2.11,2.23-3.59,3.22-3.11,2.07-6.66,3.65-9.18,6.51-6.51,7.39-2.14,19.38,5.46,24.12,4.61,2.88,10.28,3.55,15.61,3.51,1.43-.01,2.85-.08,4.28-.17,1.42.1,2.85.16,4.28.17,5.33.04,11-.63,15.61-3.51,7.6-4.74,11.97-16.74,5.46-24.12Z"/>
            <g>
              <path class="cls-18" d="M137.64,228.48c.17.06.35.09.53.1.11,0,.22,0,.33-.01.43-.03.86-.09,1.28-.16.24-.05.46-.11.68-.17.87-.21,1.58-.32,2.42-.21,1.7-.04,3.42.28,4.87,1.19,1.73,1.09,3.18,2.49,4.33,4.19,1.49,2.2,2.45,4.7,3.13,7.27.4-2.31-.61-4.97-1.5-7.06-.92-2.17-1.98-4.32-3.25-6.31-2.32-3.65-6.86-7.94-11.45-5.2-1.27.76-2.22,2.17-2.38,3.64-.08.24-.15.49-.19.74-.11.86.35,1.69,1.19,1.98Z"/>
              <path class="cls-18" d="M176.4,228.48c-.17.06-.35.09-.53.1-.11,0-.22,0-.33-.01-.43-.03-.86-.09-1.28-.16-.24-.05-.46-.11-.68-.17-.87-.21-1.58-.32-2.42-.21-1.7-.04-3.42.28-4.87,1.19-1.73,1.09-3.18,2.49-4.33,4.19-1.49,2.2-2.45,4.7-3.13,7.27-.4-2.31.61-4.97,1.5-7.06.92-2.17,1.98-4.32,3.25-6.31,2.32-3.65,6.86-7.94,11.45-5.2,1.27.76,2.22,2.17,2.38,3.64.08.24.15.49.19.74.11.86-.35,1.69-1.19,1.98Z"/>
            </g>
            <g>
              <path class="cls-3" d="M143.09,249.22c-5.56,4.5-10.64,9.63-13.64,16.22-.89,1.94-1.57,3.97-2.06,6.05-.06.25.32.2.37,0,.95-3.48,2.28-6.85,4.18-9.92,1.81-2.94,4.07-5.59,6.53-8.01,1.51-1.48,3.09-2.87,4.71-4.22.1-.08.01-.2-.09-.12Z"/>
              <path class="cls-3" d="M139.49,248.32c-2.16.2-4.12,1.22-5.92,2.38-1.81,1.16-3.52,2.54-5.05,4.05-2.9,2.87-5.14,6.3-6.76,10.04-.93,2.15-1.62,4.4-2.14,6.69-.08.35.43.27.5,0,1.07-3.82,2.45-7.58,4.54-10.97,2.1-3.4,4.85-6.31,8.06-8.68,2.01-1.48,4.25-2.85,6.73-3.35.08-.02.16-.18.04-.17Z"/>
              <path class="cls-3" d="M132.5,244.65c-2.18-.15-4.34.38-6.37,1.16-2.06.79-4.03,1.84-5.86,3.06-3.36,2.24-6.17,5.22-8.37,8.59-1.27,1.95-2.33,4.01-3.23,6.15-.11.27.32.19.41,0,1.68-3.58,3.65-7.06,6.32-10.01,2.7-2.99,6.05-5.37,9.72-7.04,2.29-1.04,4.8-1.84,7.33-1.75.09,0,.18-.16.06-.17Z"/>
              <path class="cls-3" d="M126.04,240.43c-2.74-.02-5.48.35-8.08,1.24-2.58.88-4.97,2.26-7.09,3.95-1.28,1.02-2.47,2.15-3.56,3.37-.22.25.12.42.31.21,1.87-1.99,3.91-3.82,6.25-5.24,2.25-1.37,4.72-2.32,7.3-2.84,1.58-.32,3.18-.46,4.79-.48.12,0,.24-.21.07-.21Z"/>
              <path class="cls-3" d="M122.72,237.28c-5.69-.82-11.42,1.37-15.63,5.18-1.19,1.07-2.24,2.28-3.12,3.62-.17.26.23.3.37.11,3.18-4.48,8.13-7.76,13.59-8.61,1.55-.24,3.16-.29,4.72-.08.12.02.23-.19.07-.21Z"/>
              <path class="cls-3" d="M119.62,232.57c-7.14-3.57-16.03-.13-21.83,4.5-1.62,1.29-3.12,2.76-4.32,4.46-.18.26.23.29.37.11,2.26-2.93,5.24-5.31,8.49-7.07,3.34-1.81,7.12-3.07,10.95-3.1,2.12-.01,4.24.39,6.16,1.3.11.05.3-.13.18-.19Z"/>
              <path class="cls-3" d="M116.79,233.63c-7.14-1.56-13.97,3.11-18.5,8.2-1.27,1.43-2.43,2.96-3.39,4.61-.13.23.2.26.31.09,3.59-5.61,8.98-10.98,15.65-12.58,1.91-.46,3.89-.53,5.82-.14.1.02.23-.15.11-.18Z"/>
              <path class="cls-3" d="M147.82,248.53c-2.7,1.53-4.39,4.35-5.44,7.19-1.2,3.24-1.74,6.77-1.68,10.22.03,1.66.2,3.33.69,4.92.06.19.38.02.34-.15-.72-2.96-.74-6.11-.37-9.12.4-3.28,1.29-6.64,3.07-9.45.88-1.4,2.02-2.67,3.46-3.51.09-.05.02-.14-.07-.1Z"/>
              <path class="cls-3" d="M148.13,251.35c-.97,1.28-1.41,2.85-1.87,4.37-.47,1.5-.95,2.99-1.29,4.53-.7,3.09-1.14,6.46-.27,9.57.06.22.44.02.39-.17-.77-3.11-.38-6.46.31-9.55.32-1.45.78-2.86,1.18-4.3.43-1.51.81-3.09,1.71-4.41.07-.11-.1-.12-.15-.04Z"/>
              <path class="cls-3" d="M137.02,245.35c-1.04.24-2.09.38-3.12.65-1,.26-1.99.57-2.93.98-1.75.76-3.39,1.86-4.87,3.06-2.77,2.25-5.02,5.07-6.82,8.14-1.06,1.8-1.96,3.68-2.76,5.61-.12.28.34.21.43,0,2.89-6.46,6.92-12.74,13.39-16.08,1.05-.54,2.15-.94,3.29-1.26,1.12-.32,2.25-.66,3.39-.94.1-.02.14-.19.01-.16Z"/>
            </g>
            <g>
              <path class="cls-3" d="M164.05,249.22c5.56,4.5,10.64,9.63,13.64,16.22.89,1.94,1.57,3.97,2.06,6.05.06.25-.32.2-.37,0-.95-3.48-2.28-6.85-4.18-9.92-1.81-2.94-4.07-5.59-6.53-8.01-1.51-1.48-3.09-2.87-4.71-4.22-.1-.08-.01-.2.09-.12Z"/>
              <path class="cls-3" d="M167.65,248.32c2.16.2,4.12,1.22,5.92,2.38,1.81,1.16,3.52,2.54,5.05,4.05,2.9,2.87,5.14,6.3,6.76,10.04.93,2.15,1.62,4.4,2.14,6.69.08.35-.43.27-.5,0-1.07-3.82-2.45-7.58-4.54-10.97-2.1-3.4-4.85-6.31-8.06-8.68-2.01-1.48-4.25-2.85-6.73-3.35-.08-.02-.16-.18-.03-.17Z"/>
              <path class="cls-3" d="M174.65,244.65c2.18-.15,4.34.38,6.37,1.16,2.06.79,4.03,1.84,5.86,3.06,3.36,2.24,6.17,5.22,8.37,8.59,1.27,1.95,2.33,4.01,3.23,6.15.11.27-.32.19-.41,0-1.68-3.58-3.65-7.06-6.32-10.01-2.7-2.99-6.05-5.37-9.72-7.04-2.29-1.04-4.8-1.84-7.33-1.75-.09,0-.18-.16-.06-.17Z"/>
              <path class="cls-3" d="M181.11,240.43c2.74-.02,5.48.35,8.08,1.24,2.58.88,4.97,2.26,7.09,3.95,1.28,1.02,2.47,2.15,3.56,3.37.22.25-.12.42-.31.21-1.87-1.99-3.91-3.82-6.25-5.24-2.25-1.37-4.72-2.32-7.3-2.84-1.58-.32-3.18-.46-4.79-.48-.12,0-.24-.21-.07-.21Z"/>
              <path class="cls-3" d="M184.43,237.28c5.69-.82,11.42,1.37,15.63,5.18,1.19,1.07,2.24,2.28,3.12,3.62.17.26-.23.3-.37.11-3.18-4.48-8.13-7.76-13.59-8.61-1.55-.24-3.16-.29-4.72-.08-.12.02-.23-.19-.07-.21Z"/>
              <path class="cls-3" d="M187.52,232.57c7.14-3.57,16.03-.13,21.83,4.5,1.62,1.29,3.12,2.76,4.32,4.46.18.26-.23.29-.37.11-2.26-2.93-5.24-5.31-8.49-7.07-3.34-1.81-7.12-3.07-10.95-3.1-2.12-.01-4.24.39-6.16,1.3-.11.05-.3-.13-.18-.19Z"/>
              <path class="cls-3" d="M190.35,233.63c7.14-1.56,13.97,3.11,18.5,8.2,1.27,1.43,2.43,2.96,3.39,4.61.13.23-.2.26-.31.09-3.59-5.61-8.98-10.98-15.65-12.58-1.91-.46-3.89-.53-5.82-.14-.1.02-.23-.15-.11-.18Z"/>
              <path class="cls-3" d="M159.32,248.53c2.7,1.53,4.39,4.35,5.44,7.19,1.2,3.24,1.74,6.77,1.68,10.22-.03,1.66-.2,3.33-.69,4.92-.06.19-.38.02-.34-.15.73-2.96.74-6.11.37-9.12-.4-3.28-1.29-6.64-3.07-9.45-.88-1.4-2.02-2.67-3.46-3.51-.09-.05-.02-.14.07-.1Z"/>
              <path class="cls-3" d="M159.02,251.35c.97,1.28,1.41,2.85,1.87,4.37.47,1.5.95,2.99,1.29,4.53.7,3.09,1.14,6.46.27,9.57-.06.22-.44.02-.39-.17.77-3.11.38-6.46-.31-9.55-.32-1.45-.78-2.86-1.18-4.3-.43-1.51-.81-3.09-1.71-4.41-.08-.11.1-.12.15-.04Z"/>
              <path class="cls-3" d="M170.12,245.35c1.04.24,2.09.38,3.12.65,1,.26,1.99.57,2.93.98,1.75.76,3.39,1.86,4.87,3.06,2.77,2.25,5.02,5.07,6.82,8.14,1.06,1.8,1.96,3.68,2.76,5.61.12.28-.34.21-.43,0-2.89-6.46-6.92-12.74-13.39-16.08-1.05-.54-2.15-.94-3.28-1.26-1.13-.32-2.25-.66-3.39-.94-.1-.02-.14-.19-.01-.16Z"/>
            </g>
          </g>
        </g>
      </g>
    </g>
  </g>
</svg>