<?xml version="1.0" encoding="UTF-8"?>
<svg xmlns="http://www.w3.org/2000/svg" xmlns:xlink="http://www.w3.org/1999/xlink" viewBox="0 0 321.97 321.97">
  <defs>
    <style>
      .cls-1 {
        fill: #ede5d3;
      }

      .cls-1, .cls-2, .cls-3, .cls-4, .cls-5, .cls-6, .cls-7, .cls-8, .cls-9, .cls-10, .cls-11, .cls-12, .cls-13, .cls-14, .cls-15, .cls-16 {
        stroke-width: 0px;
      }

      .cls-2 {
        fill: #c3dffb;
      }

      .cls-17 {
        isolation: isolate;
      }

      .cls-3, .cls-15 {
        fill: #af5d30;
      }

      .cls-4 {
        fill: #eeecdd;
      }

      .cls-5 {
        fill: #c0c2c4;
        opacity: .39;
      }

      .cls-5, .cls-18, .cls-15 {
        mix-blend-mode: multiply;
      }

      .cls-6 {
        fill: #7fbfff;
      }

      .cls-7 {
        fill: #433f37;
      }

      .cls-19, .cls-14 {
        fill: #3c3631;
      }

      .cls-20 {
        clip-path: url(#clippath-1);
      }

      .cls-8 {
        fill: #f0ebc8;
      }

      .cls-9 {
        fill: #fff;
      }

      .cls-10 {
        fill: #dd6c33;
      }

      .cls-21 {
        clip-path: url(#clippath);
      }

      .cls-11 {
        fill: #5f463b;
      }

      .cls-12 {
        fill: #ab6e29;
      }

      .cls-18 {
        opacity: .38;
      }

      .cls-13 {
        fill: #e6a66b;
      }

      .cls-16 {
        fill: #312017;
      }
    </style>
    <clipPath id="clippath">
      <path class="cls-14" d="M143.76,159.55s-6.61-24.52-28.81-18.68l-17.71,7.5s10.45,23.12,28.72,18.02c18.27-5.1,17.8-6.85,17.8-6.85Z"/>
    </clipPath>
    <clipPath id="clippath-1">
      <path class="cls-14" d="M172.7,160.03s6.13-24.64,28.44-19.23l17.85,7.16s-10,23.32-28.36,18.58c-18.36-4.74-17.93-6.5-17.93-6.5Z"/>
    </clipPath>
  </defs>
  <g class="cls-17">
    <g id="Camada_2" data-name="Camada 2">
      <g id="Layer_1" data-name="Layer 1">
        <g>
          <g>
            <rect class="cls-2" x="2.4" y="2.4" width="317.17" height="317.17" rx="25.68" ry="25.68"/>
            <path class="cls-6" d="M293.89,321.97H28.08c-15.48,0-28.08-12.6-28.08-28.08V28.08C0,12.6,12.6,0,28.08,0h265.81c15.48,0,28.08,12.6,28.08,28.08v265.8c0,15.48-12.6,28.08-28.08,28.08ZM28.08,4.8C15.24,4.8,4.8,15.25,4.8,28.08v265.8c0,12.84,10.44,23.28,23.28,23.28h265.81c12.84,0,23.28-10.44,23.28-23.28V28.08c0-12.84-10.44-23.28-23.28-23.28H28.08Z"/>
          </g>
          <g>
            <g>
              <path class="cls-3" d="M256.81,66.08c.14-2.06.13-4.14-.12-6.19-.19-1.52-.5-3.05-1.41-4.32-.98-1.36-2.45-2.07-4.02-2.39-1.57.3-3.13.62-4.68.99-8.38,2.04-16.46,5.18-24.17,9.03-6.39,3.2-12.6,6.86-18.63,10.69-6.37,4.05-12.61,8.45-18.06,13.7-1.72,1.65-3.39,3.45-4.93,5.37,2.99-.14,5.98.1,8.94.77.56.13-4.18,2.75-6.25,3.7,4.75.58,14.09,5.11,13.58,5.28-1.37.45-2.79.47-4.21.52,3.28,1.31,8.92,6.13,8.48,6.1-1.45-.09-2.9-.43-4.35-.43,3.33,2.6,38.97,30.83,41.16,28.44.25-.27.47-.56.71-.84,2.58-5.46,4.71-11.13,6.5-16.9,2.86-9.23,4.87-18.69,6.6-28.19,1.54-8.45,4.28-16.73,4.87-25.34Z"/>
              <path class="cls-1" d="M250.76,72.49c.02-1.02-.06-2.04-.18-3.05-.16-1.37-.42-2.75-1.25-3.9-.85-1.18-2.13-1.8-3.5-2.08-1.36.26-2.72.54-4.07.86-7.29,1.77-14.33,4.51-21.03,7.86-5.56,2.78-10.97,5.97-16.21,9.3-5.54,3.52-10.98,7.35-15.71,11.92-1.49,1.44-2.95,3-4.29,4.67,2.6-.12,5.21.09,7.78.67.49.11-3.63,2.39-5.44,3.22,4.13.5,12.26,4.45,11.82,4.59-1.19.39-2.43.41-3.66.45,2.85,1.14,7.76,5.34,7.38,5.31-1.26-.08-2.53-.37-3.79-.37,2.9,2.26,33.91,26.83,35.82,24.75.22-.24.41-.49.62-.73,2.25-4.75,4.1-9.69,5.66-14.71,2.49-8.03,4.24-16.27,5.75-24.53,1.47-8.07,4.2-15.97,4.33-24.25Z"/>
              <path class="cls-7" d="M245.83,73.51c-3.51,2.47-6.54,5.59-9.78,8.43,1.54-.6,3.08-1.21,4.6-1.86.52-.22,1.06.52.64.93-3.91,3.8-7.91,7.52-11.5,11.62,1.93-1.06,3.88-2.07,5.95-2.82.61-.22,1.11.69.53,1.03-3.48,2.04-6.46,4.81-9.07,7.87-5.2,6.1-9.08,13.29-12.23,20.62-.37.87-.74,1.75-1.09,2.63,5.68,4.27,11.73,8.67,16.37,11.7,4.96-7.83,8.28-16.7,10.7-25.59,1.28-4.7,2.25-9.46,3.23-14.24.72-3.55,1.43-7.11,1.82-10.72.34-3.06.66-6.54-.19-9.59Z"/>
              <path class="cls-15" d="M238.3,115.9c-3.47-4.95-7.24-9.81-11.61-14-3.94-3.78-8.3-7.14-13.01-9.9-7.48-4.38-15.83-7.12-24.43-7.59-1.21,1.03-2.39,2.09-3.53,3.19-1.72,1.65-3.39,3.45-4.93,5.37,2.99-.14,5.98.1,8.94.77.56.13-4.18,2.75-6.25,3.7,4.75.58,14.09,5.11,13.58,5.28-1.37.45-2.79.47-4.21.52,3.28,1.31,8.92,6.13,8.48,6.1-1.45-.09-2.9-.43-4.35-.43,3.33,2.6,38.97,30.83,41.16,28.44.25-.27.47-.56.71-.84,1.9-4.02,3.56-8.16,5.01-12.37-1.83-2.76-3.65-5.53-5.55-8.24Z"/>
            </g>
            <g>
              <path class="cls-3" d="M56.88,66.08c-.14-2.06-.13-4.14.12-6.19.19-1.52.5-3.05,1.41-4.32.98-1.36,2.45-2.07,4.02-2.39,1.57.3,3.13.62,4.68.99,8.38,2.04,16.46,5.18,24.17,9.03,6.39,3.2,12.6,6.86,18.63,10.69,6.37,4.05,12.61,8.45,18.06,13.7,1.72,1.65,3.39,3.45,4.93,5.37-2.99-.14-5.98.1-8.94.77-.56.13,4.18,2.75,6.25,3.7-4.75.58-14.09,5.11-13.58,5.28,1.37.45,2.79.47,4.21.52-3.28,1.31-8.92,6.13-8.48,6.1,1.45-.09,2.9-.43,4.35-.43-3.33,2.6-38.97,30.83-41.15,28.44-.25-.27-.47-.56-.71-.84-2.58-5.46-4.71-11.13-6.5-16.9-2.86-9.23-4.87-18.69-6.6-28.19-1.54-8.45-4.28-16.73-4.87-25.34Z"/>
              <path class="cls-1" d="M62.93,72.49c-.02-1.02.06-2.04.18-3.05.16-1.37.42-2.75,1.25-3.9.85-1.18,2.13-1.8,3.5-2.08,1.36.26,2.72.54,4.07.86,7.29,1.77,14.33,4.51,21.03,7.86,5.56,2.78,10.97,5.97,16.21,9.3,5.54,3.52,10.97,7.35,15.71,11.92,1.49,1.44,2.95,3,4.29,4.67-2.6-.12-5.21.09-7.78.67-.49.11,3.63,2.39,5.44,3.22-4.13.5-12.26,4.45-11.82,4.59,1.19.39,2.43.41,3.66.45-2.85,1.14-7.76,5.34-7.38,5.31,1.26-.08,2.53-.37,3.79-.37-2.9,2.26-33.91,26.83-35.82,24.75-.22-.24-.41-.49-.62-.73-2.25-4.75-4.1-9.69-5.66-14.71-2.49-8.03-4.24-16.27-5.75-24.53-1.47-8.07-4.2-15.97-4.33-24.25Z"/>
              <path class="cls-7" d="M67.86,73.51c3.51,2.47,6.54,5.59,9.78,8.43-1.54-.6-3.08-1.21-4.6-1.86-.52-.22-1.06.52-.64.93,3.91,3.8,7.91,7.52,11.5,11.62-1.93-1.06-3.88-2.07-5.95-2.82-.61-.22-1.11.69-.53,1.03,3.48,2.04,6.46,4.81,9.07,7.87,5.2,6.1,9.08,13.29,12.23,20.62.37.87.74,1.75,1.09,2.63-5.68,4.27-11.73,8.67-16.37,11.7-4.96-7.83-8.28-16.7-10.7-25.59-1.28-4.7-2.25-9.46-3.23-14.24-.72-3.55-1.43-7.11-1.82-10.72-.34-3.06-.66-6.54.19-9.59Z"/>
              <path class="cls-15" d="M124.87,84.78c-4.65,1.49-9.21,3.3-13.6,5.45-6.92,3.4-13.42,7.64-19.28,12.64-1.49,1.27-2.94,2.59-4.36,3.95-1.16,1.12-2.41,2.24-3.4,3.52-1.43,1.86-2.7,3.84-4.06,5.75-1.6,2.25-3.24,4.53-5.16,6.53-1.27,1.32-2.85,2.86-4.84,2.43,0,0,0,0-.01,0,1.38,3.89,2.92,7.73,4.68,11.47.23.28.46.57.71.84,2.19,2.38,37.82-25.85,41.16-28.44-1.45,0-2.9.33-4.35.43-.44.03,5.21-4.8,8.48-6.1-1.42-.05-2.84-.06-4.21-.52-.51-.17,8.83-4.7,13.58-5.28-2.07-.95-6.81-3.57-6.25-3.7,2.96-.67,5.96-.91,8.94-.77-1.53-1.92-3.21-3.72-4.93-5.37-1.01-.97-2.05-1.91-3.11-2.82Z"/>
            </g>
            <path class="cls-3" d="M297.99,187.09c-.69-2.43-1.77-4.75-3.1-6.9-4.01-6.49-10.34-12-17.49-14.97,4.94-.14,10.12-.95,13.46-4.77.48-.55-.61-1.39-1.13-1.18-1.46.56-2.97.98-4.52,1.18-6.34.83-12.69-1.43-18.06-4.65-5.35-3.21-10.05-7.46-14.4-11.9-8.56-8.75-15.74-18.7-23.93-27.77-4.14-4.59-8.56-8.95-13.43-12.77-4.29-3.37-8.96-6.16-13.94-8.38-10.29-4.61-21.55-7.05-32.78-7.72-2.79-.17-5.59-.22-8.38-.16-2.8-.06-5.59,0-8.38.16-11.23.67-22.49,3.12-32.78,7.72-4.98,2.23-9.65,5.02-13.94,8.38-4.87,3.82-9.28,8.18-13.43,12.77-8.19,9.07-15.37,19.03-23.93,27.77-4.35,4.44-9.05,8.69-14.4,11.9-5.38,3.22-11.72,5.49-18.06,4.65-1.55-.2-3.06-.62-4.52-1.18-.53-.2-1.62.63-1.13,1.18,3.34,3.82,8.52,4.63,13.46,4.77-7.16,2.96-13.48,8.48-17.49,14.97-1.33,2.15-2.4,4.47-3.1,6.9-.21.74.63.83,1.1.52,3.98-2.58,7.44-5.96,11.74-8.04,2.92-1.42,6.05-2.3,9.2-3.13-1.9,1.29-3.67,2.8-5.31,4.36-3.69,3.52-6.96,7.62-9.46,12.07-1.19,2.13-2.24,4.37-2.86,6.74-.18.69.62.89,1.09.52,4.03-3.18,7.37-7.54,11.64-10.45-4.24,4.02-7.81,9.05-8.64,14.79-.09.64.79.59,1.12.34,3.44-2.58,5.85-6.22,9.03-9.08,1.51-1.35,3.15-2.55,4.81-3.71-4.65,5.72-7.72,12.81-8.89,19.99-.45,2.78-.6,5.61-.36,8.42.05.6.69.64,1.11.34,4.42-3.21,9.49-5.56,15-5.95,4.84-.34,9.61.75,14.07,2.57,9.8,4,18.15,10.93,26.77,16.91,9.08,6.3,18.84,11.64,29.41,14.98,10.98,3.46,22.58,4.75,34.06,4.8,1.03,0,2.06,0,3.09-.02,1.03.02,2.06.03,3.09.02,11.48-.05,23.08-1.34,34.06-4.8,10.57-3.34,20.33-8.68,29.41-14.98,8.62-5.98,16.97-12.91,26.77-16.91,4.46-1.82,9.23-2.92,14.07-2.57,5.5.39,10.58,2.74,15,5.95.42.31,1.06.26,1.11-.34.24-2.81.09-5.64-.36-8.42-1.17-7.18-4.25-14.27-8.89-19.99,1.66,1.16,3.3,2.35,4.81,3.71,3.18,2.86,5.59,6.5,9.03,9.08.33.25,1.22.31,1.12-.34-.83-5.74-4.4-10.77-8.64-14.79,4.27,2.91,7.6,7.26,11.64,10.45.47.37,1.27.18,1.09-.52-.62-2.36-1.67-4.61-2.86-6.74-2.5-4.45-5.77-8.55-9.46-12.07-1.64-1.56-3.4-3.07-5.31-4.36,3.14.84,6.27,1.72,9.2,3.13,4.29,2.08,7.76,5.46,11.74,8.04.47.31,1.31.22,1.1-.52Z"/>
            <path class="cls-8" d="M294.9,180.18c-2.2-3.56-5.12-6.81-8.47-9.52-10.21-2.85-21.4-2.98-31.78-2.14,6.29,2.64,11.68,6.6,14.03,13.41.16.46-.45.95-.86.66-8.64-6.15-19.18-8.33-29.6-9.05,4.37,2.47,8.68,5.78,10.79,10.32.2.42-.13,1.03-.66.86-5.01-1.68-9.92-3.66-15.01-5.09-4.46-1.25-9.25-2.21-13.87-1.46,2.99,1.31,5.93,2.77,8.3,5.06.38.36.08.97-.41,1-5.3.23-10.63.12-15.91.72-4.63.53-9.05,1.77-13.14,3.89,4.57-.53,9.18-.44,13.73.44.48.09.59.86.14,1.07-9.02,4.16-17.63,9.16-26.69,13.23-7.83,3.51-16.01,6.21-24.57,7.12-9.02.96-18.27.43-27.1-1.62-8.38-1.94-16.18-5.22-23.07-10.39-6.2-4.65-12.48-10.38-20.62-10.84-.74-.04-.76-1.17,0-1.17,4.6.03,9.13.76,13.68,1.33-12.78-10.8-31.19-15.27-46.92-8.5-.69.3-1.2-.55-.59-1.01,5.44-4.05,11.33-7.38,17.43-10.32-8.24.03-16.85,2.49-23.55,7.2-.57.4-1.13-.45-.71-.92,3.91-4.33,8.8-7.6,13.85-10.46-2.91-.04-5.83.42-8.66,1.1-7.56,1.81-14.85,5.12-21.34,9.38-2.68,1.76-5.43,3.79-7.85,6.13-1.22,2.04-2.21,4.21-2.87,6.5-.21.74.63.83,1.1.52,3.98-2.58,7.44-5.96,11.74-8.04,2.92-1.42,6.05-2.3,9.2-3.13-1.9,1.29-3.67,2.8-5.31,4.36-3.69,3.52-6.96,7.62-9.46,12.07-1.19,2.13-2.24,4.37-2.86,6.74-.18.69.62.89,1.09.52,4.03-3.18,7.37-7.54,11.64-10.45-4.24,4.02-7.81,9.05-8.64,14.79-.09.64.79.59,1.12.34,3.44-2.58,5.85-6.22,9.03-9.08,1.51-1.35,3.15-2.55,4.81-3.71-4.65,5.72-7.72,12.81-8.89,19.99-.45,2.78-.6,5.61-.36,8.42.05.6.69.64,1.11.34,4.42-3.21,9.49-5.56,15-5.95,4.84-.34,9.61.75,14.07,2.57,9.8,4,18.15,10.93,26.77,16.91,9.08,6.3,18.84,11.64,29.41,14.98,10.98,3.46,22.58,4.75,34.06,4.8,1.03,0,2.06,0,3.09-.02,1.03.02,2.06.03,3.09.02,11.48-.05,23.08-1.34,34.06-4.8,10.57-3.34,20.33-8.68,29.41-14.98,8.62-5.98,16.97-12.91,26.77-16.91,4.46-1.82,9.23-2.92,14.07-2.57,5.5.39,10.58,2.74,15,5.95.42.31,1.06.26,1.11-.34.24-2.81.09-5.64-.36-8.42-1.17-7.18-4.25-14.27-8.89-19.99,1.66,1.16,3.3,2.35,4.81,3.71,3.18,2.86,5.59,6.5,9.03,9.08.33.25,1.22.31,1.12-.34-.83-5.74-4.4-10.77-8.64-14.79,4.27,2.91,7.6,7.26,11.64,10.45.47.37,1.27.18,1.09-.52-.62-2.36-1.67-4.61-2.86-6.74-2.5-4.45-5.77-8.55-9.46-12.07-1.64-1.56-3.4-3.07-5.31-4.36,3.14.84,6.27,1.72,9.2,3.13,4.29,2.08,7.76,5.46,11.74,8.04.47.31,1.31.22,1.1-.52-.69-2.43-1.77-4.75-3.1-6.9Z"/>
            <path class="cls-5" d="M281.75,215.5c-2.33-2.1-5.36-3.23-8.4-3.81-3.66-.69-7.45-.63-11.14-.26-4.15.41-8.26,1.26-12.29,2.32-7.79,2.06-15.4,4.93-22.62,8.5-2.59,1.28-5.16,2.65-7.56,4.27-1.99,1.35-3.93,2.78-5.97,4.06-2.37,1.49-4.96,2.93-7.8,3.23-2.69.28-5.13-.86-6.94-2.81-1.17-1.26-2.02-2.77-2.93-4.22-.87-1.38-1.75-2.76-2.67-4.11-1.33-1.97-2.76-3.85-4.29-5.62,0,1.56-.21,3.12-.61,4.62-1.64,6.13-6.21,11.38-11.85,14.2-7.57,3.78-16.13,4.59-24.44,3.39-4.14-.6-8.21-1.7-12.07-3.31-3.15-1.31-6.21-2.75-8.73-5.11-4.34-4.07-5.63-9.88-6.32-15.56-1.68,1.02-3.26,2.18-4.69,3.54-5.52,5.25-8.37,12.54-12.13,19.01-.12.21-.42.35-.66.27-7.07-2.56-12.72-7.49-18.37-12.28-4.55-3.86-9.24-7.38-14.69-9.85-4.64-2.1-9.65-3.56-14.73-4.03-4.84-.44-9.89.02-14.34,2.09-3.36,1.56-6.11,3.96-8.24,6.88.21.03.45-.03.64-.17,4.42-3.21,9.49-5.56,15-5.95,4.84-.34,9.61.75,14.07,2.57,9.8,4,18.15,10.93,26.77,16.91,9.08,6.3,18.84,11.64,29.41,14.98,10.98,3.46,22.58,4.75,34.06,4.8,1.03,0,2.06,0,3.09-.02,1.03.02,2.06.03,3.09.02,11.48-.05,23.08-1.34,34.06-4.8,10.57-3.34,20.33-8.68,29.41-14.98,8.62-5.98,16.97-12.91,26.77-16.91,4.46-1.82,9.23-2.92,14.07-2.57,5.5.39,10.58,2.74,15,5.95.42.31,1.06.26,1.11-.34.07-.78.1-1.57.1-2.35-.6-.94-1.31-1.81-2.16-2.57Z"/>
            <g class="cls-18">
              <path class="cls-3" d="M198.33,169.73c-.63,0-1.27-.08-1.87-.26-39.11-11.59-76.14-.15-76.51-.03-1.96.62-4.43.22-5.52-.9-1.09-1.12-.38-2.53,1.58-3.15,1.66-.53,41.26-12.76,84.19-.03,1.99.59,2.76,1.99,1.73,3.12-.72.79-2.14,1.25-3.61,1.25Z"/>
            </g>
            <g>
              <g>
                <path class="cls-14" d="M143.76,159.55s-6.17-28.31-30.11-22.01l-19.17,7.32s11.9,26.99,31.6,21.49c19.7-5.5,17.68-6.81,17.68-6.81Z"/>
                <g>
                  <path class="cls-19" d="M143.76,159.55s-6.61-24.52-28.81-18.68l-17.71,7.5s10.45,23.12,28.72,18.02c18.27-5.1,17.8-6.85,17.8-6.85Z"/>
                  <g class="cls-21">
                    <g>
                      <path class="cls-13" d="M136.47,150.67c2.62,8.58-2.2,17.66-10.78,20.28-8.58,2.62-17.66-2.2-20.28-10.78-2.62-8.58,2.2-17.66,10.78-20.28,8.58-2.62,17.66,2.2,20.28,10.78Z"/>
                      <g>
                        <path class="cls-16" d="M130.95,152.36c1.69,5.53-1.42,11.37-6.94,13.06-5.53,1.69-11.37-1.42-13.06-6.94-1.69-5.53,1.42-11.37,6.94-13.06,5.52-1.69,11.37,1.42,13.06,6.94Z"/>
                        <path class="cls-9" d="M116.31,149.9c.62,2.02-.52,4.16-2.54,4.77-2.02.62-4.16-.52-4.77-2.54-.62-2.02.52-4.16,2.54-4.77,2.02-.62,4.16.52,4.77,2.54Z"/>
                      </g>
                    </g>
                  </g>
                </g>
              </g>
              <g>
                <path class="cls-14" d="M172.7,160.03s5.62-28.42,29.68-22.59l19.31,6.94s-11.37,27.22-31.18,22.1c-19.81-5.11-17.81-6.46-17.81-6.46Z"/>
                <g>
                  <path class="cls-19" d="M172.7,160.03s6.13-24.64,28.44-19.23l17.85,7.16s-10,23.32-28.36,18.58c-18.36-4.74-17.93-6.5-17.93-6.5Z"/>
                  <g class="cls-20">
                    <g>
                      <path class="cls-13" d="M179.81,151.01c-2.46,8.63,2.55,17.61,11.17,20.07,8.63,2.46,17.61-2.55,20.07-11.17,2.46-8.63-2.55-17.61-11.17-20.07-8.63-2.46-17.61,2.55-20.07,11.17Z"/>
                      <g>
                        <path class="cls-16" d="M185.37,152.59c-1.58,5.56,1.64,11.34,7.2,12.93s11.34-1.64,12.93-7.2c1.58-5.56-1.64-11.34-7.2-12.93-5.56-1.58-11.34,1.64-12.93,7.2Z"/>
                        <path class="cls-9" d="M186.24,145.94c-.58,2.03.6,4.14,2.63,4.72,2.03.58,4.14-.6,4.72-2.63.58-2.03-.6-4.14-2.63-4.72-2.03-.58-4.14.6-4.72,2.63Z"/>
                      </g>
                    </g>
                  </g>
                </g>
              </g>
            </g>
            <g>
              <path class="cls-10" d="M173.56,192.27c-6.19-29.02-14.84-31.52-18.22-31.28-3.38-.24-12.03,2.26-18.22,31.28-3.82,17.94-21.63,20.38-21.44,39.82.16,16.63,6.82,19.56,36.57,20.11h6.19c29.75-.55,36.4-3.48,36.57-20.11.19-19.43-17.62-21.88-21.44-39.82Z"/>
              <path class="cls-4" d="M184.24,209.97c.88,1.89,2.09,3.62,3.03,5.48,1.31,2.57,1.95,5.32.99,8.13-.16.47-.8.59-1.07.14-1.13-1.87-2.43-3.62-3.86-5.26-.51,1.79-1.37,3.45-2.77,4.8-.29.28-.9.19-.97-.26-.34-1.98-.91-3.94-2.04-5.58-.23,2.32-.98,4.72-2.79,6.23-.29.24-.91.22-.98-.26-.21-1.55-.33-3.11-.52-4.66-.83,2.96-2.67,5.49-5.17,7.39-3.28,2.49-7.34,3.87-11.37,4.57-4.3.75-8.72.78-13.03.09-3.62-.59-7.38-1.72-10.33-3.98-1.74-1.34-3.05-3.12-3.54-5.17-.73,2-1.38,4.03-2.12,6.02-.18.5-.99.61-1.12,0-.59-2.7-.98-5.66-.47-8.42-1.69,2.3-2.92,4.95-3.82,7.65-.16.49-1.03.62-1.12,0-.64-4.27-.14-8.5,1.3-12.52-3.84,4.54-6.86,9.67-6.78,17.74.16,16.63,6.82,19.56,36.57,20.11h6.19c29.75-.55,36.4-3.48,36.57-20.11.11-10.73-5.27-16.28-10.76-22.12Z"/>
              <g>
                <g>
                  <path class="cls-11" d="M179.26,232.03c-.07,0-.14-.02-.21-.05-.21-.12-.29-.38-.17-.59.09-.17,9.56-16.83,32.84-14.23.24.03.41.24.39.48-.03.24-.25.4-.48.39-11.85-1.33-19.91,2.48-24.58,5.92-5.07,3.73-7.37,7.82-7.39,7.87-.08.14-.23.23-.38.23Z"/>
                  <path class="cls-11" d="M180.21,234.15c-.14,0-.28-.07-.36-.19-.14-.2-.09-.47.11-.61.15-.1,15.28-10.22,39.12-5.44.24.05.39.28.34.51-.05.24-.28.4-.51.34-23.46-4.71-38.31,5.2-38.45,5.3-.08.05-.16.08-.25.08Z"/>
                  <path class="cls-11" d="M214.32,245.3c-.08,0-.15-.02-.22-.06-20.26-11.92-33.6-7.66-33.73-7.61-.23.08-.48-.05-.55-.27-.08-.23.05-.48.27-.55.56-.19,13.82-4.45,34.46,7.69.21.12.28.39.16.6-.08.14-.23.22-.38.22Z"/>
                </g>
                <g>
                  <path class="cls-11" d="M129.51,232.03c-.15,0-.3-.08-.38-.23-.09-.16-9.3-16.32-31.97-13.78-.24.01-.46-.15-.48-.39-.03-.24.15-.46.39-.48,12.15-1.36,20.43,2.57,25.23,6.11,5.21,3.84,7.51,7.95,7.61,8.12.12.21.04.48-.17.59-.07.04-.14.05-.21.05Z"/>
                  <path class="cls-11" d="M128.56,234.15c-.08,0-.17-.02-.25-.08-.15-.1-14.99-10.01-38.45-5.3-.24.06-.47-.11-.51-.34-.05-.24.11-.47.34-.51,23.84-4.79,38.97,5.33,39.12,5.44.2.14.25.41.11.61-.09.12-.22.19-.36.19Z"/>
                  <path class="cls-11" d="M94.45,245.3c-.15,0-.3-.08-.38-.22-.12-.21-.05-.48.15-.6,20.63-12.14,33.9-7.88,34.46-7.69.23.08.35.33.27.55-.08.23-.32.36-.55.27-.13-.04-13.48-4.31-33.73,7.61-.07.04-.15.06-.22.06Z"/>
                </g>
              </g>
              <g>
                <path class="cls-12" d="M155.34,242.42c-.43,0-.77-.35-.77-.77v-13.34c0-.43.35-.77.77-.77s.77.35.77.77v13.34c0,.43-.35.77-.77.77Z"/>
                <path class="cls-12" d="M146.32,251.03c-.36,0-.68-.25-.76-.61-.09-.42.18-.83.6-.92,2.53-.54,8.4-2.46,8.4-8.66,0-.43.35-.77.77-.77s.77.35.77.77c0,5.09-3.6,8.89-9.63,10.17-.05.01-.11.02-.16.02Z"/>
                <path class="cls-12" d="M164.35,251.03c-.05,0-.11,0-.16-.02-6.03-1.28-9.63-5.08-9.63-10.17,0-.43.35-.77.77-.77s.77.35.77.77c0,6.2,5.88,8.12,8.4,8.66.42.09.68.5.6.92-.08.36-.4.61-.76.61Z"/>
              </g>
              <path class="cls-16" d="M165.74,222.26c-4.44-3.28-7.94-3.76-10.4-3.37-2.46-.39-5.96.09-10.4,3.37-9.3,6.87-1.84,20.35,7.27,20.07h6.27c9.11.28,16.57-13.2,7.27-20.07Z"/>
            </g>
          </g>
        </g>
      </g>
    </g>
  </g>
</svg>