<?xml version="1.0" encoding="UTF-8"?>
<svg xmlns="http://www.w3.org/2000/svg" viewBox="0 0 321.97 321.97">
  <defs>
    <style>
      .cls-1 {
        opacity: .53;
      }

      .cls-1, .cls-2, .cls-3, .cls-4, .cls-5, .cls-6, .cls-7, .cls-8, .cls-9, .cls-10, .cls-11, .cls-12, .cls-13, .cls-14 {
        stroke-width: 0px;
      }

      .cls-1, .cls-6 {
        fill: #fff;
      }

      .cls-2 {
        fill: #674238;
      }

      .cls-3 {
        fill: #c3dffb;
      }

      .cls-15 {
        isolation: isolate;
      }

      .cls-4 {
        fill: #7fbfff;
      }

      .cls-5 {
        fill: #736355;
      }

      .cls-7 {
        fill: #f7a194;
      }

      .cls-8 {
        opacity: .45;
      }

      .cls-8, .cls-9 {
        fill: #897565;
      }

      .cls-8, .cls-12 {
        mix-blend-mode: multiply;
      }

      .cls-10 {
        fill: #e0e1e2;
      }

      .cls-11 {
        fill: #86888a;
      }

      .cls-12 {
        fill: #b6a498;
      }

      .cls-13 {
        fill: #62493e;
      }

      .cls-14 {
        fill: #312017;
      }
    </style>
  </defs>
  <g class="cls-15">
    <g id="Camada_2" data-name="Camada 2">
      <g id="Layer_1" data-name="Layer 1">
        <g>
          <g>
            <rect class="cls-3" x="2.4" y="2.4" width="317.17" height="317.17" rx="25.68" ry="25.68"/>
            <path class="cls-4" d="M293.89,321.97H28.08c-15.48,0-28.08-12.6-28.08-28.08V28.08C0,12.6,12.6,0,28.08,0h265.81c15.48,0,28.08,12.6,28.08,28.08v265.81c0,15.48-12.6,28.08-28.08,28.08ZM28.08,4.8C15.24,4.8,4.8,15.24,4.8,28.08v265.81c0,12.84,10.44,23.28,23.28,23.28h265.81c12.84,0,23.28-10.44,23.28-23.28V28.08c0-12.84-10.44-23.28-23.28-23.28H28.08Z"/>
          </g>
          <g>
            <g>
              <path class="cls-9" d="M120.35,128.65c.47-7.6.64-15.21.29-22.54-.57-11.74-4.54-24.21-14.18-30.94-18.16-12.7-49.96-.55-65.06,12.66-12.54,10.97-18.24,27.11-16.32,43.55,2.09,17.86,12.18,34.83,26.56,45.54,14.45,10.76,38.19,24.36,53.47,7.56,8.64-9.49,11.87-22.32,13.3-34.75.79-6.84,1.49-13.95,1.94-21.07Z"/>
              <path class="cls-7" d="M112.96,133.49c.4-6.42.54-12.85.24-19.04-.48-9.92-3.84-20.45-11.97-26.14-15.34-10.73-42.2-.46-54.95,10.69-10.59,9.27-15.41,22.9-13.79,36.79,1.76,15.08,10.29,29.42,22.44,38.47,12.21,9.09,32.26,20.58,45.17,6.39,7.3-8.02,10.02-18.85,11.23-29.36.67-5.78,1.26-11.78,1.64-17.8Z"/>
              <path class="cls-8" d="M120.64,106.11c-.57-11.74-4.54-24.21-14.18-30.94-7.98-5.58-18.59-6.36-29.26-4.36,4.05.51,8.02,1.6,11.69,3.4,5.96,2.92,10.79,7.64,13.55,13.7,3.08,6.76,4.08,14.43,3.86,21.81-.1,3.49-.42,7.08-1.26,10.47-.92,3.7-2.63,7.17-4.82,10.28-4.44,6.33-10.51,11.23-16.19,16.38-6.39,5.8-12.04,12.62-15.76,20.46-1.6,3.37-2.86,6.97-3.35,10.68-.32,2.45-.39,4.94-.27,7.41,13.35,7.34,29.2,11.48,40.46-.91,8.64-9.49,11.87-22.32,13.3-34.75.79-6.84,1.49-13.95,1.94-21.07.47-7.6.64-15.21.29-22.54Z"/>
            </g>
            <g>
              <path class="cls-9" d="M204.52,128.65c-.47-7.6-.64-15.21-.29-22.54.57-11.74,4.54-24.21,14.18-30.94,18.16-12.7,49.96-.55,65.06,12.66,12.54,10.97,18.24,27.11,16.32,43.55-2.09,17.86-12.18,34.83-26.56,45.54-14.45,10.76-38.19,24.36-53.47,7.56-8.64-9.49-11.87-22.32-13.3-34.75-.79-6.84-1.49-13.95-1.94-21.07Z"/>
              <path class="cls-7" d="M211.91,133.49c-.4-6.42-.54-12.85-.24-19.04.48-9.92,3.84-20.45,11.97-26.14,15.34-10.73,42.2-.46,54.95,10.69,10.59,9.27,15.41,22.9,13.79,36.79-1.76,15.08-10.29,29.42-22.44,38.47-12.21,9.09-32.26,20.58-45.16,6.39-7.3-8.02-10.02-18.85-11.23-29.36-.67-5.78-1.26-11.78-1.64-17.8Z"/>
              <path class="cls-8" d="M204.23,106.11c.57-11.74,4.54-24.21,14.18-30.94,7.98-5.58,18.59-6.36,29.26-4.36-4.05.51-8.02,1.6-11.69,3.4-5.96,2.92-10.79,7.64-13.55,13.7-3.08,6.76-4.08,14.43-3.86,21.81.1,3.49.42,7.08,1.26,10.47.92,3.7,2.63,7.17,4.82,10.28,4.44,6.33,10.51,11.23,16.19,16.38,6.39,5.8,12.04,12.62,15.76,20.46,1.6,3.37,2.86,6.97,3.35,10.68.32,2.45.39,4.94.27,7.41-13.35,7.34-29.2,11.48-40.46-.91-8.64-9.49-11.87-22.32-13.3-34.75-.79-6.84-1.49-13.95-1.94-21.07-.47-7.6-.64-15.21-.29-22.54Z"/>
            </g>
            <path class="cls-5" d="M250.54,171.88c-19.47-38.38-72.49-36.31-72.49-36.31h-28.53s-53.03-2.06-72.49,36.31c-15.32,30.21-1.1,65.91,25.72,84.04,39.36,26.6,103.71,24.07,136.54-12.54,17.24-19.23,23.18-47.98,11.25-71.5Z"/>
            <path class="cls-9" d="M246.16,170.05c-18.48-36.44-68.83-34.48-68.83-34.48h-27.09s-50.35-1.96-68.83,34.48c-14.55,28.68-1.05,62.58,24.43,79.8,37.37,25.25,98.47,22.85,129.65-11.91,16.37-18.26,22.01-45.56,10.68-67.89Z"/>
            <path class="cls-12" d="M214.89,242.49c-.55,0-1.1-.13-1.61-.4-49.16-25.54-95.99-.3-96.46-.04-1.69.94-3.83.32-4.77-1.37-.94-1.69-.33-3.83,1.37-4.77.51-.28,12.79-7.01,31.64-10.42,17.42-3.15,43.95-3.91,71.45,10.37,1.72.89,2.39,3.01,1.5,4.73-.63,1.2-1.85,1.89-3.12,1.89Z"/>
            <g>
              <path class="cls-10" d="M155.64,284.36c12.81,5.57,24.1-3.55,31.24-13.4,6.42-8.87,12.42-22.48,5.52-32.74-8.6-12.8-23.02-12.91-28.67-12.39-5.65-.51-20.07-.4-28.67,12.39-8.51,12.66,2.44,32.49,15.08,43.05,1.75,1.16,3.56,2.25,5.49,3.09Z"/>
              <path class="cls-1" d="M163.73,228.11c5.65-.47,20.07,2.05,28.67,13.85,1.88,2.58,2.79,5.38,3.01,8.26.28-4.18-.53-8.31-3.01-12-8.6-12.8-23.02-12.91-28.67-12.39-5.65-.51-20.07-.4-28.67,12.39-2.39,3.55-3.24,7.67-2.96,11.99.21-2.96,1.14-5.76,2.96-8.26,8.6-11.8,23.01-14.32,28.67-13.85Z"/>
              <g>
                <path class="cls-2" d="M163.76,277.62c-.69,0-1.25-.56-1.25-1.25v-9.66c0-.69.56-1.25,1.25-1.25s1.25.56,1.25,1.25v9.66c0,.69-.56,1.25-1.25,1.25Z"/>
                <path class="cls-2" d="M157.23,283.86c-.58,0-1.09-.4-1.22-.99-.14-.67.29-1.34.96-1.48,1.67-.35,5.54-1.61,5.54-5.6,0-.69.56-1.25,1.25-1.25s1.25.56,1.25,1.25c0,4.03-2.81,7.04-7.52,8.04-.09.02-.17.03-.26.03Z"/>
                <path class="cls-2" d="M170.29,283.86c-.09,0-.17,0-.26-.03-4.71-1-7.52-4.01-7.52-8.04,0-.69.56-1.25,1.25-1.25s1.25.56,1.25,1.25c0,3.99,3.88,5.25,5.54,5.6.67.14,1.1.8.96,1.48-.13.59-.64.99-1.22.99Z"/>
              </g>
              <path class="cls-7" d="M177.15,261.54c-.26-4.14-9.17-4.18-13.39-3.96-4.22-.22-13.13-.18-13.39,3.96-.34,5.29.76,12.36,12.96,13.31v.06c.17,0,.79,0,.95,0v-.06c12.2-.95,13.21-8.02,12.88-13.31Z"/>
            </g>
            <g>
              <g>
                <g>
                  <path class="cls-6" d="M148.92,208.64c0,9.06-7.35,16.41-16.41,16.41s-16.41-7.35-16.41-16.41,7.35-16.41,16.41-16.41,16.41,7.35,16.41,16.41Z"/>
                  <path class="cls-11" d="M132.51,225.68c-9.39,0-17.03-7.64-17.03-17.03s7.64-17.03,17.03-17.03,17.03,7.64,17.03,17.03-7.64,17.03-17.03,17.03ZM132.51,192.86c-8.71,0-15.79,7.08-15.79,15.79s7.08,15.79,15.79,15.79,15.79-7.08,15.79-15.79-7.08-15.79-15.79-15.79Z"/>
                </g>
                <g>
                  <path class="cls-13" d="M144.77,208.64c0,6.77-5.49,12.26-12.26,12.26s-12.26-5.49-12.26-12.26,5.49-12.26,12.26-12.26,12.26,5.49,12.26,12.26Z"/>
                  <g>
                    <path class="cls-14" d="M142.67,208.62c0,5.61-4.55,10.16-10.16,10.16s-10.16-4.55-10.16-10.16,4.55-10.16,10.16-10.16,10.16,4.55,10.16,10.16Z"/>
                    <circle class="cls-6" cx="128.72" cy="203.66" r="1.87"/>
                    <path class="cls-6" d="M126.5,208.21c0,.65-.53,1.18-1.18,1.18s-1.18-.53-1.18-1.18.53-1.18,1.18-1.18,1.18.53,1.18,1.18Z"/>
                  </g>
                </g>
              </g>
              <g>
                <g>
                  <path class="cls-6" d="M213.91,208.64c0,9.06-7.35,16.41-16.41,16.41s-16.41-7.35-16.41-16.41,7.35-16.41,16.41-16.41,16.41,7.35,16.41,16.41Z"/>
                  <path class="cls-11" d="M197.5,225.68c-9.39,0-17.03-7.64-17.03-17.03s7.64-17.03,17.03-17.03,17.03,7.64,17.03,17.03-7.64,17.03-17.03,17.03ZM197.5,192.86c-8.71,0-15.79,7.08-15.79,15.79s7.08,15.79,15.79,15.79,15.79-7.08,15.79-15.79-7.08-15.79-15.79-15.79Z"/>
                </g>
                <g>
                  <path class="cls-13" d="M209.76,208.64c0,6.77-5.49,12.26-12.26,12.26s-12.26-5.49-12.26-12.26,5.49-12.26,12.26-12.26,12.26,5.49,12.26,12.26Z"/>
                  <g>
                    <path class="cls-14" d="M207.66,208.62c0,5.61-4.55,10.16-10.16,10.16s-10.16-4.55-10.16-10.16,4.55-10.16,10.16-10.16,10.16,4.55,10.16,10.16Z"/>
                    <path class="cls-6" d="M195.59,203.66c0,1.03-.84,1.87-1.87,1.87s-1.87-.84-1.87-1.87.84-1.87,1.87-1.87,1.87.84,1.87,1.87Z"/>
                    <path class="cls-6" d="M191.49,208.21c0,.65-.53,1.18-1.18,1.18s-1.18-.53-1.18-1.18.53-1.18,1.18-1.18,1.18.53,1.18,1.18Z"/>
                  </g>
                </g>
              </g>
            </g>
            <g>
              <g>
                <path class="cls-2" d="M179.64,269.05c-.21,0-.4-.13-.48-.34-.09-.26.05-.55.31-.64.54-.19,13.34-4.57,23.62-2.88.28.05.46.31.42.58-.05.28-.31.46-.58.42-10.03-1.65-22.99,2.79-23.12,2.84-.06.02-.11.03-.17.03Z"/>
                <path class="cls-2" d="M201.71,276.47c-.07,0-.15-.02-.22-.05-10.12-4.93-21.66-3.24-21.77-3.22-.27.04-.53-.15-.58-.42-.04-.28.15-.53.42-.58.12-.02,11.96-1.76,22.37,3.31.25.12.35.42.23.68-.09.18-.27.28-.45.28Z"/>
                <path class="cls-2" d="M197.81,285.04c-.1,0-.19-.03-.28-.08-8.84-5.83-17.8-5.91-17.89-5.91-.28,0-.51-.23-.51-.51,0-.28.23-.51.51-.51.38,0,9.34.07,18.45,6.08.23.15.3.47.14.7-.1.15-.26.23-.42.23Z"/>
              </g>
              <g>
                <path class="cls-2" d="M149.2,269.05c-.05,0-.11,0-.17-.03-.13-.05-13.1-4.49-23.12-2.84-.27.05-.54-.14-.58-.42-.05-.28.14-.54.42-.58,10.28-1.69,23.08,2.69,23.62,2.88.26.09.4.38.31.64-.07.21-.27.34-.48.34Z"/>
                <path class="cls-2" d="M127.13,276.47c-.19,0-.37-.1-.45-.28-.12-.25-.02-.55.23-.68,10.41-5.08,22.25-3.33,22.37-3.31.28.04.46.3.42.58-.04.28-.3.46-.58.42-.12-.02-11.66-1.71-21.77,3.22-.07.03-.15.05-.22.05Z"/>
                <path class="cls-2" d="M131.03,285.04c-.16,0-.33-.08-.42-.23-.15-.23-.09-.55.14-.7,9.11-6.01,18.07-6.08,18.45-6.08.28,0,.51.23.51.51,0,.28-.23.51-.51.51-.09,0-9.05.08-17.89,5.91-.09.06-.18.08-.28.08Z"/>
              </g>
            </g>
          </g>
        </g>
      </g>
    </g>
  </g>
</svg>