<?xml version="1.0" encoding="UTF-8"?>
<svg xmlns="http://www.w3.org/2000/svg" viewBox="0 0 321.97 321.97">
  <defs>
    <style>
      .cls-1 {
        fill: #4b71b7;
      }

      .cls-1, .cls-2, .cls-3, .cls-4, .cls-5, .cls-6, .cls-7, .cls-8, .cls-9, .cls-10, .cls-11, .cls-12 {
        stroke-width: 0px;
      }

      .cls-2 {
        fill: #003c7c;
      }

      .cls-3 {
        fill: #c3dffb;
      }

      .cls-13 {
        isolation: isolate;
      }

      .cls-4 {
        fill: #fdba18;
      }

      .cls-5 {
        fill: #f8991d;
      }

      .cls-6 {
        fill: #7fbfff;
      }

      .cls-7 {
        fill: #fff;
      }

      .cls-8 {
        fill: #262324;
      }

      .cls-9 {
        mix-blend-mode: multiply;
      }

      .cls-9, .cls-10 {
        fill: #f68622;
      }

      .cls-11 {
        fill: #fed7b4;
        mix-blend-mode: screen;
      }

      .cls-12 {
        fill: #312017;
      }
    </style>
  </defs>
  <g class="cls-13">
    <g id="Camada_2" data-name="Camada 2">
      <g id="Layer_1" data-name="Layer 1">
        <g>
          <g>
            <rect class="cls-3" x="2.4" y="2.4" width="317.17" height="317.17" rx="25.68" ry="25.68"/>
            <path class="cls-6" d="M293.89,321.97H28.08c-15.48,0-28.08-12.6-28.08-28.08V28.08C0,12.6,12.6,0,28.08,0h265.81c15.48,0,28.08,12.6,28.08,28.08v265.81c0,15.48-12.6,28.08-28.08,28.08ZM28.08,4.8C15.24,4.8,4.8,15.24,4.8,28.08v265.81c0,12.84,10.44,23.28,23.28,23.28h265.81c12.84,0,23.28-10.44,23.28-23.28V28.08c0-12.84-10.44-23.28-23.28-23.28H28.08Z"/>
          </g>
          <g>
            <path class="cls-8" d="M270.05,213.44c.52-12.41-3.95-25.01-8.32-36.36-2.77-7.19-5.73-14.29-8.13-21.62-2.5-7.64-4.57-15.42-6.26-23.27-2.79-12.93-4.63-26.48-14.45-36.26-8.15-8.11-19.46-13.62-30.8-15.38-6.33-.98-12.94-.82-19.09,1.11-5.77,1.81-10.56,4.95-14.7,9.19-4.64,3.68-5.65,11.19-5.83,16.76-.37,11.28,1.91,22.46,1.86,33.74-.05,11.38-1.32,22.76-3.97,33.83-1.33,5.56-2.98,11.04-4.89,16.42-1.94,5.47-4.2,10.8-5.54,16.47-1.08,4.58-1.67,9.33-1.63,14.04.03,3.8.28,8.62,3.38,11.3.65.56,1.9-.13,2.22-.75.36-.69.65-1.41.9-2.15.12,1.22.44,2.41.87,3.56,1.1,2.94,2.57,5.88,4.33,8.47,2.8,4.12,6.54,7.79,10.53,10.76,2.86,2.13,5.94,4.03,9.15,5.6,3.12,1.54,6.68,3.1,10.23,3.02,2.83-.07,4.94-1.45,6.08-3.64,7.03,6.07,17.18,7.1,26.05,4.98,5.87-1.4,11.46-3.79,16.66-6.82,4.77-2.77,8.96-6.09,12.06-10.71,1.67-2.49,3.01-5.2,4.08-8.01.52,1.96,1.66,3.69,3.97,2.81,2.62-1,4.27-4.12,5.79-6.29,2.05-2.93,3.66-6.2,4.49-9.69.84-3.53,1.31-7.45.97-11.1Z"/>
            <path class="cls-7" d="M231.2,119.32c-.58-3.45-1.93-6.75-3.6-9.81-3.23-5.93-7.91-11.26-13.61-14.93-4.41-2.83-9.52-4.49-14.73-5.02-9.95-1.01-20.25,1.8-28.45,7.49-3.12,2.16-5.89,4.77-8.18,7.72-.08.97-.14,1.93-.17,2.83-.37,11.28,1.91,22.46,1.86,33.74-.05,11.38-1.32,22.76-3.97,33.83-1,4.2-2.19,8.35-3.53,12.45.17,8.63,1.36,17.28,3.76,25.54.73,2.53,1.59,5.03,2.59,7.47.98,2.39,2.02,5.08,3.78,7.03.98,1.08,2.07,1.48,3.2.39,1.47-1.42,2.33-3.52,3.15-5.35.23-.51.91-.27,1.07.14,1.33,3.43.77,8.12,3.12,11.11.02-2.18.12-4.38.79-6.46.14-.45.83-.61,1.07-.14,3.26,6.54,5.41,14.15,11.07,19.12,2.98,2.62,6.75,4.3,10.51,5.46,4.44,1.37,9.15,1.67,13.7.62,4.29-.99,8.34-3.12,12.09-5.4,2.96-1.8,5.73-3.88,8.23-6.29,4.62-4.46,8.06-9.95,10.31-15.96,2.41-6.43,3.56-13.27,4.21-20.08.06-.66.92-.79,1.15-.16.27.76.7,1.46,1.16,2.14-.09-6.64-.73-13.47-4.55-19.1-.38-.56.46-1.17.92-.71,1.24,1.25,2.4,2.62,3.78,3.72-.23-1.19-.48-2.38-.79-3.56-3.43-12.91-11.93-23.47-17.17-35.58-1.39-3.21-2.33-6.42-2.62-9.91-.31-3.72-.05-7.45.14-11.16.19-3.72.35-7.5-.28-11.18Z"/>
            <path class="cls-4" d="M171.27,145.48c7.41,4.69,16.16,7.78,25,6.23,8.43-1.48,15.05-6.78,21.17-12.42,2.61-2.41,5.17-4.89,7.95-7.12,1.92-1.54,3.96-2.97,6.19-4.01.11-2.96.11-5.93-.38-8.85-.58-3.45-1.93-6.75-3.6-9.81-3.23-5.93-7.91-11.26-13.61-14.93-4.41-2.83-9.52-4.49-14.73-5.02-9.95-1.01-20.25,1.8-28.45,7.49-3.12,2.16-5.89,4.77-8.18,7.72-.08.97-.14,1.93-.17,2.83-.36,10.97,1.77,21.84,1.84,32.8,2.22,1.82,4.53,3.54,6.95,5.07Z"/>
            <g>
              <path class="cls-10" d="M184.6,154.31c-1.58-3.95-4.19-6.43-8.13-7.94-10.74-4.09-22.84-4.01-34.15-3.32-12.6.77-25.26,2.12-37.72,4.1-13.38,2.12-26.83,5.15-39.4,10.29-10.83,4.42-22.72,11.05-28.53,21.64-1.16,2.12-2.13,4.34-3.15,6.53-.21.23-.41.47-.61.7-1.62,1.9-3.16,3.91-4.43,6.06-1.94,3.28-4.77,8.1-3.68,12.09.21.76,1.26.67,1.75.27,9.25-7.7,21.42-10.49,33.08-11.97,14.06-1.79,28.24-1.48,42.37-.95,13.79.52,27.49.89,41.29.24,9.66-.46,19.93-.85,28.79-5.16,4.24-2.06,8.12-5.09,10.7-9.08,2.08-3.22,3.01-7.21,3.35-10.99.38-4.16.05-8.6-1.51-12.5Z"/>
              <path class="cls-9" d="M25.33,201.89c10.99-8.18,22.56-15.57,35.73-19.68,14.05-4.39,29.16-4.92,43.76-5.03,15.83-.12,31.7.9,47.52-.07,6.09-.37,12.02-1.03,17.82-3.03,4.96-1.72,9.7-4.16,13.88-7.34.75-.57,1.48-1.18,2.18-1.81.13-3.59-.3-7.3-1.63-10.62-1.58-3.95-4.19-6.43-8.13-7.94-10.74-4.09-22.84-4.01-34.15-3.32-12.6.77-25.26,2.12-37.72,4.1-13.38,2.12-26.83,5.15-39.4,10.29-10.83,4.42-22.72,11.05-28.53,21.64-1.16,2.12-2.13,4.34-3.15,6.53-.21.23-.41.47-.61.7-1.62,1.9-3.16,3.91-4.43,6.06-1.63,2.75-3.87,6.59-3.91,10.1.26-.19.52-.39.78-.58Z"/>
              <path class="cls-8" d="M177.7,159.46c-3.26,2.3-6.15,5.16-8.32,8.51-1.76,2.73-3.24,5.62-4.43,8.65-1.34,3.42-2.39,7.03-2.78,10.69-.1.95-.15,1.91-.15,2.88,3.47-.72,6.84-1.76,10.04-3.32,4.24-2.06,8.12-5.09,10.7-9.08,2.08-3.22,3.01-7.21,3.35-10.99.34-3.77.1-7.78-1.12-11.4-2.55,1.12-5.01,2.45-7.29,4.06Z"/>
              <path class="cls-5" d="M23.92,201.5c.15.47.34.92.53,1.37.2-.26.39-.52.56-.75,1.11-1.48,2.14-3,3.42-4.34,1.32-1.38,2.68-2.72,4.09-4.01,2.86-2.61,5.91-5.01,9.12-7.16,3.23-2.16,6.6-4.11,10.24-5.49,3.67-1.39,7.44-2.49,11.27-3.36,15.53-3.55,31.6-3.54,47.44-3.86,5.1-.1,10.19-.23,15.29-.24,5.27,0,10.53,0,15.8-.18,10.51-.37,21.33-1.37,31.19-5.3,4.53-1.8,8.81-4.32,12.35-7.69,1.98-7.63,2.85-15.59,3.17-23.46.38-9.22-.02-18.58-1.89-27.64-1.52-7.37-4.06-15.38-9.61-20.76-.83-.81-1.74-1.53-2.7-2.16-.97.16-1.95.32-2.91.47-9.6,1.53-19.35,2.13-29.04,2.82-9.69.68-19.38,1.22-29.03,2.42-9.54,1.19-19.01,2.88-28.34,5.18-14.01,3.45-27.04,9.9-37.82,19.56-10.46,9.37-18.35,21.65-21.91,35.28-2.2,8.44-2.8,17.33-2.84,26.03-.02,4.32.26,8.61.37,12.92.09,3.46.16,7.06,1.24,10.37Z"/>
              <path class="cls-8" d="M186.51,109.38c-1.52-7.37-4.06-15.38-9.61-20.76-.83-.81-1.74-1.53-2.7-2.16-.97.16-1.95.32-2.91.47-3.09.49-6.2.88-9.32,1.22,4.56,3.01,8.3,7.15,11.06,11.95,3.84,6.66,5.92,14.24,7,21.81.82,5.73,1.07,11.49.8,17.26-.25,5.4-.47,10.89.21,16.27.27,2.12.63,4.51,1.84,6.32.11.17.23.32.35.45.68-.55,1.36-1.13,1.99-1.73,1.98-7.63,2.85-15.59,3.17-23.46.38-9.22-.02-18.58-1.89-27.64Z"/>
              <path class="cls-8" d="M32.53,193.76c.07-.06.14-.12.21-.19.13-.28.25-.56.4-.84,3.08-5.97,7.61-11.08,12.53-15.59,5.11-4.68,10.65-8.81,16.35-12.74,5.62-3.88,11.58-7.9,15.57-13.56,3.46-4.9,5.7-12.57,1.82-17.9-1.93-2.66-5.21-4-8.39-4.37-3.89-.46-7.8.33-11.43,1.73-7.34,2.84-13.9,8.08-19.24,13.79-5.49,5.88-9.89,12.85-13.19,20.17-2.04,4.53-3.65,9.25-4.86,14.07-.01,4.27.26,8.52.37,12.79.09,3.46.16,7.06,1.24,10.37.15.47.34.92.53,1.37.2-.26.39-.52.56-.75,1.11-1.48,2.14-3,3.42-4.34,1.32-1.38,2.68-2.72,4.09-4.01Z"/>
              <path class="cls-11" d="M46.41,134.89c7.37-6.61,15.76-11.92,24.91-15.7,5.51-2.28,11.4-3.81,17.21-5.12,5.93-1.34,11.94-2.34,17.96-3.15,6.06-.81,12.13-1.44,18.23-1.86,6.37-.43,12.75-.79,19.11-1.41,2.21-.22,4.42-.39,6.59-.88.91-.21,1.81-.43,2.73-.6.61-.12,1.29-.28,1.92-.21,1.61.19,2.49,1.83,3.07,3.15.63,1.43,1.12,3.3,2.36,4.37,1.29-2.18,2.01-4.61,2.7-7.04.1-.36.53-.54.86-.35,1.44.84,2.69,2.02,3.89,3.17,2.62,2.5,5.1,5.25,8.17,7.21.2.13.41.25.62.37-.04-.21-.08-.42-.12-.63-1.15-5.55-2.8-11.33-5.76-16.21-1.55-2.55-3.79-4.45-6.59-5.52-3.24-1.23-6.75-1.41-10.18-1.39-7.81.05-15.64.28-23.42.9-17.04,1.35-34.06,4.51-50.17,10.31-7.55,2.72-15.12,5.92-21.85,10.35-6.31,4.15-11.95,9.32-16.76,15.14-6.22,7.52-11.14,16.35-13.82,25.78,5.54-7.38,11.47-14.51,18.35-20.69Z"/>
            </g>
            <g>
              <path class="cls-12" d="M198.22,107.45c-.32,0-.64-.13-.87-.38-.43-.48-.4-1.21.08-1.64.08-.07,7.95-7.05,18.43-.94.56.32.74,1.04.42,1.6-.32.56-1.03.74-1.6.42-8.96-5.23-15.42.41-15.69.65-.22.2-.5.3-.78.3Z"/>
              <g>
                <circle class="cls-2" cx="208.82" cy="122.06" r="12.52"/>
                <path class="cls-1" d="M218.81,122.06c0,5.52-4.47,9.99-9.99,9.99s-9.99-4.47-9.99-9.99,4.47-9.99,9.99-9.99,9.99,4.47,9.99,9.99Z"/>
                <path class="cls-12" d="M214.95,122.28c0,3.39-2.74,6.13-6.13,6.13s-6.13-2.74-6.13-6.13,2.74-6.13,6.13-6.13,6.13,2.74,6.13,6.13Z"/>
                <path class="cls-7" d="M206.97,117.74c0,.98-.79,1.77-1.77,1.77s-1.77-.79-1.77-1.77.79-1.77,1.77-1.77,1.77.79,1.77,1.77Z"/>
                <path class="cls-7" d="M203.43,122.7c0,.74-.6,1.35-1.35,1.35s-1.35-.6-1.35-1.35.6-1.35,1.35-1.35,1.35.6,1.35,1.35Z"/>
              </g>
            </g>
          </g>
        </g>
      </g>
    </g>
  </g>
</svg>